<svg width="144" height="25" viewBox="0 0 144 25" fill="none" xmlns="http://www.w3.org/2000/svg">
<path d="M12.9766 0.771484L15.6707 9.06328H24.3892L17.3358 14.1879L20.03 22.4797L12.9766 17.3551L5.92314 22.4797L8.61731 14.1879L1.56388 9.06328H10.2824L12.9766 0.771484Z" fill="#FFDC25"/>
<path d="M42.5781 0.589844L45.2723 8.88164H53.9908L46.9374 14.0063L49.6315 22.298L42.5781 17.1734L35.5247 22.298L38.2189 14.0063L31.1654 8.88164H39.884L42.5781 0.589844Z" fill="#FFDC25"/>
<path d="M101.781 0.589844L104.475 8.88164H113.194L106.141 14.0063L108.835 22.298L101.781 17.1734L94.7278 22.298L97.422 14.0063L90.3686 8.88164H99.0871L101.781 0.589844Z" fill="#FFDC25"/>
<path d="M72.1797 0.589844L74.8739 8.88164H83.5924L76.5389 14.0063L79.2331 22.298L72.1797 17.1734L65.1263 22.298L67.8204 14.0063L60.767 8.88164H69.4855L72.1797 0.589844Z" fill="#FFDC25"/>
<path d="M131.383 0.589844L134.077 8.88164H142.795L135.742 14.0063L138.436 22.298L131.383 17.1734L124.329 22.298L127.024 14.0063L119.97 8.88164H128.689L131.383 0.589844Z" fill="#FFDC25"/>
</svg>
