<svg width="16" height="22" viewBox="0 0 16 22" fill="none" xmlns="http://www.w3.org/2000/svg">
<path d="M13 0.814941H3C1.89543 0.814941 1 1.71037 1 2.81494V18.8149C1 19.9195 1.89543 20.8149 3 20.8149H13C14.1046 20.8149 15 19.9195 15 18.8149V2.81494C15 1.71037 14.1046 0.814941 13 0.814941Z" stroke="#7842C6" stroke-width="1.5" stroke-linecap="round" stroke-linejoin="round"/>
<path d="M6.55469 17.8149L9.4451 17.8151" stroke="#7842C6" stroke-width="1.5" stroke-linecap="round" stroke-linejoin="round"/>
<path d="M4.80032 7.33008C4.70936 7.33008 4.61839 7.36663 4.5491 7.43938C4.41053 7.58488 4.41053 7.82144 4.5491 7.96694L5.48042 8.94482C4.42306 9.75953 3.73438 11.0704 3.73438 12.5532H12.262C12.262 11.0704 11.5733 9.75953 10.5159 8.94482L11.4472 7.96694C11.5858 7.82069 11.5858 7.58563 11.4472 7.43938C11.3087 7.29388 11.0834 7.29388 10.9448 7.43938L9.89134 8.54551C9.32038 8.24753 8.67909 8.07624 7.99817 8.07624C7.31725 8.07624 6.67595 8.24753 6.105 8.54551L5.05154 7.43938C4.98226 7.36663 4.89128 7.33008 4.80032 7.33008ZM5.86627 10.3147H6.5769V11.0609H5.86627V10.3147ZM9.41943 10.3147H10.1301V11.0609H9.41943V10.3147Z" fill="#7842C6"/>
</svg>
