<svg width="150" height="24" viewBox="0 0 150 30" fill="none" xmlns="http://www.w3.org/2000/svg">
<path d="M16.6558 23.5146L15.3118 19.4826H6.38378L5.03978 23.5146H0.271781L8.11178 1.11465H13.5838L21.4558 23.5146H16.6558ZM7.79178 15.3546H13.9358L10.8638 6.20265L7.79178 15.3546ZM32.7508 7.06665C34.9054 7.06665 36.7401 7.88798 38.2548 9.53065C39.7908 11.152 40.5588 13.1466 40.5588 15.5146C40.5588 17.8826 39.7908 19.888 38.2548 21.5306C36.7401 23.152 34.9054 23.9626 32.7508 23.9626C30.5108 23.9626 28.7828 23.184 27.5668 21.6266V29.9146H23.4388V7.51465H27.5668V9.40265C28.7828 7.84531 30.5108 7.06665 32.7508 7.06665ZM28.8148 18.7786C29.6468 19.6106 30.7028 20.0266 31.9828 20.0266C33.2628 20.0266 34.3188 19.6106 35.1508 18.7786C36.0041 17.9253 36.4308 16.8373 36.4308 15.5146C36.4308 14.192 36.0041 13.1146 35.1508 12.2826C34.3188 11.4293 33.2628 11.0026 31.9828 11.0026C30.7028 11.0026 29.6468 11.4293 28.8148 12.2826C27.9828 13.1146 27.5668 14.192 27.5668 15.5146C27.5668 16.8373 27.9828 17.9253 28.8148 18.7786ZM52.782 7.06665C54.9367 7.06665 56.7714 7.88798 58.286 9.53065C59.822 11.152 60.59 13.1466 60.59 15.5146C60.59 17.8826 59.822 19.888 58.286 21.5306C56.7714 23.152 54.9367 23.9626 52.782 23.9626C50.542 23.9626 48.814 23.184 47.598 21.6266V29.9146H43.47V7.51465H47.598V9.40265C48.814 7.84531 50.542 7.06665 52.782 7.06665ZM48.846 18.7786C49.678 19.6106 50.734 20.0266 52.014 20.0266C53.294 20.0266 54.35 19.6106 55.182 18.7786C56.0354 17.9253 56.462 16.8373 56.462 15.5146C56.462 14.192 56.0354 13.1146 55.182 12.2826C54.35 11.4293 53.294 11.0026 52.014 11.0026C50.734 11.0026 49.678 11.4293 48.846 12.2826C48.014 13.1146 47.598 14.192 47.598 15.5146C47.598 16.8373 48.014 17.9253 48.846 18.7786ZM71.6093 4.63465C69.3479 4.46398 68.2173 5.37065 68.2173 7.35465V7.51465H71.6093V11.4826H68.2173V23.5146H64.0893V11.4826H61.7853V7.51465H64.0893V7.35465C64.0893 5.09332 64.7186 3.37598 65.9773 2.20265C67.2359 1.02931 69.1133 0.517314 71.6093 0.666647V4.63465ZM84.0613 7.51465H88.1893V23.5146H84.0613V21.7226C83.0586 23.216 81.4693 23.9626 79.2933 23.9626C77.5439 23.9626 76.0933 23.376 74.9413 22.2026C73.8106 21.0293 73.2453 19.408 73.2453 17.3386V7.51465H77.3733V16.8266C77.3733 17.8933 77.6613 18.7146 78.2373 19.2906C78.8133 19.8453 79.5813 20.1226 80.5413 20.1226C81.6079 20.1226 82.4613 19.792 83.1013 19.1306C83.7413 18.4693 84.0613 17.4773 84.0613 16.1546V7.51465ZM101.122 11.4826H97.506V18.1386C97.506 18.6933 97.6447 19.0986 97.922 19.3546C98.1994 19.6106 98.6047 19.76 99.138 19.8026C99.6714 19.824 100.333 19.8133 101.122 19.7706V23.5146C98.2847 23.8346 96.2794 23.568 95.106 22.7146C93.954 21.8613 93.378 20.336 93.378 18.1386V11.4826H90.594V7.51465H93.378V4.28265L97.506 3.03465V7.51465H101.122V11.4826ZM114.843 7.51465H118.971V23.5146H114.843V21.7226C113.84 23.216 112.251 23.9626 110.075 23.9626C108.325 23.9626 106.875 23.376 105.723 22.2026C104.592 21.0293 104.027 19.408 104.027 17.3386V7.51465H108.155V16.8266C108.155 17.8933 108.443 18.7146 109.019 19.2906C109.595 19.8453 110.363 20.1226 111.323 20.1226C112.389 20.1226 113.243 19.792 113.883 19.1306C114.523 18.4693 114.843 17.4773 114.843 16.1546V7.51465ZM126.879 10.2666C127.263 9.24265 127.893 8.47465 128.767 7.96265C129.663 7.45065 130.655 7.19465 131.743 7.19465V11.8026C130.485 11.6533 129.354 11.9093 128.351 12.5706C127.37 13.232 126.879 14.3306 126.879 15.8666V23.5146H122.751V7.51465H126.879V10.2666ZM145.724 7.51465H149.852V23.5146H145.724V21.6266C144.486 23.184 142.748 23.9626 140.508 23.9626C138.374 23.9626 136.54 23.152 135.004 21.5306C133.489 19.888 132.732 17.8826 132.732 15.5146C132.732 13.1466 133.489 11.152 135.004 9.53065C136.54 7.88798 138.374 7.06665 140.508 7.06665C142.748 7.06665 144.486 7.84531 145.724 9.40265V7.51465ZM138.108 18.7786C138.94 19.6106 139.996 20.0266 141.276 20.0266C142.556 20.0266 143.612 19.6106 144.444 18.7786C145.297 17.9253 145.724 16.8373 145.724 15.5146C145.724 14.192 145.297 13.1146 144.444 12.2826C143.612 11.4293 142.556 11.0026 141.276 11.0026C139.996 11.0026 138.94 11.4293 138.108 12.2826C137.276 13.1146 136.86 14.192 136.86 15.5146C136.86 16.8373 137.276 17.9253 138.108 18.7786Z" fill="#050505" fill-opacity="0.7"/>
</svg>
