<svg xmlns="http://www.w3.org/2000/svg" xmlns:xlink="http://www.w3.org/1999/xlink" width="78" height="78" viewBox="0 0 78 78">
  <defs>
    <linearGradient id="linear-gradient" x1="0.5" x2="0.5" y2="1" gradientUnits="objectBoundingBox">
      <stop offset="0" stop-color="#4393ff"/>
      <stop offset="1" stop-color="#1961c3"/>
    </linearGradient>
    <filter id="Icon_material-settings" x="14.437" y="17" width="49.127" height="50" filterUnits="userSpaceOnUse">
      <feOffset dy="3" input="SourceAlpha"/>
      <feGaussianBlur stdDeviation="3" result="blur"/>
      <feFlood flood-opacity="0.161"/>
      <feComposite operator="in" in2="blur"/>
      <feComposite in="SourceGraphic"/>
    </filter>
  </defs>
  <g id="backend" transform="translate(-223.5 -5625.623)">
    <g id="Ellipse_76" data-name="Ellipse 76" transform="translate(223.5 5625.623)" fill="#fff" stroke="#fff" stroke-width="2">
      <circle cx="39" cy="39" r="39" stroke="none"/>
      <circle cx="39" cy="39" r="38" fill="none"/>
    </g>
    <circle id="Ellipse_91" data-name="Ellipse 91" cx="32" cy="32" r="32" transform="translate(230.5 5632.623)" fill="url(#linear-gradient)"/>
    <g transform="matrix(1, 0, 0, 1, 223.5, 5625.62)" filter="url(#Icon_material-settings)">
      <path id="Icon_material-settings-2" data-name="Icon material-settings" d="M30.861,20.568A12.469,12.469,0,0,0,30.973,19a12.469,12.469,0,0,0-.112-1.568l3.376-2.64a.807.807,0,0,0,.192-1.024l-3.2-5.536a.8.8,0,0,0-.976-.352l-3.984,1.6a11.69,11.69,0,0,0-2.7-1.568l-.608-4.24A.78.78,0,0,0,22.173,3h-6.4a.78.78,0,0,0-.784.672l-.608,4.24a12.293,12.293,0,0,0-2.7,1.568L7.693,7.88a.78.78,0,0,0-.976.352l-3.2,5.536a.789.789,0,0,0,.192,1.024l3.376,2.64A12.689,12.689,0,0,0,6.973,19a12.689,12.689,0,0,0,.112,1.568l-3.376,2.64a.807.807,0,0,0-.192,1.024l3.2,5.536a.8.8,0,0,0,.976.352l3.984-1.6a11.69,11.69,0,0,0,2.7,1.568l.608,4.24a.78.78,0,0,0,.784.672h6.4a.78.78,0,0,0,.784-.672l.608-4.24a12.293,12.293,0,0,0,2.7-1.568l3.984,1.6a.78.78,0,0,0,.976-.352l3.2-5.536a.807.807,0,0,0-.192-1.024l-3.376-2.64ZM18.973,24.6a5.6,5.6,0,1,1,5.6-5.6A5.606,5.606,0,0,1,18.973,24.6Z" transform="translate(20.03 20)" fill="#fff"/>
    </g>
  </g>
</svg>
