<svg width="20" height="20" viewBox="0 0 20 20" fill="none" xmlns="http://www.w3.org/2000/svg">
<path d="M12.3978 4.90551C12.2289 5.0779 12.1342 5.30967 12.1342 5.55107C12.1342 5.79247 12.2289 6.02425 12.3978 6.19664L13.8734 7.67222C14.0458 7.8412 14.2776 7.93585 14.519 7.93585C14.7604 7.93585 14.9922 7.8412 15.1646 7.67222L18.6414 4.19538C19.1051 5.22016 19.2455 6.36194 19.0439 7.46854C18.8423 8.57514 18.3082 9.59402 17.5128 10.3894C16.7175 11.1848 15.6986 11.7188 14.592 11.9205C13.4854 12.1221 12.3436 11.9817 11.3188 11.518L4.94616 17.8906C4.57928 18.2575 4.08167 18.4636 3.56281 18.4636C3.04395 18.4636 2.54634 18.2575 2.17945 17.8906C1.81256 17.5237 1.60645 17.0261 1.60645 16.5073C1.60645 15.9884 1.81256 15.4908 2.17945 15.1239L8.55212 8.75124C8.08838 7.72646 7.94797 6.58469 8.1496 5.47808C8.35122 4.37148 8.88531 3.3526 9.68068 2.55723C10.476 1.76186 11.4949 1.22778 12.6015 1.02615C13.7081 0.824525 14.8499 0.964934 15.8747 1.42867L12.4071 4.89628L12.3978 4.90551Z" stroke="#7842C6" stroke-width="1.5" stroke-linecap="round" stroke-linejoin="round"/>
</svg>
