<svg width="28" height="23" viewBox="0 0 28 23" fill="none" xmlns="http://www.w3.org/2000/svg">
<path d="M1.03125 11.81C1.03125 6.23998 5.54125 1.72998 11.1112 1.72998C15.1813 1.72998 18.6812 4.14998 20.2712 7.61998C23.9412 7.91998 26.8312 10.98 26.8312 14.72C26.8312 15.51 26.7013 16.27 26.4613 16.98C25.5313 19.76 22.9413 21.78 19.8713 21.85C19.8113 21.86 19.7512 21.86 19.6912 21.86C19.6312 21.86 19.5712 21.86 19.5112 21.85H12.0913C11.7713 21.88 11.4412 21.9 11.1112 21.9C10.7812 21.9 10.4513 21.88 10.1313 21.85H10.0913C9.20125 21.85 8.36125 21.64 7.61125 21.26C3.77125 19.84 1.03125 16.15 1.03125 11.81Z" stroke="#5C3EB3" stroke-width="1.5" stroke-miterlimit="10" stroke-linejoin="round"/>
<path d="M4.78516 12.94C4.78516 8.48246 7.9689 5.40088 12.0889 5.40088" stroke="#5C3EB3" stroke-width="1.5" stroke-miterlimit="10" stroke-linecap="round"/>
</svg>
