<svg width="95" height="25" viewBox="0 0 95 25" fill="none" xmlns="http://www.w3.org/2000/svg">
<path d="M12.3368 24.6199C8.96615 24.6199 6.18215 23.4999 3.98481 21.2599C1.78748 19.0199 0.688812 16.2572 0.688812 12.9719C0.688812 9.66521 1.78748 6.90254 3.98481 4.68387C6.18215 2.44387 8.96615 1.32387 12.3368 1.32387C14.3635 1.32387 16.2301 1.80387 17.9368 2.76387C19.6648 3.70254 21.0088 4.98254 21.9688 6.60387L18.1608 8.81187C17.6061 7.80921 16.8168 7.03054 15.7928 6.47587C14.7688 5.89987 13.6168 5.61187 12.3368 5.61187C10.1608 5.61187 8.40081 6.29454 7.05681 7.65987C5.73415 9.02521 5.07281 10.7959 5.07281 12.9719C5.07281 15.1265 5.73415 16.8865 7.05681 18.2519C8.40081 19.6172 10.1608 20.2999 12.3368 20.2999C13.6168 20.2999 14.7688 20.0225 15.7928 19.4679C16.8381 18.8919 17.6275 18.1132 18.1608 17.1319L21.9688 19.3399C21.0088 20.9612 19.6755 22.2519 17.9688 23.2119C16.2621 24.1505 14.3848 24.6199 12.3368 24.6199ZM24.7396 24.1719V0.811874H28.8676V24.1719H24.7396ZM43.2058 8.17188H47.3338V24.1719H43.2058V22.3799C42.2031 23.8732 40.6138 24.6199 38.4378 24.6199C36.6885 24.6199 35.2378 24.0332 34.0858 22.8599C32.9551 21.6865 32.3898 20.0652 32.3898 17.9959V8.17188H36.5178V17.4839C36.5178 18.5505 36.8058 19.3719 37.3818 19.9479C37.9578 20.5025 38.7258 20.7799 39.6858 20.7799C40.7525 20.7799 41.6058 20.4492 42.2458 19.7879C42.8858 19.1265 43.2058 18.1345 43.2058 16.8119V8.17188ZM60.2666 12.1399H56.6506V18.7959C56.6506 19.3505 56.7892 19.7559 57.0666 20.0119C57.3439 20.2679 57.7492 20.4172 58.2826 20.4599C58.8159 20.4812 59.4772 20.4705 60.2666 20.4279V24.1719C57.4292 24.4919 55.4239 24.2252 54.2506 23.3719C53.0986 22.5185 52.5226 20.9932 52.5226 18.7959V12.1399H49.7386V8.17188H52.5226V4.93987L56.6506 3.69187V8.17188H60.2666V12.1399ZM70.2931 24.6199C67.8824 24.6199 65.8664 23.8092 64.2451 22.1879C62.6451 20.5665 61.8451 18.5612 61.8451 16.1719C61.8451 13.7825 62.6451 11.7772 64.2451 10.1559C65.8664 8.53454 67.8824 7.72388 70.2931 7.72388C71.8504 7.72388 73.2691 8.09721 74.5491 8.84387C75.8291 9.59054 76.7997 10.5932 77.4611 11.8519L73.9091 13.9319C73.5891 13.2705 73.0984 12.7479 72.4371 12.3639C71.7971 11.9799 71.0717 11.7879 70.2611 11.7879C69.0237 11.7879 67.9997 12.2039 67.1891 13.0359C66.3784 13.8465 65.9731 14.8919 65.9731 16.1719C65.9731 17.4305 66.3784 18.4759 67.1891 19.3079C67.9997 20.1185 69.0237 20.5239 70.2611 20.5239C71.0931 20.5239 71.8291 20.3425 72.4691 19.9799C73.1304 19.5959 73.6211 19.0732 73.9411 18.4119L77.5251 20.4599C76.8211 21.7185 75.8291 22.7319 74.5491 23.4999C73.2691 24.2465 71.8504 24.6199 70.2931 24.6199ZM88.6043 7.72388C90.3536 7.72388 91.7936 8.31054 92.9243 9.48387C94.0763 10.6572 94.6523 12.2785 94.6523 14.3479V24.1719H90.5243V14.8599C90.5243 13.7932 90.2363 12.9825 89.6603 12.4279C89.0843 11.8519 88.3163 11.5639 87.3563 11.5639C86.2896 11.5639 85.4363 11.8945 84.7963 12.5559C84.1563 13.2172 83.8363 14.2092 83.8363 15.5319V24.1719H79.7083V1.77187H83.8363V9.96387C84.839 8.47054 86.4283 7.72388 88.6043 7.72388Z" fill="#050505" fill-opacity="0.7"/>
</svg>
