<svg width="22" height="23" viewBox="0 0 22 23" fill="none" xmlns="http://www.w3.org/2000/svg">
<path d="M10.0214 22.4212C15.5254 22.4212 20.0155 17.9312 20.0155 12.4274V11.4715H10.9774V2.43359H10.0214C4.51744 2.43359 0.0273438 6.92362 0.0273438 12.4274C0.0273438 17.9313 4.51728 22.4212 10.0214 22.4212ZM9.23922 4.20062V13.2095H18.2484C17.8428 17.4098 14.3087 20.6832 10.0214 20.6832C5.47324 20.6832 1.76539 16.9753 1.76539 12.4274C1.76539 8.14026 5.06778 4.60616 9.23922 4.20062Z" fill="#7842C6"/>
<path d="M13.2695 0.609375V9.17882H21.839L21.711 8.20671C21.1483 4.36965 18.0786 1.3 14.2416 0.737232L13.2695 0.609375ZM14.8044 2.42568C17.337 3.09072 19.3578 5.11167 20.0229 7.64408H14.8044V2.42568Z" fill="#7842C6"/>
</svg>
