<svg width="22" height="22" viewBox="0 0 22 22" fill="none" xmlns="http://www.w3.org/2000/svg">
<g clip-path="url(#clip0_1196_29)">
<path d="M11.12 21.0549C16.7091 21.0549 21.24 16.5241 21.24 10.9349C21.24 5.34582 16.7091 0.814941 11.12 0.814941C5.53088 0.814941 1 5.34582 1 10.9349C1 16.5241 5.53088 21.0549 11.12 21.0549Z" stroke="#5C3EB3" stroke-width="1.5" stroke-miterlimit="10"/>
<path d="M16.2611 2.5249L15.1311 9.5049H6.73109L5.62109 2.6749" stroke="#5C3EB3" stroke-width="1.5" stroke-miterlimit="10" stroke-linejoin="round"/>
<path d="M7.72844 9.52508L6.89844 13.2851C8.23844 14.6651 9.56844 16.0351 10.9084 17.4151L14.7784 13.3551L14.0884 9.20508" stroke="#5C3EB3" stroke-width="1.5" stroke-miterlimit="10" stroke-linejoin="round"/>
<path d="M10.9297 16.8153L10.9297 13.3101" stroke="#5C3EB3" stroke-width="1.5" stroke-miterlimit="10" stroke-linecap="round"/>
<path d="M6.33984 6.01416L15.41 6.01463" stroke="#5C3EB3" stroke-width="1.5" stroke-linecap="round"/>
</g>
<defs>
<clipPath id="clip0_1196_29">
<rect width="21.75" height="21.75" fill="white" transform="translate(0.25 0.0649414)"/>
</clipPath>
</defs>
</svg>
