<svg width="173" height="50" viewBox="0 0 173 50" fill="none" xmlns="http://www.w3.org/2000/svg">
<path d="M11.4257 8.66096L19.0558 1.34961L26.5876 8.66096C25.2484 9.66251 23.7371 10.952 22.2012 12.6046C20.8988 14.0068 19.8421 15.3714 19.0066 16.5983C16.4755 13.9567 13.9567 11.3026 11.4257 8.66096Z" fill="#837C99"/>
<path d="M73.0202 29.781C71.8529 24.4227 70.6857 19.0769 69.5184 13.7186C68.0686 7.07077 66.7416 0.986328 66.7416 0.986328C60.6596 2.10056 55.7203 2.85172 52.4152 3.32746C42.5365 4.75468 39.7843 4.74216 34.7958 6.73275C28.419 9.28671 25.3227 12.3415 24.18 13.5558C21.9192 15.9596 20.5431 18.3758 19.7076 20.091C18.4298 18.7264 17.1397 17.3743 15.8618 16.0096C12.9867 16.8484 10.6522 17.4118 9.01805 17.7874C7.69107 18.0879 6.57297 18.3132 4.93882 18.789C3.0835 19.3273 1.58451 19.8782 0.601562 20.2788C3.04664 22.7701 5.86033 26.0753 8.502 30.2943C12.1389 36.1033 15.3458 45.7433 15.3458 45.7433C15.3458 45.7433 46.37 46.0938 61.36 46.1189C62.0481 46.1189 62.687 45.7809 63.0924 45.205L72.6762 31.5087C72.8482 31.2333 73.0571 30.8327 73.0693 30.3194C73.0693 30.0564 73.0325 29.8561 73.0202 29.781ZM31.0606 30.5697C30.692 30.5697 30.5937 30.0439 30.9501 29.9062L52.9312 21.5432L54.8602 30.7075L31.0606 30.5572V30.5697Z" fill="#837C99"/>
<path d="M108.34 25.9893C108.34 27.8851 107.925 29.585 107.096 31.0889C106.266 32.5837 105.218 33.7321 103.951 34.5342C102.894 35.2178 101.741 35.6598 100.492 35.8604C99.2526 36.0518 97.931 36.1475 96.5273 36.1475H90.1562V15.79H96.4727C97.9036 15.79 99.2435 15.8812 100.492 16.0635C101.741 16.2458 102.912 16.6878 104.006 17.3896C105.346 18.2464 106.403 19.404 107.178 20.8623C107.952 22.3115 108.34 24.0205 108.34 25.9893ZM103.09 25.9482C103.09 24.6084 102.857 23.4645 102.393 22.5166C101.937 21.5596 101.23 20.8122 100.273 20.2744C99.5807 19.8916 98.8516 19.682 98.0859 19.6455C97.3294 19.609 96.4225 19.5908 95.3652 19.5908H95.2695V32.333H95.3652C96.5137 32.333 97.4798 32.3148 98.2637 32.2783C99.0566 32.2327 99.8086 31.9867 100.52 31.54C101.358 31.0114 101.996 30.2822 102.434 29.3525C102.871 28.4229 103.09 27.2881 103.09 25.9482ZM128.561 36.1475H123.447V27.124H116.488V36.1475H111.375V15.79H116.488V23.2412H123.447V15.79H128.561V36.1475ZM130.598 36.1475L137.475 15.79H143.053L149.93 36.1475H144.666L143.395 31.9912H136.996L135.725 36.1475H130.598ZM142.273 28.2998L140.195 21.5869L138.117 28.2998H142.273ZM170.137 25.9893C170.137 27.8851 169.722 29.585 168.893 31.0889C168.063 32.5837 167.015 33.7321 165.748 34.5342C164.691 35.2178 163.538 35.6598 162.289 35.8604C161.049 36.0518 159.728 36.1475 158.324 36.1475H151.953V15.79H158.27C159.701 15.79 161.04 15.8812 162.289 16.0635C163.538 16.2458 164.709 16.6878 165.803 17.3896C167.143 18.2464 168.2 19.404 168.975 20.8623C169.749 22.3115 170.137 24.0205 170.137 25.9893ZM164.887 25.9482C164.887 24.6084 164.654 23.4645 164.189 22.5166C163.734 21.5596 163.027 20.8122 162.07 20.2744C161.378 19.8916 160.648 19.682 159.883 19.6455C159.126 19.609 158.219 19.5908 157.162 19.5908H157.066V32.333H157.162C158.311 32.333 159.277 32.3148 160.061 32.2783C160.854 32.2327 161.605 31.9867 162.316 31.54C163.155 31.0114 163.793 30.2822 164.23 29.3525C164.668 28.4229 164.887 27.2881 164.887 25.9482Z" fill="#837C99"/>
</svg>
