<svg width="20" height="12" viewBox="0 0 20 12" fill="none" xmlns="http://www.w3.org/2000/svg">
<path d="M10.0476 8.10273L16.7746 1.37574C16.897 1.2413 17.0452 1.13279 17.2103 1.05662C17.3754 0.980464 17.5542 0.938204 17.7359 0.932346C17.9176 0.926489 18.0987 0.957153 18.2684 1.02252C18.4381 1.08789 18.5929 1.18664 18.7237 1.31292C18.8546 1.4392 18.9587 1.59045 19.0301 1.7577C19.1014 1.92496 19.1385 2.10483 19.1391 2.28667C19.1396 2.4685 19.1037 2.6486 19.0335 2.81632C18.9632 2.98403 18.86 3.13594 18.73 3.26305L18.6969 3.29616L11.0097 10.9852C10.7547 11.2401 10.409 11.3833 10.0485 11.3833C9.68806 11.3833 9.34234 11.2401 9.08741 10.9852L1.40022 3.298C1.27183 3.17396 1.16913 3.02584 1.09798 2.86211C1.02683 2.69837 0.988628 2.52223 0.985553 2.34373C0.982479 2.16523 1.01459 1.98787 1.08006 1.82179C1.14553 1.6557 1.24307 1.50413 1.36711 1.37574C1.49115 1.24735 1.63927 1.14465 1.80301 1.0735C1.96674 1.00235 2.14288 0.964149 2.32138 0.961074C2.49988 0.958 2.67724 0.990113 2.84332 1.05558C3.00941 1.12105 3.16098 1.21859 3.28937 1.34263L3.32248 1.37574L10.0476 8.10273Z" fill="#5C3EB3" stroke="#5C3EB3" stroke-width="0.919741"/>
</svg>
