<svg width="31" height="30" viewBox="0 0 31 30" fill="none" xmlns="http://www.w3.org/2000/svg">
<path d="M21.3959 14.8837C21.7614 14.8545 22.1416 14.8252 22.5072 14.8252C25.1977 14.8252 27.7274 15.454 30.0085 16.5361C30.0816 15.9219 30.1401 15.3078 30.1401 14.679C30.1401 11.9885 29.409 9.48804 28.1368 7.32392C28.0637 7.19232 27.9028 7.16308 27.7859 7.23619C25.3585 8.83003 22.7119 10.1314 19.8897 11.0234C19.7435 11.0673 19.6704 11.2281 19.7435 11.3743C20.343 12.5149 20.8987 13.6847 21.3812 14.8837H21.3959Z" fill="#D2D2D2"/>
<path d="M19.0293 14.8688C18.576 13.8306 18.0788 12.8216 17.5378 11.8419C17.4793 11.7396 17.377 11.6957 17.26 11.7249C15.0228 12.2221 12.7124 12.4999 10.329 12.4999C7.30211 12.4999 4.39225 12.0613 1.61399 11.2716C1.46776 11.2278 1.33616 11.3155 1.29229 11.4617C1.05833 12.4999 0.912109 13.582 0.912109 14.6787C0.912109 19.08 2.85689 23.0281 5.94222 25.704C6.07383 25.821 6.26392 25.7625 6.33703 25.6016C8.53039 20.3668 13.1803 16.4187 18.8392 15.2051C19.0001 15.1758 19.0878 15.0004 19.0147 14.8541L19.0293 14.8688Z" fill="#D2D2D2"/>
<path d="M22.5689 17.0186L22.3203 17.3696C23.2415 20.1186 23.8557 23.0138 24.1481 25.9968C24.1627 26.1869 24.3967 26.3039 24.5575 26.1723C26.8825 24.3445 28.6372 21.844 29.5145 18.9634C29.5584 18.8464 29.4999 18.7002 29.3829 18.6563C27.3358 17.6328 25.0255 17.0332 22.5835 17.0332L22.5689 17.0186Z" fill="#D2D2D2"/>
<path d="M19.748 17.2813C14.3962 18.261 10.0095 22.0336 8.13778 27.0198C8.09391 27.1368 8.13778 27.2831 8.25476 27.3415C10.4043 28.5844 12.8901 29.3009 15.5367 29.3009C17.8178 29.3009 19.9673 28.7599 21.8975 27.8387C21.9852 27.7948 22.0583 27.6925 22.0437 27.5901C21.839 24.0661 21.1664 20.6591 20.0404 17.4714C19.9966 17.3544 19.865 17.2813 19.748 17.2959V17.2813Z" fill="#D2D2D2"/>
<path d="M15.5343 0.0563965C14.2621 0.0563965 13.0192 0.231866 11.8348 0.538937C11.6447 0.582804 11.5862 0.831385 11.7324 0.962987C14.2767 3.33182 16.514 6.00772 18.371 8.97608C18.4295 9.07843 18.5465 9.1223 18.6488 9.07843C21.4563 8.25958 24.0884 7.01667 26.4718 5.45207C26.6034 5.36434 26.6327 5.17425 26.5303 5.05727C23.869 2.00118 19.9356 0.0563965 15.5343 0.0563965Z" fill="#D2D2D2"/>
<path d="M10.317 10.3069C12.2179 10.3069 14.075 10.1314 15.8735 9.78048C16.049 9.75124 16.1367 9.5319 16.0344 9.38567C14.1334 6.50506 11.8523 3.91689 9.24955 1.67965C9.17644 1.60654 9.04484 1.59192 8.9571 1.65041C5.93026 3.17114 3.50294 5.71544 2.14305 8.83002C2.08456 8.97625 2.15768 9.15171 2.31852 9.18096C4.86282 9.89746 7.55335 10.2923 10.3316 10.2923L10.317 10.3069Z" fill="#D2D2D2"/>
</svg>
