<svg width="25" height="24" viewBox="0 0 25 24" fill="none" xmlns="http://www.w3.org/2000/svg">
<path d="M0.835937 12C0.835937 18.624 6.17858 24 12.7615 24C19.3444 24 24.687 18.624 24.687 12C24.687 5.4 19.3444 -8.09029e-07 12.7615 -5.21282e-07C6.17858 -2.33534e-07 0.835937 5.4 0.835937 12ZM6.32168 4.08C8.06281 2.64 10.2571 1.8 12.6661 1.752C12.5945 2.088 11.9267 5.472 12.3322 8.88C12.1652 8.952 11.9744 9.024 11.8074 9.096C11.3066 9.312 10.8057 9.528 10.3287 9.768C8.82605 6.024 6.6079 4.296 6.32168 4.08ZM2.60092 12C2.60092 9.408 3.57881 7.008 5.15298 5.208C5.41534 5.4 7.46653 6.936 8.82605 10.584C5.74926 12.264 3.2449 14.136 2.86328 14.4C2.69632 13.632 2.60092 12.84 2.60092 12ZM3.55496 16.368C3.91273 16.104 6.44094 14.28 9.44617 12.576C10.7103 17.376 10.6864 21.6 10.6864 22.056C7.51424 21.36 4.89062 19.224 3.55496 16.368ZM12.7853 22.248C12.6899 22.248 12.5707 22.248 12.4753 22.248C12.4991 21.816 12.5468 16.824 11.0203 11.712C11.5928 11.424 12.1652 11.136 12.7615 10.872C12.8092 10.992 12.833 11.136 12.8807 11.28C14.5742 16.56 19.2013 19.368 19.5829 19.608C17.7702 21.264 15.3851 22.248 12.7853 22.248ZM22.9459 12C22.9459 14.376 22.1349 16.56 20.7993 18.288C20.4177 18.096 16.4345 16.032 14.431 10.248C14.4072 10.224 14.4072 10.2 14.4072 10.176C18.128 8.736 21.2286 8.136 22.1349 7.992C22.6597 9.216 22.9459 10.584 22.9459 12ZM21.2048 6.288C20.5846 6.384 17.6032 6.936 13.954 8.28C13.4532 5.064 14.2879 2.256 14.3833 1.896C17.2216 2.352 19.6783 3.984 21.2048 6.288Z" fill="#050505"/>
</svg>
