<svg width="45" height="45" viewBox="0 0 55 54" fill="none" xmlns="http://www.w3.org/2000/svg">
<mask id="path-1-inside-1_2208_216" fill="white">
<path d="M54.0238 26.8605C54.0238 32.1103 52.4671 37.2421 49.5505 41.6071C46.6339 45.9721 42.4884 49.3742 37.6383 51.3832C32.7881 53.3922 27.4512 53.9178 22.3023 52.8937C17.1535 51.8695 12.4239 49.3415 8.71181 45.6294C4.99968 41.9172 2.47169 37.1877 1.44752 32.0388C0.423346 26.89 0.948989 21.553 2.95798 16.7029C4.96697 11.8528 8.36907 7.70731 12.7341 4.79071C17.0991 1.87411 22.2309 0.317383 27.4806 0.317383V26.8605H54.0238Z"/>
</mask>
<path d="M54.0238 26.8605C54.0238 32.1103 52.4671 37.2421 49.5505 41.6071C46.6339 45.9721 42.4884 49.3742 37.6383 51.3832C32.7881 53.3922 27.4512 53.9178 22.3023 52.8937C17.1535 51.8695 12.4239 49.3415 8.71181 45.6294C4.99968 41.9172 2.47169 37.1877 1.44752 32.0388C0.423346 26.89 0.948989 21.553 2.95798 16.7029C4.96697 11.8528 8.36907 7.70731 12.7341 4.79071C17.0991 1.87411 22.2309 0.317383 27.4806 0.317383V26.8605H54.0238Z" stroke="#5C3EB3" stroke-width="4" mask="url(#path-1-inside-1_2208_216)"/>
</svg>
