<svg width="23" height="20" viewBox="0 0 23 20" fill="none" xmlns="http://www.w3.org/2000/svg">
<path d="M8.87891 4.77344L12.1796 7.45752" stroke="#7842C6" stroke-width="1.5" stroke-linecap="round" stroke-linejoin="round"/>
<path d="M17.5898 6.62988L15.7512 7.88023" stroke="#7842C6" stroke-width="1.5" stroke-linecap="round" stroke-linejoin="round"/>
<path d="M18.3633 12.8091L15.7548 10.6749" stroke="#7842C6" stroke-width="1.5" stroke-linecap="round" stroke-linejoin="round"/>
<path d="M7.14453 13.5693L12.1799 10.3903" stroke="#7842C6" stroke-width="1.5" stroke-linecap="round" stroke-linejoin="round"/>
<path d="M6.98487 5.3335C8.14364 5.3335 9.08302 4.4044 9.08302 3.2583C9.08302 2.1122 8.14364 1.18311 6.98487 1.18311C5.82609 1.18311 4.88672 2.1122 4.88672 3.2583C4.88672 4.4044 5.82609 5.3335 6.98487 5.3335Z" stroke="#7842C6" stroke-width="1.5" stroke-linecap="round" stroke-linejoin="round"/>
<path d="M17.7796 4.48254C17.381 5.57061 17.9304 6.77224 19.0065 7.16644C20.0827 7.56065 21.2782 6.99815 21.6768 5.91008C22.0753 4.822 21.526 3.62038 20.4499 3.22617C19.3737 2.83197 18.1782 3.39446 17.7796 4.48254Z" stroke="#7842C6" stroke-width="1.5" stroke-linecap="round" stroke-linejoin="round"/>
<path d="M19.7862 12.1873C18.7621 12.1873 17.9318 13.0084 17.9318 14.0214C17.9318 15.0343 18.7621 15.8555 19.7862 15.8555C20.8104 15.8555 21.6406 15.0343 21.6406 14.0214C21.6406 13.0084 20.8104 12.1873 19.7862 12.1873Z" stroke="#7842C6" stroke-width="1.5" stroke-linecap="round" stroke-linejoin="round"/>
<path d="M13.938 11.0591C15.0968 11.0591 16.0361 10.13 16.0361 8.98389C16.0361 7.83779 15.0968 6.90869 13.938 6.90869C12.7792 6.90869 11.8398 7.83779 11.8398 8.98389C11.8398 10.13 12.7792 11.0591 13.938 11.0591Z" stroke="#7842C6" stroke-width="1.5" stroke-linecap="round" stroke-linejoin="round"/>
<path d="M4.91698 18.3419C6.6378 18.0996 7.83421 16.5235 7.58924 14.8215C7.34427 13.1195 5.75069 11.9362 4.02987 12.1785C2.30906 12.4208 1.11265 13.9969 1.35762 15.6989C1.60259 17.4009 3.19617 18.5842 4.91698 18.3419Z" stroke="#7842C6" stroke-width="1.5" stroke-linecap="round" stroke-linejoin="round"/>
</svg>
