<svg width="25" height="24" viewBox="0 0 25 24" fill="none" xmlns="http://www.w3.org/2000/svg">
<path d="M24.8359 12C24.8359 5.4 19.4359 0 12.8359 0C6.23594 0 0.835937 5.4 0.835937 12C0.835937 18 5.18594 22.95 10.8859 23.85L10.8859 15.45H7.88594L7.88594 12H10.8859V9.3C10.8859 6.3 12.6859 4.65 15.3859 4.65C16.7359 4.65 18.0859 4.95 18.0859 4.95V7.95H16.5859C15.0859 7.95 14.6359 8.85 14.6359 9.75V12L17.9359 12L17.3359 15.45H14.4859L14.4859 24C20.4859 23.1 24.8359 18 24.8359 12Z" fill="#050505"/>
</svg>
