<svg width="50" height="50" viewBox="0 0 69 69" fill="none" xmlns="http://www.w3.org/2000/svg">
<path d="M54.5312 54.377L67.969 67.4078" stroke="#5C3EB3" stroke-width="2" stroke-linecap="round"/>
<path d="M20.707 43.061C20.707 38.6579 26.7611 38.6579 29.7881 35.7226C31.3016 34.2549 26.7611 34.2549 26.7611 26.9165C26.7611 22.0247 28.7786 19.5781 32.8152 19.5781C36.8517 19.5781 38.8692 22.0247 38.8692 26.9165C38.8692 34.2549 34.3287 34.2549 35.8422 35.7226C38.8692 38.6579 44.9233 38.6579 44.9233 43.061" stroke="#5C3EB3" stroke-width="2" stroke-linecap="round"/>
<path fill-rule="evenodd" clip-rule="evenodd" d="M32.4687 62.4082C49.3134 62.4082 62.9687 48.7529 62.9687 31.9082C62.9687 15.0635 49.3134 1.4082 32.4687 1.4082C15.6241 1.4082 1.96875 15.0635 1.96875 31.9082C1.96875 48.7529 15.6241 62.4082 32.4687 62.4082Z" stroke="#5C3EB3" stroke-width="2"/>
</svg>
