<svg width="196" height="24" viewBox="0 0 196 24" fill="none" xmlns="http://www.w3.org/2000/svg">
<path d="M23.6968 11.4826V13.2106C23.6968 16.4106 22.6728 19.0026 20.6248 20.9866C18.5768 22.9706 15.9315 23.9626 12.6888 23.9626C9.23281 23.9626 6.36348 22.8426 4.08081 20.6026C1.81948 18.3413 0.688812 15.5893 0.688812 12.3466C0.688812 9.08265 1.80881 6.31998 4.04881 4.05865C6.31015 1.79731 9.10481 0.666647 12.4328 0.666647C14.5235 0.666647 16.4328 1.14665 18.1608 2.10665C19.8888 3.04531 21.2328 4.30398 22.1928 5.88265L18.4168 8.05865C17.8835 7.14131 17.0728 6.39465 15.9848 5.81865C14.9181 5.24265 13.7235 4.95465 12.4008 4.95465C10.2675 4.95465 8.50748 5.65865 7.12081 7.06665C5.75548 8.45331 5.07281 10.2133 5.07281 12.3466C5.07281 14.4586 5.76615 16.208 7.15281 17.5946C8.56081 18.96 10.4168 19.6426 12.7208 19.6426C14.4275 19.6426 15.8355 19.2693 16.9448 18.5226C18.0755 17.7546 18.8435 16.7093 19.2488 15.3866H12.4648V11.4826H23.6968ZM40.2778 21.5306C38.6351 23.152 36.6298 23.9626 34.2618 23.9626C31.8938 23.9626 29.8885 23.152 28.2458 21.5306C26.6245 19.888 25.8138 17.8826 25.8138 15.5146C25.8138 13.1466 26.6245 11.152 28.2458 9.53065C29.8885 7.88798 31.8938 7.06665 34.2618 7.06665C36.6298 7.06665 38.6351 7.88798 40.2778 9.53065C41.9205 11.152 42.7418 13.1466 42.7418 15.5146C42.7418 17.8826 41.9205 19.888 40.2778 21.5306ZM31.1578 18.6826C31.9898 19.5146 33.0245 19.9306 34.2618 19.9306C35.4991 19.9306 36.5338 19.5146 37.3658 18.6826C38.1978 17.8506 38.6138 16.7946 38.6138 15.5146C38.6138 14.2346 38.1978 13.1786 37.3658 12.3466C36.5338 11.5146 35.4991 11.0986 34.2618 11.0986C33.0245 11.0986 31.9898 11.5146 31.1578 12.3466C30.3471 13.1786 29.9418 14.2346 29.9418 15.5146C29.9418 16.7946 30.3471 17.8506 31.1578 18.6826ZM59.2778 21.5306C57.6351 23.152 55.6298 23.9626 53.2618 23.9626C50.8938 23.9626 48.8885 23.152 47.2458 21.5306C45.6245 19.888 44.8138 17.8826 44.8138 15.5146C44.8138 13.1466 45.6245 11.152 47.2458 9.53065C48.8885 7.88798 50.8938 7.06665 53.2618 7.06665C55.6298 7.06665 57.6351 7.88798 59.2778 9.53065C60.9205 11.152 61.7418 13.1466 61.7418 15.5146C61.7418 17.8826 60.9205 19.888 59.2778 21.5306ZM50.1578 18.6826C50.9898 19.5146 52.0245 19.9306 53.2618 19.9306C54.4991 19.9306 55.5338 19.5146 56.3658 18.6826C57.1978 17.8506 57.6138 16.7946 57.6138 15.5146C57.6138 14.2346 57.1978 13.1786 56.3658 12.3466C55.5338 11.5146 54.4991 11.0986 53.2618 11.0986C52.0245 11.0986 50.9898 11.5146 50.1578 12.3466C49.3471 13.1786 48.9418 14.2346 48.9418 15.5146C48.9418 16.7946 49.3471 17.8506 50.1578 18.6826ZM76.7738 1.11465H80.9018V23.5146H76.7738V21.6266C75.5578 23.184 73.8298 23.9626 71.5898 23.9626C69.4351 23.9626 67.5898 23.152 66.0538 21.5306C64.5391 19.888 63.7818 17.8826 63.7818 15.5146C63.7818 13.1466 64.5391 11.152 66.0538 9.53065C67.5898 7.88798 69.4351 7.06665 71.5898 7.06665C73.8298 7.06665 75.5578 7.84531 76.7738 9.40265V1.11465ZM69.1578 18.7786C70.0111 19.6106 71.0778 20.0266 72.3578 20.0266C73.6378 20.0266 74.6938 19.6106 75.5258 18.7786C76.3578 17.9253 76.7738 16.8373 76.7738 15.5146C76.7738 14.192 76.3578 13.1146 75.5258 12.2826C74.6938 11.4293 73.6378 11.0026 72.3578 11.0026C71.0778 11.0026 70.0111 11.4293 69.1578 12.2826C68.3258 13.1146 67.9098 14.192 67.9098 15.5146C67.9098 16.8373 68.3258 17.9253 69.1578 18.7786ZM98.7251 7.51465V23.5146H94.5971V11.4826H89.8931V23.5146H85.7651V11.4826H83.4611V7.51465H85.7651V7.35465C85.7651 2.89598 88.2717 0.666647 93.2851 0.666647C94.4157 0.666647 95.6637 0.81598 97.0291 1.11465V4.89065C95.5997 4.71998 94.3517 4.63465 93.2851 4.63465C92.1331 4.63465 91.2797 4.83731 90.7251 5.24265C90.1704 5.62665 89.8931 6.33065 89.8931 7.35465V7.51465H98.7251ZM106.618 10.2666C107.002 9.24265 107.631 8.47465 108.506 7.96265C109.402 7.45065 110.394 7.19465 111.482 7.19465V11.8026C110.223 11.6533 109.092 11.9093 108.09 12.5706C107.108 13.232 106.618 14.3306 106.618 15.8666V23.5146H102.49V7.51465H106.618V10.2666ZM131.592 7.06665C133.426 7.06665 134.888 7.66398 135.976 8.85865C137.085 10.0533 137.64 11.6533 137.64 13.6586V23.5146H133.512V13.9466C133.512 12.9866 133.277 12.24 132.808 11.7066C132.338 11.1733 131.677 10.9066 130.824 10.9066C129.885 10.9066 129.149 11.216 128.616 11.8346C128.104 12.4533 127.848 13.3493 127.848 14.5226V23.5146H123.72V13.9466C123.72 12.9866 123.485 12.24 123.016 11.7066C122.546 11.1733 121.885 10.9066 121.032 10.9066C120.114 10.9066 119.378 11.216 118.824 11.8346C118.29 12.4533 118.024 13.3493 118.024 14.5226V23.5146H113.896V7.51465H118.024V9.21065C118.984 7.78131 120.466 7.06665 122.472 7.06665C124.434 7.06665 125.885 7.83465 126.824 9.37065C127.89 7.83465 129.48 7.06665 131.592 7.06665ZM144.954 12.0586C144.954 12.4853 145.231 12.8373 145.786 13.1146C146.362 13.3706 147.055 13.6053 147.866 13.8186C148.676 14.0106 149.487 14.2666 150.298 14.5866C151.108 14.8853 151.791 15.3973 152.346 16.1226C152.922 16.848 153.21 17.7546 153.21 18.8426C153.21 20.4853 152.591 21.7546 151.354 22.6506C150.138 23.5253 148.612 23.9626 146.778 23.9626C143.492 23.9626 141.252 22.6933 140.058 20.1546L143.642 18.1386C144.111 19.5253 145.156 20.2186 146.778 20.2186C148.25 20.2186 148.986 19.76 148.986 18.8426C148.986 18.416 148.698 18.0746 148.122 17.8186C147.567 17.5413 146.884 17.296 146.074 17.0826C145.263 16.8693 144.452 16.6026 143.642 16.2826C142.831 15.9626 142.138 15.4613 141.562 14.7786C141.007 14.0746 140.73 13.2 140.73 12.1546C140.73 10.576 141.306 9.33865 142.458 8.44265C143.631 7.52531 145.082 7.06665 146.81 7.06665C148.111 7.06665 149.295 7.36531 150.362 7.96265C151.428 8.53865 152.271 9.37065 152.89 10.4586L149.37 12.3786C148.858 11.2906 148.004 10.7466 146.81 10.7466C146.276 10.7466 145.828 10.864 145.466 11.0986C145.124 11.3333 144.954 11.6533 144.954 12.0586ZM159.997 23.1306C159.464 23.664 158.824 23.9306 158.077 23.9306C157.33 23.9306 156.69 23.664 156.157 23.1306C155.624 22.5973 155.357 21.9573 155.357 21.2106C155.357 20.464 155.624 19.824 156.157 19.2906C156.69 18.7573 157.33 18.4906 158.077 18.4906C158.824 18.4906 159.464 18.7573 159.997 19.2906C160.53 19.824 160.797 20.464 160.797 21.2106C160.797 21.9573 160.53 22.5973 159.997 23.1306ZM170.574 23.9626C168.164 23.9626 166.148 23.152 164.526 21.5306C162.926 19.9093 162.126 17.904 162.126 15.5146C162.126 13.1253 162.926 11.12 164.526 9.49865C166.148 7.87731 168.164 7.06665 170.574 7.06665C172.132 7.06665 173.55 7.43998 174.83 8.18665C176.11 8.93331 177.081 9.93598 177.742 11.1946L174.19 13.2746C173.87 12.6133 173.38 12.0906 172.718 11.7066C172.078 11.3226 171.353 11.1306 170.542 11.1306C169.305 11.1306 168.281 11.5466 167.47 12.3786C166.66 13.1893 166.254 14.2346 166.254 15.5146C166.254 16.7733 166.66 17.8186 167.47 18.6506C168.281 19.4613 169.305 19.8666 170.542 19.8666C171.374 19.8666 172.11 19.6853 172.75 19.3226C173.412 18.9386 173.902 18.416 174.222 17.7546L177.806 19.8026C177.102 21.0613 176.11 22.0746 174.83 22.8426C173.55 23.5893 172.132 23.9626 170.574 23.9626ZM193.372 21.5306C191.729 23.152 189.724 23.9626 187.356 23.9626C184.988 23.9626 182.982 23.152 181.34 21.5306C179.718 19.888 178.908 17.8826 178.908 15.5146C178.908 13.1466 179.718 11.152 181.34 9.53065C182.982 7.88798 184.988 7.06665 187.356 7.06665C189.724 7.06665 191.729 7.88798 193.372 9.53065C195.014 11.152 195.836 13.1466 195.836 15.5146C195.836 17.8826 195.014 19.888 193.372 21.5306ZM184.252 18.6826C185.084 19.5146 186.118 19.9306 187.356 19.9306C188.593 19.9306 189.628 19.5146 190.46 18.6826C191.292 17.8506 191.708 16.7946 191.708 15.5146C191.708 14.2346 191.292 13.1786 190.46 12.3466C189.628 11.5146 188.593 11.0986 187.356 11.0986C186.118 11.0986 185.084 11.5146 184.252 12.3466C183.441 13.1786 183.036 14.2346 183.036 15.5146C183.036 16.7946 183.441 17.8506 184.252 18.6826Z" fill="#050505" fill-opacity="0.7"/>
</svg>
