<svg width="97" height="97" viewBox="0 0 84 124" fill="none" xmlns="http://www.w3.org/2000/svg">
<circle cx="24.6879" cy="43.2328" r="24.1039" fill="#C7B2E1"/>
<circle r="6.02597" transform="matrix(-1 0 0 1 44.2729 117.051)" fill="#C7B2E1"/>
<circle cx="78.9218" cy="4.81733" r="4.51948" fill="#C7B2E1"/>
<path d="M71.4633 30.504C72.2919 30.8807 72.5932 31.5586 72.5932 32.4625C72.5932 40.5975 70.4087 48.2807 66.7932 55.5118C63.7802 61.4625 59.9386 66.7352 55.0425 71.33C54.3646 71.9326 54.1386 72.5352 54.0633 73.4391C53.6113 81.8755 50.6737 89.2573 45.3256 95.7352C44.6477 96.5638 43.9698 97.2417 43.2165 97.9949C42.7646 98.4469 42.162 98.7482 41.4841 98.5222C40.8061 98.2962 40.5048 97.769 40.4295 97.0157C39.9022 93.3248 39.375 89.6339 38.8477 85.7924C38.3204 86.2443 37.9438 86.6209 37.4919 86.9975C36.588 87.8261 35.8347 87.8261 35.0061 86.9222C28.6789 80.6703 22.4269 74.343 16.175 68.091C15.3464 67.2625 15.3464 66.5092 16.0997 65.6053C16.4763 65.1534 16.8529 64.7768 17.3048 64.2495C15.4971 63.9482 13.7646 63.7222 12.0321 63.4962C9.99836 63.1949 7.88926 62.8936 5.8555 62.5923C5.2529 62.517 4.72563 62.2157 4.57498 61.5378C4.349 60.9352 4.57498 60.3326 5.02693 59.8807C10.0737 54.9846 15.949 51.5949 22.8036 49.9378C25.1386 49.4105 27.6243 49.1846 30.0347 48.8833C30.7126 48.8079 31.1646 48.582 31.6919 48.13C39.5256 39.9196 49.0919 34.4209 60.2399 31.7092C62.6503 31.182 65.0607 30.956 67.4711 30.5794C67.6217 30.5794 67.8477 30.504 67.9984 30.4287C69.2036 30.504 70.3334 30.504 71.4633 30.504ZM19.1126 66.6599C24.9126 72.4599 30.6373 78.1846 36.362 83.9092C37.1906 83.156 38.0191 82.3274 38.923 81.5742C43.5932 77.4313 48.4139 73.4391 52.8581 69.1456C61.9724 60.5586 67.5464 49.9378 69.2789 37.5092C69.4295 36.2287 69.5048 34.9482 69.5802 33.5923C69.3542 33.517 69.2036 33.517 69.0529 33.517C66.7178 33.8183 64.3074 33.8936 62.0477 34.3456C51.5023 36.6053 42.3126 41.5768 34.7802 49.2599C31.9178 52.1975 29.2061 55.3612 26.4945 58.4495C24.0087 61.2365 21.523 63.9482 19.1126 66.6599ZM9.32043 60.1066C9.54641 60.182 9.62173 60.182 9.69706 60.182C12.8607 60.6339 16.0243 61.0859 19.188 61.5378C19.4893 61.5378 19.8659 61.3872 20.0165 61.1612C21.975 58.9768 23.9334 56.7923 25.8919 54.6079C26.5698 53.8547 27.2477 53.1014 28.001 52.1975C20.9958 52.9508 14.8191 55.5872 9.32043 60.1066ZM50.975 75.0209C50.6737 75.2469 50.523 75.3975 50.2971 75.5482C47.51 78.0339 44.7984 80.4443 42.0113 82.93C41.5594 83.3066 41.4841 83.6833 41.5594 84.2105C41.7854 85.7924 42.0113 87.2988 42.2373 88.8807C42.4633 90.4625 42.6893 92.1196 42.9906 93.8521C47.51 88.2781 50.1464 82.1014 50.975 75.0209Z" fill="#5C3EB3"/>
<path d="M0.659309 100.481C1.26191 98.6732 1.8645 96.8654 2.4671 95.0576C3.89827 90.9901 5.32944 86.9979 7.36321 83.1564C9.32165 79.4654 13.6905 77.733 17.6074 78.7122C21.6749 79.7667 24.6126 83.3823 24.6126 87.6005C24.6126 91.0654 23.1814 93.9278 20.0178 95.5849C17.2307 97.0161 14.2931 98.2966 11.3554 99.4265C8.64373 100.481 5.85671 101.31 3.0697 102.213C1.78918 102.665 1.41256 102.515 0.583984 101.46C0.659309 101.084 0.659309 100.782 0.659309 100.481ZM4.42554 98.6732C5.93204 98.146 7.28788 97.694 8.64373 97.2421C12.0333 96.0369 15.3476 94.8317 18.5113 93.0992C20.771 91.8187 21.7502 89.7849 21.5996 87.2239C21.4489 84.8135 20.0931 83.0057 17.9087 82.0265C15.3476 80.8966 11.5814 81.4992 9.84892 85.0395C7.58918 89.333 6.00736 93.9278 4.42554 98.6732Z" fill="#5C3EB3"/>
<path d="M59.4889 51.0687C59.4889 55.2116 56.0993 58.6012 52.0317 58.6012C47.9642 58.6012 44.5746 55.2869 44.4993 51.1441C44.424 47.0012 47.8136 43.6116 51.9564 43.6116C56.0993 43.5363 59.4889 46.9259 59.4889 51.0687ZM52.0317 55.5882C54.5175 55.5882 56.5512 53.5544 56.4759 51.0687C56.4759 48.583 54.4421 46.6246 51.9564 46.6246C49.4707 46.6246 47.4369 48.6583 47.5123 51.1441C47.5123 53.6298 49.546 55.5882 52.0317 55.5882Z" fill="#5C3EB3"/>
</svg>
