<svg width="121" height="65" viewBox="0 0 121 65" fill="none" xmlns="http://www.w3.org/2000/svg">
<rect x="0.801758" y="0.711914" width="119.842" height="64" fill="white"/>
<path d="M34.9422 26.2061H32.1074V39.6675H34.9422V26.2061Z" fill="black"/>
<path d="M46.6544 26.2056H38.1533V39.6667H46.6544C48.2071 39.6667 49.6962 39.0381 50.7941 37.9192C51.892 36.8004 52.5088 35.2829 52.5088 33.7006V32.1717C52.5088 30.5894 51.892 29.0719 50.7941 27.953C49.6962 26.8341 48.2071 26.2056 46.6544 26.2056ZM49.7266 34.3382C49.7266 35.093 49.4324 35.8168 48.9087 36.3505C48.3849 36.8842 47.6747 37.1841 46.934 37.1841H40.9742V28.8421H46.9329C47.2996 28.8421 47.6628 28.9157 48.0016 29.0587C48.3404 29.2017 48.6482 29.4113 48.9076 29.6756C49.1669 29.9398 49.3726 30.2536 49.5129 30.5988C49.6532 30.9441 49.7255 31.3142 49.7255 31.6879L49.7266 34.3382Z" fill="black"/>
<path d="M67.0526 27.9361C65.6986 26.4413 63.0454 26.1971 62.7169 26.217H59.5977C59.2468 26.1994 56.7214 26.3667 55.2115 27.9746C54.1603 29.0946 53.7697 31.1575 53.7337 31.4304C53.647 32.1802 53.6313 32.9367 53.6867 33.6895C53.9233 37.0678 55.3346 39.3658 59.5977 39.656H62.7169C62.3538 39.662 65.3283 39.7492 67.0718 37.9174C68.303 36.6237 68.5926 34.347 68.5874 33.9404V32.1254C68.6043 31.7648 68.4166 29.4425 67.0526 27.9361ZM65.6325 34.5065C65.5336 35.1396 65.2532 35.7287 64.8267 36.1998C63.8839 37.1165 62.1811 37.0633 62.0944 37.0723H62.1095C62.1033 37.0732 62.097 37.0732 62.0908 37.0723H62.0948H60.1643C60.0562 37.0899 58.158 37.1026 57.3431 36.0837C56.897 35.5177 56.6511 34.815 56.6449 34.089C56.6039 33.6591 56.585 33.2273 56.5883 32.7953C56.5837 32.3342 56.6175 31.8734 56.6894 31.4181C56.7238 31.0546 56.8159 30.6993 56.962 30.3659C57.1544 29.983 57.4351 29.6534 57.7799 29.4054C58.1226 29.1712 58.5095 29.0123 58.9157 28.9388C59.2464 28.858 59.5334 28.8231 61.1986 28.8033C62.029 28.7936 62.1863 28.7996 62.3597 28.8115C62.8829 28.8158 63.4016 28.9109 63.8934 29.0928C64.3017 29.2391 64.669 29.4843 64.9638 29.8072C65.1696 30.0566 65.3326 30.3397 65.4458 30.6445C65.534 30.8661 65.7111 31.3705 65.7174 32.8867C65.7491 33.4282 65.7206 33.9716 65.6325 34.5065Z" fill="black"/>
<path d="M76.7434 26.2051H75.3938C74.8037 26.2051 74.2194 26.3235 73.6742 26.5537C73.129 26.7838 72.6336 27.1212 72.2163 27.5464C71.7991 27.9717 71.4681 28.4765 71.2423 29.0321C71.0165 29.5877 70.9003 30.1832 70.9004 30.7846V39.6666H73.3354V31.2302C73.3354 30.5007 73.6198 29.801 74.126 29.2852C74.6322 28.7693 75.3188 28.4795 76.0346 28.4795H76.4344C77.1503 28.4795 77.8368 28.7693 78.343 29.2852C78.8492 29.801 79.1336 30.5007 79.1336 31.2302V39.6666H81.2372V30.7846C81.2372 29.57 80.7638 28.4052 79.921 27.5464C79.0783 26.6876 77.9353 26.2051 76.7434 26.2051Z" fill="black"/>
<path d="M84.9543 26.2051H83.6051C83.015 26.205 82.4306 26.3234 81.8854 26.5536C81.3401 26.7837 80.8447 27.121 80.4274 27.5463C80.0101 27.9715 79.6791 28.4764 79.4533 29.032C79.2275 29.5877 79.1113 30.1832 79.1113 30.7846V39.6666H81.5463V31.2302C81.5463 30.5007 81.8307 29.801 82.3369 29.2852C82.8431 28.7693 83.5297 28.4795 84.2455 28.4795H84.6453C85.3612 28.4795 86.0478 28.7693 86.554 29.2852C87.0602 29.801 87.3445 30.5007 87.3445 31.2302V39.6666H89.4481V30.7846C89.4482 30.1832 89.332 29.5877 89.1062 29.032C88.8803 28.4764 88.5493 27.9715 88.132 27.5463C87.7147 27.121 87.2193 26.7837 86.6741 26.5536C86.1289 26.3234 85.5445 26.205 84.9543 26.2051Z" fill="black"/>
</svg>
