<svg width="188" height="49" viewBox="0 0 188 49" fill="none" xmlns="http://www.w3.org/2000/svg">
<path d="M187.003 33.7295C186.881 34.1614 186.758 34.5916 186.638 35.0182C186.529 35.4046 186.418 35.7913 186.321 36.1778C186.285 36.3195 186.229 36.3994 186.07 36.3736C186.008 36.369 185.946 36.369 185.885 36.3736C180.567 36.3736 175.25 36.3736 169.932 36.3736C168.258 36.3736 166.605 36.1827 165.007 35.6418C163.711 35.2038 162.545 34.5683 161.593 33.58C160.228 32.1627 159.685 30.4439 159.864 28.5163C160.109 25.8542 161.253 23.5852 163.104 21.6769C165.308 19.4079 167.991 17.9402 171.068 17.1813C172.964 16.7252 174.915 16.5409 176.864 16.6337C178.624 16.7058 180.34 17.0087 181.959 17.7379C183.082 18.2443 184.104 18.8976 184.918 19.8369C185.998 21.079 186.424 22.5286 186.265 24.156C186.2 24.7804 186.047 25.3926 185.812 25.9754C185.553 26.6454 185.283 27.3141 185.019 27.9841C184.898 28.2908 184.957 28.2483 184.63 28.2483H173.224C172.872 28.2483 172.519 28.2483 172.166 28.2483C172.081 28.2647 171.992 28.2511 171.915 28.2096C171.973 28.0498 172.031 27.8862 172.094 27.7252C172.353 27.0448 172.622 26.3645 172.892 25.6867C173.022 25.3491 172.955 25.4007 173.306 25.4007H179.592C179.663 25.4007 179.737 25.4007 179.808 25.4007C179.849 25.406 179.891 25.3957 179.924 25.3717C179.958 25.3478 179.981 25.3121 179.989 25.2718C180.393 24.1753 180.453 23.0814 179.917 22.0106C179.645 21.4859 179.244 21.0382 178.751 20.7092C177.693 19.9645 176.502 19.6488 175.218 19.6333C173.948 19.6109 172.694 19.9107 171.573 20.5044C169.384 21.664 167.703 23.3094 166.702 25.5901C166.225 26.6325 165.982 27.7663 165.992 28.9119C165.992 29.5619 166.12 30.2058 166.368 30.8072C166.995 32.2606 168.106 33.1264 169.666 33.419C170.156 33.506 170.653 33.5461 171.151 33.539H186.667C186.78 33.539 186.894 33.539 187.008 33.5452L187.003 33.7295Z" fill="#837C99"/>
<path d="M94.2648 47.7411C94.594 46.7618 94.9245 45.7993 95.237 44.8315C95.25 44.7581 95.2914 44.6925 95.3526 44.6493C95.4135 44.6058 95.4894 44.5881 95.5637 44.5996C96.7886 44.5993 98.0035 44.381 99.1513 43.9554C101.068 43.2273 102.485 41.9247 103.531 40.1931C104.082 39.2806 104.464 38.2939 104.827 37.299C106.209 33.5357 107.596 29.7729 108.987 26.0104C109.273 25.2373 109.488 24.4423 109.498 23.6087C109.519 21.8047 108.628 20.6013 106.894 20.0756C106.187 19.8777 105.457 19.7699 104.722 19.7547C102.735 19.6723 100.902 20.1207 99.2782 21.2868C98.3098 21.9857 97.4878 22.8659 96.8582 23.8779C96.0966 25.0703 95.5662 26.3942 95.2954 27.7808C95.1048 28.7665 95.1176 29.7561 95.4717 30.7032C96.0795 32.3382 97.2978 33.2802 99.0009 33.6138C99.3683 33.6791 99.7411 33.7086 100.114 33.7015H102.744C102.817 33.7838 102.771 33.851 102.753 33.9166C102.547 34.6804 102.339 35.4443 102.131 36.2091C102.067 36.4397 102.065 36.4397 101.82 36.4422H101.69C90.8264 36.4422 79.9619 36.4422 69.0973 36.4422C67.3215 36.4422 65.5977 36.1497 63.9596 35.4113C62.9353 34.9584 62.0038 34.3214 61.2117 33.5326C59.8547 32.1734 59.2211 30.5331 59.296 28.6196C59.3479 27.2989 59.7421 26.0749 60.3331 24.9062C61.2182 23.1615 62.5053 21.7571 64.0541 20.5755C66.3071 18.8415 68.9593 17.6936 71.771 17.2357C73.3353 16.9668 74.9268 16.8902 76.5095 17.0076C78.284 17.1481 79.974 17.5887 81.5306 18.474C81.5748 18.4997 81.6201 18.5216 81.6848 18.5551C81.7395 18.3593 81.8909 18.3245 82.0607 18.2974C84.0336 17.9289 86.0179 17.6171 87.9672 17.1313C88.1593 17.0653 88.3586 17.0221 88.5607 17.0025C88.4985 17.1803 88.4481 17.3336 88.3922 17.4844C86.6556 22.1591 84.9193 26.8338 83.1833 31.5085C83.1289 31.6568 83.099 31.774 82.8814 31.7727C80.9371 31.7609 79.0034 31.7662 77.0657 31.7649C77.042 31.7628 77.0187 31.7593 76.9957 31.7547C76.9606 31.6592 77.0268 31.5831 77.0554 31.5033C77.7176 29.6543 78.3916 27.8105 79.0423 25.9627C79.3507 25.0853 79.5605 24.1833 79.5126 23.2427C79.4505 22.0328 78.8983 21.1334 77.7994 20.5768C77.1263 20.2547 76.3997 20.0573 75.6555 19.9944C74.6355 19.8678 73.6021 19.8956 72.5901 20.0769C70.9092 20.3941 69.3712 21.23 68.1951 22.4657C66.7676 23.9165 65.8029 25.7545 65.4227 27.7486C65.2224 28.648 65.2448 29.5823 65.4876 30.4712C65.9763 32.1284 67.1167 33.1204 68.7746 33.556C69.218 33.6641 69.6737 33.7148 70.1301 33.7067H90.851C90.9502 33.7232 91.0518 33.7105 91.1438 33.6707C91.0506 33.5715 90.9638 33.4773 90.8743 33.3847C89.4265 31.8706 88.8601 30.0666 89.083 28.005C89.2878 26.1277 90.0952 24.5016 91.2244 23.0185C92.3765 21.5032 93.8321 20.323 95.4533 19.336C97.4178 18.1399 99.6018 17.3432 101.878 16.9922C103.549 16.7201 105.248 16.6668 106.933 16.8337C108.587 17.0012 110.163 17.4406 111.608 18.2833C111.635 18.2987 111.665 18.3077 111.713 18.3284C111.823 18.1145 112.037 18.0951 112.247 18.0539C114.321 17.6416 116.415 17.2628 118.489 16.8195C118.556 16.8041 118.619 16.7551 118.705 16.7835C118.737 16.8891 118.669 16.978 118.638 17.0682C116.478 23.253 114.318 29.4353 112.158 35.615C111.839 36.5271 111.559 37.4523 111.166 38.3389C109.727 41.5846 107.374 43.9669 104.225 45.6009C102.417 46.5212 100.472 47.1479 98.4643 47.4575C97.176 47.6646 95.8733 47.7722 94.5682 47.7796C94.4653 47.7961 94.3603 47.7824 94.2648 47.7411Z" fill="#837C99"/>
<path d="M30.0063 36.436L30.6543 34.6323C31.8123 31.4316 32.9694 28.2318 34.1266 25.0328C34.4869 24.0368 34.5425 23.0331 34.1266 22.0499C33.5719 20.7344 32.5609 19.8595 31.165 19.6134C28.5728 19.1573 26.2994 19.8298 24.4862 21.7897C23.6113 22.7355 23.0294 23.8577 22.59 25.056C21.2421 28.7231 19.8958 32.3908 18.5513 36.0586C18.379 36.529 18.5034 36.4388 17.9927 36.445C16.2106 36.445 14.4272 36.445 12.645 36.445H12.3327C12.2964 36.3048 12.3716 36.1979 12.4104 36.0881C13.8673 31.959 15.3262 27.8302 16.7874 23.7018L19.1826 16.9191C19.1955 16.8805 19.2111 16.8418 19.2253 16.8031C19.3135 16.5609 19.3135 16.5596 19.5662 16.6305C20.8986 17.008 22.2323 17.383 23.5634 17.7657C23.7391 17.8206 23.9281 17.8165 24.1013 17.7541C25.7053 17.229 27.3698 16.9078 29.055 16.798C30.2629 16.7026 31.4768 16.707 32.6841 16.8109C34.444 16.9797 36.1265 17.4062 37.6377 18.3571C37.8385 18.4859 38.0332 18.6225 38.2209 18.7668C38.2626 18.8107 38.3182 18.8387 38.3782 18.846C38.4386 18.8533 38.4992 18.8394 38.5502 18.8068C40.3816 17.8378 42.3489 17.3031 44.3889 17.0029C46.1647 16.7445 47.9616 16.6608 49.7536 16.7529C51.382 16.8147 52.9831 17.1869 54.47 17.8494C55.4798 18.3146 56.3755 18.9318 57.0793 19.7976C57.8944 20.8027 58.238 21.9598 58.2004 23.2418C58.1714 24.0158 58.021 24.7805 57.7545 25.5083C56.492 29.0525 55.2305 32.5972 53.9698 36.1422C53.848 36.4851 53.9114 36.4348 53.5682 36.4348C51.724 36.4348 49.8795 36.4348 48.0338 36.4348C47.943 36.4513 47.8491 36.4429 47.763 36.4102C47.7676 36.3079 47.7959 36.2078 47.8457 36.118L51.7339 25.5856C52 24.9035 52.1406 24.1795 52.149 23.448C52.149 21.4882 50.9151 19.9613 48.967 19.5941C46.4784 19.1238 43.3767 19.8427 41.5182 22.6865C40.9791 23.5401 40.5411 24.4528 40.2131 25.4065C38.9049 28.9903 37.5942 32.5723 36.2807 36.1525C36.1601 36.4811 36.225 36.4373 35.8697 36.4388H30.0063V36.436Z" fill="#837C99"/>
<path d="M147.99 36.4228C148.259 35.682 148.508 34.9772 148.767 34.2737C149.842 31.3281 150.916 28.3822 151.991 25.4358C152.409 24.2826 152.473 23.1165 151.964 21.9749C151.343 20.5897 150.263 19.6955 148.732 19.5267C145.752 19.2097 143.352 20.2534 141.669 22.7712C141.175 23.5329 140.775 24.3504 140.476 25.2064C139.144 28.8469 137.811 32.4864 136.477 36.1253C136.46 36.1741 136.436 36.2204 136.423 36.2696C136.421 36.2951 136.413 36.3199 136.4 36.3423C136.387 36.3647 136.37 36.3843 136.349 36.3995C136.328 36.4144 136.304 36.4253 136.279 36.4306C136.253 36.4359 136.227 36.4359 136.202 36.4306C136.15 36.4275 136.098 36.4275 136.046 36.4306H116.574C116.539 36.2798 116.623 36.1651 116.667 36.0442C118.372 31.3899 120.078 26.7372 121.787 22.0857C121.883 21.828 121.971 21.5612 122.076 21.3048C122.665 19.8707 123.726 18.9159 125.155 18.3413C125.892 18.0321 126.683 17.8688 127.483 17.8606C128.26 17.8606 129.038 17.8014 129.816 17.7485C129.929 17.7408 130.042 17.7369 130.205 17.7305C128.217 23.0623 126.247 28.3714 124.292 33.6578C124.409 33.6985 124.534 33.7107 124.656 33.6939H130.845C131.287 33.6939 131.188 33.7287 131.317 33.364C133.269 27.8491 135.219 22.3339 137.167 16.8182C137.195 16.7409 137.223 16.6649 137.261 16.5605L138.686 16.9574C139.661 17.2306 140.636 17.505 141.612 17.7808C141.738 17.8221 141.874 17.8221 142 17.7808C144.463 16.9329 147.022 16.6611 149.619 16.741C151.384 16.795 153.094 17.1133 154.711 17.8478C155.706 18.276 156.589 18.9247 157.293 19.7444C158.088 20.696 158.503 21.9048 158.46 23.141C158.448 23.9141 158.307 24.68 158.044 25.4074C156.77 29.0023 155.493 32.5961 154.212 36.1884C154.158 36.3417 154.109 36.4461 153.899 36.4461C151.982 36.4343 150.064 36.4461 148.145 36.4461C148.109 36.4359 148.069 36.4294 147.99 36.4228Z" fill="#837C99"/>
<path d="M0.482948 36.4251C0.440177 36.3169 0.504982 36.2358 0.533496 36.1518C4.14874 25.7099 7.76441 15.2683 11.3805 4.8271C12.0402 2.91881 13.3869 1.73467 15.2857 1.12135C15.7768 0.959663 16.2889 0.869817 16.806 0.854627C17.7133 0.832722 18.6205 0.761855 19.5369 0.712891C19.5771 0.712891 19.6172 0.712891 19.66 0.712891C19.661 0.81867 19.6347 0.922938 19.5835 1.01569C15.493 12.7067 11.4013 24.3978 7.30819 36.0887C7.28692 36.1357 7.27001 36.1845 7.25764 36.2345C7.23174 36.4018 7.12803 36.4353 6.97252 36.4341C4.84864 36.4341 2.7239 36.4341 0.598301 36.4341C0.559713 36.4332 0.521204 36.4301 0.482948 36.4251Z" fill="#837C99"/>
<path d="M126.952 4.38708C126.93 3.26354 127.351 2.17609 128.126 1.35782C128.397 1.05762 128.729 0.818808 129.101 0.657564C129.473 0.496321 129.875 0.416414 130.281 0.423257C130.687 0.430099 131.086 0.523532 131.452 0.697224C131.818 0.870915 132.143 1.12081 132.403 1.42998C133.051 2.16097 133.428 3.09121 133.468 4.06497C133.528 4.83653 133.398 5.61101 133.089 6.32114C132.875 6.79114 132.57 7.21425 132.191 7.56583C131.675 8.05318 130.994 8.32996 130.283 8.34118C129.572 8.35241 128.882 8.09723 128.351 7.62639C127.552 6.93626 127.06 5.95979 126.983 4.91024C126.966 4.73627 126.962 4.56106 126.952 4.38708Z" fill="#837C99"/>
<path d="M127.231 48.8637C127.101 48.7412 126.927 48.7748 126.773 48.7465C126.467 48.6964 126.167 48.6122 125.88 48.4953C125.658 48.4058 125.459 48.2699 125.295 48.0964C125.131 47.9233 125.006 47.7168 124.93 47.4915C124.765 47.0146 124.662 46.519 124.623 46.016C124.505 44.631 124.508 43.2388 124.631 41.8542C124.668 41.32 124.766 40.7919 124.922 40.2795C124.993 40.0364 125.119 39.8129 125.292 39.627C125.465 39.4411 125.679 39.2977 125.918 39.2088C126.245 39.0792 126.588 38.9924 126.938 38.9511C127.931 38.8224 128.921 38.8056 129.903 39.0388C130.074 39.081 130.241 39.1373 130.402 39.2076C130.619 39.2959 130.814 39.4289 130.975 39.5981C131.135 39.7669 131.258 39.9683 131.334 40.1881C131.495 40.6554 131.598 41.1407 131.641 41.6325C131.757 42.8624 131.775 44.0994 131.696 45.3317C131.669 45.9899 131.573 46.6434 131.409 47.2813C131.339 47.5891 131.185 47.8717 130.964 48.0989C130.744 48.3259 130.465 48.4888 130.159 48.5699C129.791 48.6741 129.415 48.749 129.035 48.7941C128.97 48.8031 128.883 48.7683 128.848 48.8625L127.231 48.8637ZM130.164 43.684C130.179 42.909 130.138 42.134 130.042 41.3645C130.029 41.168 129.947 40.9824 129.81 40.8394C129.674 40.6964 129.492 40.605 129.295 40.5811C128.787 40.4788 128.267 40.4465 127.749 40.4844C127.406 40.4897 127.067 40.5494 126.743 40.661C126.625 40.7001 126.519 40.7704 126.438 40.8646C126.357 40.9588 126.303 41.0735 126.282 41.1957C126.234 41.4379 126.199 41.6819 126.176 41.9275C126.099 42.8297 126.104 43.7316 126.108 44.6425C126.101 45.1881 126.142 45.7331 126.231 46.2712C126.334 46.8305 126.507 47.0186 127.057 47.1268C127.691 47.2378 128.338 47.2542 128.976 47.1756C129.162 47.1563 129.344 47.1094 129.516 47.0366C129.628 46.9956 129.728 46.9278 129.808 46.8392C129.888 46.7509 129.945 46.6443 129.975 46.5289C130.032 46.2992 130.072 46.066 130.095 45.8304C130.156 45.1166 130.179 44.4 130.162 43.684H130.164Z" fill="#837C99"/>
<path d="M118.282 48.8645C118.137 48.7436 117.953 48.7846 117.787 48.7526C117.532 48.7088 117.281 48.6454 117.036 48.563C116.835 48.4949 116.651 48.3814 116.5 48.2319C116.348 48.0824 116.234 47.9002 116.164 47.6997C115.932 47.0801 115.912 46.4331 115.917 45.7837C115.917 45.6717 115.976 45.6459 116.074 45.6459C116.462 45.6459 116.86 45.6459 117.254 45.6459C117.384 45.6459 117.414 45.7038 117.412 45.816C117.404 46.0837 117.425 46.3516 117.474 46.615C117.559 47.0465 117.701 47.1973 118.143 47.2591C118.82 47.3636 119.509 47.3636 120.186 47.2591C120.353 47.2427 120.509 47.1696 120.629 47.0524C120.748 46.9352 120.823 46.7807 120.842 46.615C120.917 46.1993 120.929 45.775 120.877 45.3559C120.871 45.1889 120.805 45.0295 120.69 44.9067C120.576 44.7842 120.421 44.7068 120.253 44.6884C119.978 44.6415 119.7 44.6094 119.421 44.592C118.779 44.5684 118.14 44.4916 117.511 44.3626C116.461 44.1151 116.155 43.8033 116.001 42.7572C115.886 42.0024 115.901 41.2335 116.046 40.484C116.068 40.3733 116.102 40.2639 116.134 40.1569C116.205 39.9023 116.34 39.6701 116.527 39.4826C116.715 39.2955 116.948 39.1599 117.204 39.0887C117.651 38.9575 118.114 38.8826 118.58 38.8658C119.242 38.822 119.907 38.8556 120.562 38.965C121.574 39.1453 121.988 39.5333 122.168 40.5343C122.231 40.8891 122.255 41.2494 122.24 41.6091C122.24 41.7571 122.179 41.8062 122.034 41.8037C121.661 41.7959 121.288 41.7959 120.914 41.8037C120.769 41.8037 120.706 41.7533 120.712 41.6078C120.707 41.4073 120.679 41.208 120.629 41.0137C120.61 40.8539 120.534 40.706 120.416 40.5965C120.297 40.4871 120.143 40.423 119.981 40.4159C119.674 40.3702 119.363 40.3534 119.052 40.3655C118.762 40.3783 118.474 40.4109 118.189 40.4635C118.028 40.4877 117.88 40.5629 117.766 40.6777C117.652 40.7927 117.578 40.9413 117.556 41.1014C117.475 41.5376 117.485 41.9859 117.585 42.4183C117.604 42.5197 117.653 42.6132 117.727 42.6866C117.8 42.76 117.893 42.8094 117.995 42.8293C118.422 42.9244 118.855 42.9832 119.292 43.0043C119.892 43.0292 120.488 43.1113 121.073 43.2493C121.163 43.2739 121.251 43.3009 121.341 43.3305C121.571 43.3979 121.778 43.5248 121.942 43.6985C122.106 43.8723 122.22 44.0865 122.273 44.3188C122.427 44.9508 122.478 45.6033 122.424 46.2515C122.407 46.703 122.335 47.1506 122.21 47.5849C122.145 47.8299 122.015 48.0534 121.835 48.2322C121.654 48.4113 121.429 48.5397 121.183 48.6043C120.833 48.6998 120.476 48.7663 120.115 48.8027C120.059 48.8104 119.985 48.7887 119.961 48.8698L118.282 48.8645Z" fill="#837C99"/>
<path d="M187.007 48.7461L183.961 48.7551H181.785C181.483 48.7551 181.481 48.7551 181.481 48.4535V39.2485C181.481 38.9469 181.481 38.9444 181.788 38.9444H186.669C186.782 38.9578 186.897 38.9503 187.007 38.9224V40.5281C185.764 40.5281 184.521 40.5281 183.28 40.5281C183.032 40.5281 183.028 40.5281 183.028 40.7858C183.028 41.453 183.028 42.1214 183.028 42.7907C183.028 43.0484 183.028 43.0559 183.306 43.0559H186.692C186.761 43.0559 186.813 43.0858 186.813 43.1629C186.813 43.5443 186.813 43.9248 186.813 44.3047C186.815 44.32 186.813 44.3358 186.808 44.3504C186.803 44.3654 186.795 44.3787 186.784 44.3899C186.774 44.4011 186.76 44.4098 186.746 44.4154C186.731 44.421 186.716 44.4232 186.7 44.4219C186.617 44.4219 186.534 44.4219 186.452 44.4219H183.282C183.031 44.4219 183.023 44.4219 183.023 44.6797C183.023 45.3994 183.023 46.1194 183.023 46.8391C183.023 47.2255 182.985 47.1923 183.369 47.1923L186.998 47.1985L187.007 48.7461Z" fill="#837C99"/>
<path d="M158.758 47.1219C158.84 46.6668 158.926 46.2275 158.999 45.7842C159.206 44.5151 159.517 43.2679 159.792 42.0116C159.986 41.1097 160.191 40.2078 160.392 39.3056C160.411 39.2465 160.425 39.1862 160.435 39.1253C160.447 38.977 160.532 38.9425 160.666 38.945C161.055 38.945 161.433 38.945 161.817 38.945C162.026 38.945 162.042 38.968 161.995 39.1872C161.894 39.6703 161.787 40.1522 161.68 40.634L159.954 48.4656C159.892 48.7491 159.892 48.7491 159.595 48.7503C159.015 48.7503 158.429 48.7441 157.853 48.7503C157.674 48.7503 157.607 48.7015 157.568 48.5212C157.249 47.0548 156.92 45.5899 156.591 44.1247C156.401 43.2822 156.232 42.435 156.085 41.5838C156.079 41.4961 156.047 41.4125 155.993 41.3428C155.874 41.7448 155.834 42.1521 155.743 42.5475C155.334 44.3628 154.923 46.1778 154.512 47.9927C154.466 48.1938 154.412 48.3922 154.373 48.5946C154.372 48.6173 154.366 48.6393 154.356 48.6596C154.346 48.6801 154.332 48.6978 154.314 48.7124C154.297 48.7267 154.276 48.7373 154.254 48.7435C154.232 48.7497 154.209 48.7513 154.187 48.7478C153.538 48.7478 152.901 48.7478 152.258 48.7478C152.108 48.7478 152.073 48.677 152.045 48.5467C151.805 47.4002 151.557 46.2545 151.312 45.1092C150.902 43.188 150.489 41.2695 150.087 39.347C149.999 38.9242 149.894 38.9397 150.421 38.9385C150.732 38.9385 151.043 38.9462 151.353 38.9385C151.522 38.9319 151.585 38.9938 151.62 39.1576C151.924 40.5955 152.233 42.0327 152.549 43.469C152.798 44.5938 153.005 45.7263 153.183 46.8642C153.196 46.9441 153.22 47.0224 153.239 47.1076C153.345 47.0548 153.331 46.9543 153.344 46.8794C153.684 45.0281 154.149 43.2035 154.558 41.3674C154.719 40.6446 154.889 39.9243 155.058 39.2027C155.117 38.945 155.121 38.945 155.38 38.945C155.816 38.945 156.251 38.945 156.687 38.945C156.917 38.945 156.921 38.945 156.971 39.1716C157.302 40.6356 157.629 42.1017 157.962 43.5641C158.213 44.6672 158.443 45.7748 158.65 46.8872C158.651 46.9316 158.661 46.9752 158.68 47.0156C158.698 47.0557 158.725 47.0921 158.758 47.1219Z" fill="#837C99"/>
<path d="M177.612 44.638C177.656 44.6769 177.67 44.6987 177.687 44.7015C178.465 44.8084 178.773 45.4034 178.854 46.0271C178.886 46.2615 178.902 46.4981 178.9 46.7347C178.9 47.3312 178.9 47.9278 178.9 48.5244C178.9 48.7445 178.9 48.7486 178.678 48.7511C178.314 48.7511 177.952 48.7511 177.589 48.7511C177.37 48.7511 177.364 48.7511 177.363 48.5294C177.363 47.9953 177.363 47.46 177.363 46.924C177.366 46.6871 177.33 46.4511 177.257 46.2257C177.095 45.7411 176.751 45.4743 176.242 45.4681C175.547 45.4575 174.854 45.4681 174.159 45.4681C173.944 45.4681 173.939 45.4743 173.939 45.6947C173.939 46.5966 173.939 47.4985 173.939 48.411C173.939 48.7871 173.982 48.7536 173.585 48.7548C173.253 48.7548 172.923 48.7486 172.591 48.7548C172.439 48.7548 172.382 48.7007 172.398 48.5552C172.401 48.494 172.401 48.4324 172.398 48.3709V39.3256C172.398 39.2535 172.398 39.1814 172.398 39.1092C172.398 38.9867 172.455 38.9442 172.568 38.9457H172.785C173.976 38.9457 175.169 38.9457 176.36 38.9457C176.785 38.9373 177.209 38.9886 177.62 39.0977C177.903 39.1671 178.163 39.3116 178.371 39.5156C178.579 39.7198 178.727 39.976 178.801 40.2573C178.873 40.4933 178.922 40.7358 178.947 40.9814C179.027 41.7599 179.008 42.5448 178.893 43.3186C178.862 43.6134 178.741 43.8916 178.546 44.1154C178.351 44.339 178.091 44.4975 177.801 44.5687C177.744 44.5855 177.687 44.6097 177.612 44.638ZM173.942 42.1963C173.942 42.69 173.942 43.1834 173.942 43.6783C173.942 43.8173 173.976 43.882 174.132 43.8804C174.888 43.8729 175.645 43.8882 176.4 43.8664C177.013 43.8496 177.28 43.5919 177.374 42.9966C177.46 42.4363 177.46 41.8665 177.374 41.306C177.294 40.7908 177.088 40.5934 176.565 40.5331C176.503 40.5256 176.44 40.5222 176.378 40.5228C175.642 40.5228 174.907 40.5228 174.175 40.5228C173.955 40.5228 173.951 40.5228 173.949 40.7442C173.939 41.2289 173.942 41.712 173.942 42.1963Z" fill="#837C99"/>
<path d="M170.212 48.7455C169.756 48.7455 169.28 48.7455 168.805 48.7455C168.658 48.7455 168.641 48.6463 168.614 48.5497C168.484 48.0846 168.355 47.6182 168.225 47.1516C168.15 46.8799 168.149 46.8771 167.88 46.8771H164.928C164.686 46.8771 164.683 46.8771 164.618 47.1168C164.489 47.5937 164.359 48.0703 164.237 48.5472C164.21 48.6501 164.192 48.7468 164.048 48.7455C163.562 48.7455 163.077 48.7455 162.56 48.7455C162.655 48.3899 162.738 48.0641 162.827 47.7392C163.605 44.9045 164.382 42.0699 165.16 39.2352C165.24 38.9427 165.24 38.9414 165.549 38.9414H167.258C167.532 38.9414 167.534 38.9414 167.61 39.2131L169.83 47.202C169.96 47.6683 170.089 48.1334 170.219 48.6C170.23 48.6227 170.235 48.6482 170.234 48.6737C170.233 48.6989 170.225 48.7238 170.212 48.7455ZM166.453 40.5391L166.38 40.5481L165.064 45.4778C165.54 45.5384 167.56 45.5179 167.786 45.4483C167.341 43.8161 166.895 42.1812 166.45 40.5428L166.453 40.5391Z" fill="#837C99"/>
<path d="M134.206 43.85V39.2501C134.206 38.9473 134.206 38.9448 134.512 38.9448H139.268C139.56 38.9448 139.563 38.9448 139.565 39.2268C139.565 39.5657 139.565 39.9061 139.565 40.245C139.565 40.5179 139.565 40.5207 139.295 40.522H137.74C137.159 40.522 136.573 40.522 135.999 40.522C135.752 40.522 135.747 40.522 135.74 40.7486C135.74 41.4779 135.74 42.2082 135.74 42.9391C135.74 43.1657 135.74 43.1698 135.99 43.1698H138.971C139.043 43.1698 139.116 43.1698 139.189 43.1698C139.309 43.162 139.351 43.2186 139.351 43.3345C139.351 43.7353 139.351 44.1372 139.351 44.538C139.351 44.6888 139.296 44.7338 139.151 44.7314C138.736 44.7248 138.321 44.7314 137.908 44.7314H136.043C135.725 44.7314 135.734 44.7055 135.736 45.0292V48.3597C135.732 48.4216 135.732 48.4834 135.736 48.5453C135.759 48.7154 135.673 48.7542 135.519 48.7514C135.147 48.7436 134.774 48.7424 134.401 48.7514C134.237 48.7514 134.188 48.6948 134.191 48.5363C134.2 48.084 134.191 47.6344 134.191 47.1783L134.206 43.85Z" fill="#837C99"/>
<path d="M144.266 44.6928V41.0489C144.262 40.9768 144.262 40.9047 144.266 40.8326C144.286 40.6662 144.207 40.6199 144.051 40.6212C143.595 40.6277 143.144 40.6212 142.682 40.6212C142.496 40.6212 142.309 40.6212 142.122 40.6212C141.972 40.6212 141.924 40.5618 141.925 40.4188C141.925 39.9873 141.925 39.5542 141.925 39.1214C141.925 38.9924 141.979 38.9318 142.111 38.9408C142.173 38.9408 142.24 38.9408 142.298 38.9408H147.833C147.885 38.9442 147.937 38.9442 147.989 38.9408C148.158 38.9215 148.201 39.0014 148.197 39.1587C148.189 39.5697 148.197 39.982 148.197 40.393C148.197 40.6134 148.197 40.6187 147.974 40.6199C147.373 40.6199 146.771 40.6199 146.17 40.6199C146.097 40.6199 146.025 40.6199 145.952 40.6199C145.843 40.6199 145.807 40.6753 145.81 40.7732C145.812 40.8711 145.81 40.9383 145.81 41.0206V48.4011C145.81 48.7788 145.845 48.7452 145.455 48.7465C145.144 48.7465 144.832 48.7465 144.522 48.7465C144.274 48.7465 144.271 48.7465 144.271 48.4888C144.267 47.2244 144.265 45.9591 144.266 44.6928Z" fill="#837C99"/>
</svg>
