<svg width="25" height="24" viewBox="0 0 25 24" fill="none" xmlns="http://www.w3.org/2000/svg">
<path d="M3.00461 11.8948C3.00461 8.74191 3.00461 8.31198 3.00461 7.02218C3.00461 5.8757 3.29377 5.30245 3.43835 4.87252C3.7275 4.29928 3.87208 3.86934 4.30582 3.43941C4.73955 3.00948 5.17329 2.72286 5.7516 2.57955C6.18534 2.43624 6.76365 2.29293 7.92028 2.14962C9.22148 2.14962 9.51064 2.14962 12.8359 2.14962C16.1612 2.14962 16.4504 2.14962 17.7516 2.14962C18.9082 2.14962 19.4865 2.43623 19.9203 2.57955C20.4986 2.86617 20.9323 3.00948 21.3661 3.43941C21.7998 3.86934 22.089 4.29928 22.2335 4.87252C22.3781 5.30245 22.5227 5.8757 22.6673 7.02218C22.6673 8.31198 22.6673 8.5986 22.6673 11.8948C22.6673 15.1909 22.6673 15.4775 22.6673 16.7673C22.6673 17.9138 22.3781 18.487 22.2335 18.917C21.9444 19.4902 21.7998 19.9202 21.3661 20.3501C20.9323 20.78 20.4986 21.0666 19.9203 21.21C19.4865 21.3533 18.9082 21.4966 17.7516 21.6399C16.4504 21.6399 16.1612 21.6399 12.8359 21.6399C9.51064 21.6399 9.22148 21.6399 7.92028 21.6399C6.76365 21.6399 6.18534 21.3533 5.7516 21.21C5.17329 20.9233 4.73955 20.78 4.30582 20.3501C3.87208 19.9202 3.58293 19.4902 3.43835 18.917C3.29377 18.487 3.14919 17.9138 3.00461 16.7673C3.00461 15.4775 3.00461 15.0476 3.00461 11.8948ZM0.835937 11.8948C0.835937 15.1909 0.835937 15.4775 0.835937 16.7673C0.835937 18.0571 1.12509 18.917 1.41425 19.6335C1.70341 20.3501 2.13714 21.0666 2.86003 21.7832C3.58293 22.4998 4.16124 22.7864 5.02871 23.2163C5.7516 23.5029 6.61907 23.6462 7.92028 23.7896C9.22148 23.7896 9.65522 23.7896 12.8359 23.7896C16.1612 23.7896 16.4504 23.7896 17.7516 23.7896C19.0528 23.7895 19.9203 23.5029 20.6432 23.2163C21.3661 22.9297 22.089 22.4998 22.8118 21.7832C23.5347 21.0666 23.8239 20.4934 24.2576 19.6335C24.5468 18.917 24.6914 18.0571 24.8359 16.7673C24.8359 15.4775 24.8359 15.0476 24.8359 11.8948C24.8359 8.74191 24.8359 8.31198 24.8359 7.02218C24.8359 5.73239 24.5468 4.87252 24.2576 4.15597C23.9685 3.43941 23.5347 2.72286 22.8118 2.0063C22.089 1.28975 21.5106 1.00313 20.6432 0.573194C19.9203 0.286571 19.0528 0.143266 17.7516 -4.65158e-05C16.4504 -4.64589e-05 16.0167 -4.64399e-05 12.8359 -4.63009e-05C9.65522 -4.61619e-05 9.22148 -4.61429e-05 7.92028 -4.6086e-05C6.61907 -4.60292e-05 5.7516 0.286571 5.02871 0.573194C4.30582 0.859817 3.58293 1.28975 2.86003 2.0063C2.13714 2.72286 1.84799 3.2961 1.41425 4.15597C1.12509 4.87252 0.980515 5.73239 0.835937 7.02218C0.835937 8.31198 0.835937 8.5986 0.835937 11.8948Z" fill="#050505"/>
<path d="M6.61907 11.8948C6.61907 15.3342 9.36606 18.0571 12.8359 18.0571C16.3058 18.0571 19.0528 15.3342 19.0528 11.8948C19.0528 8.45529 16.3058 5.73239 12.8359 5.73239C9.36606 5.73239 6.61907 8.45529 6.61907 11.8948ZM16.8841 11.8948C16.8841 14.0444 15.1492 15.9075 12.8359 15.9075C10.6673 15.9075 8.78775 14.1877 8.78774 11.8948C8.78774 9.74509 10.5227 7.88205 12.8359 7.88205C15.0046 7.88205 16.8841 9.74509 16.8841 11.8948Z" fill="#050505"/>
<path d="M7.92028 5.58907C7.92028 4.79759 7.27298 4.15597 6.47449 4.15597C5.67601 4.15597 5.02871 4.79759 5.02871 5.58907C5.02871 6.38056 5.67601 7.02218 6.47449 7.02218C7.27298 7.02218 7.92028 6.38056 7.92028 5.58907Z" fill="#050505"/>
</svg>
