<svg width="31" height="30" viewBox="0 0 31 30" fill="none" xmlns="http://www.w3.org/2000/svg">
<path fill-rule="evenodd" clip-rule="evenodd" d="M0.813477 7.65252C0.813477 3.61465 4.08682 0.341309 8.12469 0.341309H22.7471C26.785 0.341309 30.0583 3.61465 30.0583 7.65252V22.275C30.0583 26.3128 26.785 29.5862 22.7471 29.5862H8.12468C4.08681 29.5862 0.813477 26.3128 0.813477 22.2749V7.65252ZM15.4314 20.5682C18.5268 20.5682 21.0361 18.0588 21.0361 14.9634C21.0361 11.868 18.5268 9.35861 15.4314 9.35861C12.3359 9.35861 9.82658 11.868 9.82658 14.9634C9.82658 18.0588 12.3359 20.5682 15.4314 20.5682ZM15.4314 22.7615C19.7382 22.7615 23.2295 19.2702 23.2295 14.9634C23.2295 10.6566 19.7382 7.16524 15.4314 7.16524C11.1246 7.16524 7.63322 10.6566 7.63322 14.9634C7.63322 19.2702 11.1246 22.7615 15.4314 22.7615ZM23.2317 3.88333C24.138 3.88333 24.8727 4.61801 24.8727 5.52429C24.8727 6.43056 24.138 7.16524 23.2317 7.16524C22.3255 7.16524 21.5908 6.43056 21.5908 5.52429C21.5908 4.61801 22.3255 3.88333 23.2317 3.88333Z" fill="#D2D2D2"/>
</svg>
