<svg width="97" height="97" viewBox="0 0 116 79" fill="none" xmlns="http://www.w3.org/2000/svg">
<path d="M49.1465 28.307L12.437 49.5012L12.437 7.11274L49.1465 28.307Z" fill="#C7B2E1"/>
<path d="M97.3606 7.39086L93.1597 23.0687L81.6828 11.5917L97.3606 7.39086Z" fill="#C7B2E1"/>
<path d="M98.2909 60.4581L111.627 64.0316L101.864 73.7945L98.2909 60.4581Z" fill="#C7B2E1"/>
<path d="M30.666 65.5438V26.7419C30.666 25.1062 31.9685 23.8037 33.6042 23.8037H72.2849C73.9206 23.8037 75.2231 25.1062 75.2231 26.7419V55.0027C75.2231 56.6384 73.9206 57.9409 72.2849 57.9409H39.6319C39.6319 57.9409 33.6042 63.5749 31.4233 65.8769C31.1507 66.1496 30.666 65.9678 30.666 65.5438Z" stroke="#5C3EB3" stroke-width="2.71922" stroke-miterlimit="10" stroke-linejoin="round"/>
<path d="M39.6309 57.941V64.9078C39.6309 66.2405 40.7213 67.331 42.0541 67.331H74.495L83.9153 76.7513V35.2233C83.9153 33.6482 82.6431 32.376 81.068 32.376H75.434" stroke="#5C3EB3" stroke-width="2.71922" stroke-miterlimit="10" stroke-linejoin="round"/>
<path d="M53.8256 40.7504C56.0084 40.3502 57.7183 38.4948 57.9729 36.2756C58.3731 32.9286 55.5718 30.1273 52.2248 30.5275C50.0056 30.7821 48.1502 32.5284 47.75 34.7112" stroke="#5C3EB3" stroke-width="2.71922" stroke-miterlimit="10" stroke-linecap="round" stroke-linejoin="round"/>
<path d="M53.8262 40.75V46.7164" stroke="#5C3EB3" stroke-width="2.71922" stroke-miterlimit="10" stroke-linecap="round" stroke-linejoin="round"/>
<path d="M55.9302 51.6104C55.9302 52.623 55.0984 53.4668 54.1003 53.523C53.1021 53.523 52.2148 52.6792 52.2148 51.6666C52.2148 50.6541 53.0466 49.8103 54.0448 49.8103C55.043 49.754 55.8748 50.5978 55.9302 51.6104Z" fill="#5C3EB3"/>
</svg>
