<svg xmlns="http://www.w3.org/2000/svg" xmlns:xlink="http://www.w3.org/1999/xlink" width="78" height="78" viewBox="0 0 78 78">
  <defs>
    <linearGradient id="linear-gradient" x1="-12.39" y1="19.044" x2="-12.399" y2="19.059" gradientUnits="objectBoundingBox">
      <stop offset="0" stop-color="#1b152c"/>
      <stop offset="1" stop-color="#39324f"/>
    </linearGradient>
  </defs>
  <g id="Ios" transform="translate(325.681 -131.538)">
    <circle id="Ellipse_75" data-name="Ellipse 75" cx="39" cy="39" r="39" transform="translate(-325.681 131.538)" fill="#fff"/>
    <circle id="Ellipse_92" data-name="Ellipse 92" cx="32" cy="32" r="32" transform="translate(-318.681 138.538)" fill="url(#linear-gradient)"/>
    <path id="Icon_simple-apple" data-name="Icon simple-apple" d="M-292.661,172.986a6.05,6.05,0,0,1-1.4-1.3,17.539,17.539,0,0,1-1.2-1.641,15.856,15.856,0,0,1-2.009-4.1,15.457,15.457,0,0,1-.839-4.906,9.117,9.117,0,0,1,1.125-4.619,6.524,6.524,0,0,1,2.37-2.463,6.331,6.331,0,0,1,3.207-.952,5.324,5.324,0,0,1,1.275.169c.327.09.722.237,1.208.418.621.237.959.384,1.072.418a2.651,2.651,0,0,0,.9.192,2.669,2.669,0,0,0,.728-.147c.164-.056.474-.158.914-.35.436-.158.781-.293,1.055-.4a9.451,9.451,0,0,1,1.185-.293,5.6,5.6,0,0,1,1.3-.056,7.722,7.722,0,0,1,2.19.474,5.909,5.909,0,0,1,2.773,2.212,5.683,5.683,0,0,0-.818.621,6.911,6.911,0,0,0-1.388,1.7,5.764,5.764,0,0,0-.727,2.844,5.832,5.832,0,0,0,.948,3.228,6.008,6.008,0,0,0,1.731,1.734,4.436,4.436,0,0,0,.948.508c-.135.423-.284.835-.457,1.242a16,16,0,0,1-1.414,2.613c-.488.711-.871,1.242-1.163,1.591a6.289,6.289,0,0,1-1.332,1.238,2.958,2.958,0,0,1-1.639.492,3.627,3.627,0,0,1-1.167-.143c-.327-.107-.65-.228-.966-.365a7.888,7.888,0,0,0-1.021-.384,5.107,5.107,0,0,0-1.314-.166,5.3,5.3,0,0,0-1.309.164,8.268,8.268,0,0,0-1.024.367c-.474.2-.784.327-.965.384a4.979,4.979,0,0,1-1.117.2,3.093,3.093,0,0,1-1.674-.5Zm7.736-20.836a4.189,4.189,0,0,1-2.227.492,4.534,4.534,0,0,1,.3-2.3,6.226,6.226,0,0,1,1.129-1.9,6.112,6.112,0,0,1,1.845-1.418,5.255,5.255,0,0,1,2.133-.619,5.129,5.129,0,0,1-.282,2.336,6.682,6.682,0,0,1-1.129,1.987,5.686,5.686,0,0,1-1.79,1.422Z" fill="#fff"/>
    <g id="iOS-2" style="isolation: isolate">
      <g id="Group_728" data-name="Group 728" style="isolation: isolate">
        <path id="Path_1650" data-name="Path 1650" d="M-299.863,179.175a1.2,1.2,0,0,1-.853-.336,1.065,1.065,0,0,1-.355-.8,1.07,1.07,0,0,1,.355-.808,1.2,1.2,0,0,1,.853-.336,1.2,1.2,0,0,1,.854.336,1.072,1.072,0,0,1,.354.808,1.067,1.067,0,0,1-.354.8A1.2,1.2,0,0,1-299.863,179.175Zm-.965,11.333v-9.819h1.911v9.819Z" fill="#fff"/>
        <path id="Path_1651" data-name="Path 1651" d="M-284.822,183.962a7.852,7.852,0,0,1-.767,3.6,5.616,5.616,0,0,1-2.1,2.314,5.72,5.72,0,0,1-3.027.809,5.734,5.734,0,0,1-3.033-.809,5.622,5.622,0,0,1-2.1-2.316,7.866,7.866,0,0,1-.767-3.6,7.855,7.855,0,0,1,.767-3.6,5.613,5.613,0,0,1,2.1-2.313,5.734,5.734,0,0,1,3.033-.809,5.72,5.72,0,0,1,3.027.809,5.607,5.607,0,0,1,2.1,2.313A7.855,7.855,0,0,1-284.822,183.962Zm-1.956,0a6.326,6.326,0,0,0-.514-2.693,3.832,3.832,0,0,0-1.407-1.663,3.686,3.686,0,0,0-2.017-.566,3.678,3.678,0,0,0-2.019.566,3.839,3.839,0,0,0-1.4,1.663,6.326,6.326,0,0,0-.514,2.693,6.331,6.331,0,0,0,.514,2.694,3.836,3.836,0,0,0,1.4,1.662,3.678,3.678,0,0,0,2.019.566,3.686,3.686,0,0,0,2.017-.566,3.829,3.829,0,0,0,1.407-1.662A6.331,6.331,0,0,0-286.778,183.962Z" fill="#fff"/>
        <path id="Path_1652" data-name="Path 1652" d="M-275.228,180.855a1.88,1.88,0,0,0-.844-1.409,3.26,3.26,0,0,0-1.866-.5,3.505,3.505,0,0,0-1.394.253,2.159,2.159,0,0,0-.911.691,1.633,1.633,0,0,0-.322.994,1.445,1.445,0,0,0,.22.8,1.864,1.864,0,0,0,.582.566,4.138,4.138,0,0,0,.777.377c.277.1.543.182.8.246l1.279.332a9.8,9.8,0,0,1,1.284.416,5.179,5.179,0,0,1,1.222.689,3.356,3.356,0,0,1,.91,1.062,3.089,3.089,0,0,1,.349,1.515,3.493,3.493,0,0,1-.572,1.975,3.861,3.861,0,0,1-1.656,1.362,6.234,6.234,0,0,1-2.617.5,6.366,6.366,0,0,1-2.544-.467,3.911,3.911,0,0,1-1.681-1.326,3.816,3.816,0,0,1-.672-2.043h1.982a2,2,0,0,0,.463,1.179,2.416,2.416,0,0,0,1.042.7,4.139,4.139,0,0,0,1.4.227,3.962,3.962,0,0,0,1.492-.265,2.452,2.452,0,0,0,1.032-.742,1.739,1.739,0,0,0,.378-1.115,1.384,1.384,0,0,0-.329-.953,2.5,2.5,0,0,0-.889-.613,8.9,8.9,0,0,0-1.262-.429l-1.547-.422a5.993,5.993,0,0,1-2.49-1.259,2.821,2.821,0,0,1-.917-2.2,3.264,3.264,0,0,1,.614-1.975,4.051,4.051,0,0,1,1.661-1.313,5.729,5.729,0,0,1,2.365-.47,5.61,5.61,0,0,1,2.35.466,3.974,3.974,0,0,1,1.607,1.282,3.252,3.252,0,0,1,.614,1.869Z" fill="#fff"/>
      </g>
    </g>
  </g>
</svg>
