<svg width="25" height="25" viewBox="0 0 25 25" fill="none" xmlns="http://www.w3.org/2000/svg">
<path d="M0.835937 12.8945C0.835937 19.5219 6.20852 24.8945 12.8359 24.8945C19.4634 24.8945 24.8359 19.5219 24.8359 12.8945C24.8359 6.26711 19.4634 0.894531 12.8359 0.894531C6.20852 0.894531 0.835937 6.26711 0.835937 12.8945Z" fill="#050505"/>
<path d="M9.53692 17.5648H6.98691L6.98691 9.38838H9.53692L9.53692 17.5648ZM8.26192 8.24215C7.43692 8.24215 6.83691 7.63083 6.83691 6.79027C6.83691 5.9497 7.51192 5.33838 8.26192 5.33838C9.08692 5.33838 9.68692 5.9497 9.68692 6.79027C9.68692 7.63083 9.08692 8.24215 8.26192 8.24215ZM18.8369 17.5648H16.2869V13.1327C16.2869 11.8337 15.7619 11.4516 15.0119 11.4516C14.2619 11.4516 13.5119 12.0629 13.5119 13.2091L13.5119 17.5648H10.9619L10.9619 9.38838H13.3619V10.5346C13.5869 9.9997 14.4869 9.15913 15.7619 9.15913C17.1869 9.15913 18.6869 9.9997 18.6869 12.5214V17.5648H18.8369Z" fill="white"/>
</svg>
