<svg width="32" height="30" viewBox="0 0 32 30" fill="none" xmlns="http://www.w3.org/2000/svg">
<path d="M0.939453 3.45353C0.939453 2.46883 1.2841 1.65647 1.97336 1.01645C2.66262 0.376406 3.5587 0.0563965 4.66153 0.0563965C5.74468 0.0563965 6.62102 0.371473 7.29061 1.00168C7.97987 1.65157 8.32452 2.49837 8.32452 3.54215C8.32452 4.48743 7.98974 5.27515 7.32015 5.90537C6.63089 6.55525 5.72497 6.88019 4.60244 6.88019H4.5729C3.48975 6.88019 2.61341 6.55525 1.94382 5.90537C1.27423 5.25548 0.939453 4.43819 0.939453 3.45353ZM1.32348 29.3012V9.56836H7.88141V29.3012H1.32348ZM11.5149 29.3012H18.0728V18.2827C18.0728 17.5934 18.1516 17.0617 18.3091 16.6876C18.5848 16.018 19.0033 15.4518 19.5646 14.989C20.1258 14.5262 20.8299 14.2948 21.6767 14.2948C23.8824 14.2948 24.9852 15.7816 24.9852 18.7554V29.3012H31.5432V17.9873C31.5432 15.0727 30.8539 12.8621 29.4753 11.3555C28.0968 9.84899 26.2752 9.09571 24.0104 9.09571C21.4699 9.09571 19.4907 10.1887 18.0728 12.3747V12.4338H18.0433L18.0728 12.3747V9.56836H11.5149C11.5542 10.1985 11.5739 12.158 11.5739 15.4469C11.5739 18.7357 11.5542 23.3538 11.5149 29.3012Z" fill="white"/>
</svg>
