<svg width="505" height="507" viewBox="0 0 505 507" fill="none" xmlns="http://www.w3.org/2000/svg">
<path d="M302.723 246.604L245.57 303.756L444.832 503.018L501.985 445.866L302.723 246.604Z" fill="#FFF6F1"/>
<path d="M262.103 505.164L259.217 424.338C257.773 424.338 254.887 424.338 253.443 424.338C159.627 424.338 83.1309 347.842 83.1309 254.025C83.1309 160.209 158.184 83.7129 253.443 83.7129C347.26 83.7129 423.756 160.209 423.756 254.025C423.756 255.469 423.756 258.355 423.756 259.799L504.582 262.685C504.582 259.799 504.582 256.912 504.582 252.582C504.582 114.023 392.003 0 252 0C113.441 2.88665 0.861328 115.466 0.861328 254.025C0.861328 392.585 113.441 506.607 253.443 506.607C256.33 506.607 259.217 506.607 262.103 505.164Z" fill="white"/>
</svg>
