<svg width="97" height="97" viewBox="0 0 111 115" fill="none" xmlns="http://www.w3.org/2000/svg">
<rect x="0.992188" y="22.418" width="47.588" height="47.588" fill="#C7B2E1"/>
<rect width="9.25322" height="9.25322" transform="matrix(1 0 0 -1 59.8164 9.85938)" fill="#C7B2E1"/>
<rect width="11.897" height="11.897" transform="matrix(1 0 0 -1 98.8125 114.289)" fill="#C7B2E1"/>
<path d="M70.6126 70.4025C70.6126 75.333 66.4943 79.3914 61.3374 79.3914C56.1804 79.3914 52.0621 75.333 52.0621 70.4025C52.0621 65.472 56.1804 61.4137 61.3374 61.4137C66.4943 61.4137 70.6126 65.472 70.6126 70.4025Z" stroke="#5C3EB3" stroke-width="2.64378"/>
<path d="M74.6223 89.3048C74.6223 89.4701 74.5307 89.8114 73.9494 90.2965C73.3755 90.7754 72.466 91.266 71.226 91.7036C68.7579 92.5747 65.2618 93.1383 61.3373 93.1383C57.4128 93.1383 53.9168 92.5747 51.4487 91.7036C50.2087 91.266 49.2992 90.7754 48.7253 90.2965C48.1439 89.8114 48.0524 89.4701 48.0524 89.3048C48.0524 89.1395 48.1439 88.7981 48.7253 88.313C49.2992 87.8341 50.2087 87.3436 51.4487 86.9059C53.9168 86.0348 57.4128 85.4713 61.3373 85.4713C65.2618 85.4713 68.7579 86.0348 71.226 86.9059C72.466 87.3436 73.3755 87.8341 73.9494 88.313C74.5307 88.7981 74.6223 89.1395 74.6223 89.3048Z" stroke="#5C3EB3" stroke-width="2.64378"/>
<rect x="36.0231" y="49.5162" width="51.5536" height="51.5536" rx="2.64378" stroke="#5C3EB3" stroke-width="2.64378"/>
</svg>
