<svg width="272" height="133" viewBox="0 0 272 133" fill="none" xmlns="http://www.w3.org/2000/svg">
<g opacity="0.42">
<path d="M252.985 100.073V101.573H254.485H318.9V131.162H221.915V-38.6538H252.985V100.073Z" stroke="white" stroke-width="3"/>
<path d="M171.815 46.3725V47.0723C171.67 68.3521 164.901 86.6035 151.529 101.901L149.355 104.388H152.659H210.743V131.17H83.3206V131.107L81.8982 131.033C60.493 129.925 42.2254 121.795 27.0304 106.598L27.0303 106.598C10.6424 90.2122 2.4585 70.1678 2.4585 46.3725C2.4585 22.5772 10.6423 2.53515 27.0303 -13.8529C43.4181 -30.2383 63.3873 -38.4248 87.0197 -38.4248C110.652 -38.4248 130.658 -30.2382 147.126 -13.8506C163.587 2.53819 171.815 22.5797 171.815 46.3725ZM126.251 6.19328L126.25 6.19279C115.679 -4.37361 102.571 -9.6578 87.0197 -9.6578C71.4683 -9.6578 58.3559 -4.37374 47.7891 6.19304C37.2049 16.7772 31.9383 30.2107 31.9383 46.3725C31.9383 62.5386 37.2049 75.9342 47.7931 86.4366C58.3609 96.9259 71.4722 102.164 87.0197 102.164C102.568 102.164 115.674 96.9233 126.246 86.437L126.246 86.4366C136.83 75.932 142.099 62.5342 142.099 46.3725C142.099 30.2106 136.83 16.7773 126.251 6.19328Z" stroke="white" stroke-width="3"/>
</g>
</svg>
