<svg width="1400" height="758" viewBox="0 0 1400 758" fill="none" xmlns="http://www.w3.org/2000/svg">
<g opacity="0.8">
<path opacity="0.42" fill-rule="evenodd" clip-rule="evenodd" d="M1100.51 624.489V10.5H971.34V747.183H1389.12V624.489H1100.51ZM1399.12 614.489V757.183H961.34V0.5H1110.51V614.489H1399.12Z" fill="white"/>
<path opacity="0.42" fill-rule="evenodd" clip-rule="evenodd" d="M745.11 382.412V379.358C745.11 276.07 709.434 189.2 638.02 118.101C566.572 46.9992 479.849 11.502 377.265 11.502C274.68 11.502 188.123 46.9985 117.025 118.085L745.11 382.412ZM117.025 118.085C45.9317 189.179 10.4414 276.054 10.4414 379.358C10.4414 482.663 45.9317 569.547 117.025 640.63L117.026 640.631C182.958 706.573 262.143 741.813 355.017 746.622L364.5 747.113V747.214H915.558V636.815H642.645L657.138 620.234C715.115 553.906 744.478 474.801 745.11 382.412L117.025 118.085ZM755.011 389.358C753.08 476.543 725.772 552.365 673.12 616.815C670.371 620.18 667.554 623.513 664.667 626.815H925.558V757.214H354.5V756.608C259.151 751.671 177.633 715.39 109.954 647.701C36.9317 574.689 0.441406 485.238 0.441406 379.358C0.441406 273.477 36.9317 184.037 109.954 111.014C182.966 38.0131 272.084 1.50195 377.265 1.50195C482.446 1.50195 571.719 38.0131 645.076 111.014C718.422 184.037 755.11 273.477 755.11 379.358H755.121C755.121 380.389 755.117 381.418 755.11 382.446C755.095 384.758 755.061 387.062 755.011 389.358ZM551.463 201.002L551.466 201.005C598.49 248.051 621.863 307.77 621.863 379.358C621.863 450.945 598.489 510.515 551.438 557.216L551.436 557.219C504.469 603.804 446.199 627.077 377.265 627.077C308.332 627.077 250.039 603.816 203.091 557.216C156.018 510.524 132.656 450.963 132.656 379.358C132.656 307.771 156.018 248.05 203.065 201.004C250.006 154.062 308.306 130.595 377.265 130.595C446.224 130.595 504.502 154.063 551.463 201.002ZM210.136 550.119C255.112 594.761 310.828 617.077 377.265 617.077C443.701 617.077 499.396 594.751 544.393 550.119C589.37 505.477 611.863 448.549 611.863 379.358C611.863 310.166 589.37 253.072 544.393 208.075C499.396 163.099 443.701 140.595 377.265 140.595C310.828 140.595 255.112 163.099 210.136 208.075C165.139 253.072 142.656 310.166 142.656 379.358C142.656 448.57 165.139 505.487 210.136 550.119Z" fill="white"/>
</g>
</svg>
