<svg width="185" height="185" viewBox="0 0 185 185" fill="none" xmlns="http://www.w3.org/2000/svg">
<ellipse cx="92.4703" cy="92.2778" rx="83.9013" ry="83.9013" transform="rotate(-4.07687 92.4703 92.2778)" fill="#5C3EB3" fill-opacity="0.2"/>
<circle cx="92.1682" cy="92.5416" r="66.7566" transform="rotate(32.1111 92.1682 92.5416)" fill="#5C3EB3"/>
<path d="M109.711 102.856V76.0835H103.281V109.078H122.152V102.856H109.711Z" fill="white"/>
<path d="M94.3888 92.6032C94.3888 87.9864 92.8074 84.0863 89.6459 80.9022C86.4839 77.719 82.6358 76.127 78.1021 76.127C73.5683 76.127 69.727 77.719 66.5798 80.9022C63.4323 84.0863 61.8594 87.9864 61.8594 92.6032C61.8594 97.2201 63.4323 101.121 66.5798 104.304C69.4971 107.256 73.0109 108.838 77.1208 109.053V109.079H101.736V103.394H90.4903C93.089 100.386 94.3893 96.7891 94.3893 92.6032H94.3888ZM67.9894 92.6032C67.9894 89.5861 68.9585 87.0966 70.8981 85.1345C72.8367 83.1733 75.2384 82.1921 78.1021 82.1921C80.9657 82.1921 83.3665 83.1733 85.306 85.1345C87.2447 87.0966 88.2143 89.5861 88.2143 92.6032C88.2143 95.6203 87.2447 98.1026 85.306 100.049C83.3665 101.995 80.9657 102.969 78.1021 102.969C75.2384 102.969 72.8367 101.996 70.8981 100.049C68.9585 98.1031 67.9894 95.6212 67.9894 92.6032Z" fill="white"/>
</svg>
