<svg width="252" height="33" viewBox="0 0 252 33" fill="none" xmlns="http://www.w3.org/2000/svg">
<path d="M31.504 15.5414C31.504 19.0974 30.454 22.2334 28.354 24.9494L31 27.8054L25.75 32.4674L22.852 29.3594C20.752 30.3674 18.498 30.8714 16.09 30.8714C11.778 30.8714 8.124 29.4014 5.128 26.4614C2.16 23.4934 0.676 19.8534 0.676 15.5414C0.676 11.2294 2.16 7.60339 5.128 4.66339C8.124 1.69539 11.778 0.211393 16.09 0.211393C20.402 0.211393 24.042 1.69539 27.01 4.66339C30.006 7.60339 31.504 11.2294 31.504 15.5414ZM16.09 23.5214C16.398 23.5214 16.804 23.4934 17.308 23.4374L13.36 19.1954L18.652 14.5754L23.146 19.3634C23.734 18.1874 24.028 16.9134 24.028 15.5414C24.028 13.2174 23.272 11.3134 21.76 9.82939C20.248 8.31739 18.358 7.56139 16.09 7.56139C13.822 7.56139 11.932 8.31739 10.42 9.82939C8.908 11.3134 8.152 13.2174 8.152 15.5414C8.152 17.8654 8.908 19.7834 10.42 21.2954C11.932 22.7794 13.822 23.5214 16.09 23.5214ZM48.4218 9.24139H55.3938V30.2414H48.4218V28.1414C47.1618 29.9334 45.2158 30.8294 42.5838 30.8294C40.3158 30.8294 38.4538 30.0594 36.9978 28.5194C35.5698 26.9514 34.8558 24.7114 34.8558 21.7994V9.24139H41.8278V20.9174C41.8278 22.0094 42.1078 22.8354 42.6678 23.3954C43.2558 23.9554 44.0258 24.2354 44.9778 24.2354C46.0698 24.2354 46.9098 23.9134 47.4978 23.2694C48.1138 22.5974 48.4218 21.6454 48.4218 20.4134V9.24139ZM69.595 30.8294C66.487 30.8294 63.841 29.7654 61.657 27.6374C59.473 25.4814 58.381 22.8494 58.381 19.7414C58.381 16.6334 59.473 14.0154 61.657 11.8874C63.841 9.73139 66.487 8.65339 69.595 8.65339C72.731 8.65339 75.377 9.73139 77.533 11.8874C79.717 14.0154 80.809 16.6334 80.809 19.7414C80.809 22.8494 79.717 25.4814 77.533 27.6374C75.377 29.7654 72.731 30.8294 69.595 30.8294ZM69.595 24.1094C70.827 24.1094 71.835 23.7034 72.619 22.8914C73.431 22.0794 73.837 21.0294 73.837 19.7414C73.837 18.4534 73.431 17.4034 72.619 16.5914C71.835 15.7794 70.827 15.3734 69.595 15.3734C68.391 15.3734 67.383 15.7794 66.571 16.5914C65.787 17.4034 65.395 18.4534 65.395 19.7414C65.395 21.0294 65.787 22.0794 66.571 22.8914C67.383 23.7034 68.391 24.1094 69.595 24.1094ZM104.623 30.2414H96.8114L90.8474 21.2954V30.2414H83.8754V0.841392H90.8474V18.0194L96.2654 9.24139H104.329L97.2734 19.7414L104.623 30.2414ZM127.387 30.2414H119.575L113.611 21.2954V30.2414H106.639V0.841392H113.611V18.0194L119.029 9.24139H127.093L120.037 19.7414L127.387 30.2414ZM142.875 9.24139H149.847V30.2414H142.875V28.3094C141.447 29.9894 139.459 30.8294 136.911 30.8294C134.111 30.8294 131.759 29.7794 129.855 27.6794C127.979 25.5514 127.041 22.9054 127.041 19.7414C127.041 16.5774 127.979 13.9454 129.855 11.8454C131.759 9.71739 134.111 8.65339 136.911 8.65339C139.459 8.65339 141.447 9.49339 142.875 11.1734V9.24139ZM135.273 23.0594C136.085 23.8994 137.149 24.3194 138.465 24.3194C139.781 24.3194 140.845 23.8994 141.657 23.0594C142.469 22.2194 142.875 21.1134 142.875 19.7414C142.875 18.3694 142.469 17.2634 141.657 16.4234C140.845 15.5834 139.781 15.1634 138.465 15.1634C137.149 15.1634 136.085 15.5834 135.273 16.4234C134.461 17.2634 134.055 18.3694 134.055 19.7414C134.055 21.1134 134.461 22.2194 135.273 23.0594ZM171.217 22.9754H181.339V30.2414H163.699V0.841392H171.217V22.9754ZM198.41 9.24139H205.382V30.2414H198.41V28.3094C196.982 29.9894 194.994 30.8294 192.446 30.8294C189.646 30.8294 187.294 29.7794 185.39 27.6794C183.514 25.5514 182.576 22.9054 182.576 19.7414C182.576 16.5774 183.514 13.9454 185.39 11.8454C187.294 9.71739 189.646 8.65339 192.446 8.65339C194.994 8.65339 196.982 9.49339 198.41 11.1734V9.24139ZM190.808 23.0594C191.62 23.8994 192.684 24.3194 194 24.3194C195.316 24.3194 196.38 23.8994 197.192 23.0594C198.004 22.2194 198.41 21.1134 198.41 19.7414C198.41 18.3694 198.004 17.2634 197.192 16.4234C196.38 15.5834 195.316 15.1634 194 15.1634C192.684 15.1634 191.62 15.5834 190.808 16.4234C189.996 17.2634 189.59 18.3694 189.59 19.7414C189.59 21.1134 189.996 22.2194 190.808 23.0594ZM222.36 8.65339C225.16 8.65339 227.498 9.71739 229.374 11.8454C231.278 13.9454 232.23 16.5774 232.23 19.7414C232.23 22.9054 231.278 25.5514 229.374 27.6794C227.498 29.7794 225.16 30.8294 222.36 30.8294C219.812 30.8294 217.824 29.9894 216.396 28.3094V30.2414H209.424V0.841392H216.396V11.1734C217.824 9.49339 219.812 8.65339 222.36 8.65339ZM217.614 23.0594C218.426 23.8994 219.49 24.3194 220.806 24.3194C222.122 24.3194 223.186 23.8994 223.998 23.0594C224.81 22.2194 225.216 21.1134 225.216 19.7414C225.216 18.3694 224.81 17.2634 223.998 16.4234C223.186 15.5834 222.122 15.1634 220.806 15.1634C219.49 15.1634 218.426 15.5834 217.614 16.4234C216.802 17.2634 216.396 18.3694 216.396 19.7414C216.396 21.1134 216.802 22.2194 217.614 23.0594ZM241.45 15.3734C241.45 15.7654 241.8 16.0874 242.5 16.3394C243.228 16.5914 244.096 16.8294 245.104 17.0534C246.14 17.2774 247.162 17.5994 248.17 18.0194C249.206 18.4114 250.074 19.0974 250.774 20.0774C251.502 21.0574 251.866 22.2894 251.866 23.7734C251.866 26.1814 250.97 27.9594 249.178 29.1074C247.386 30.2554 245.258 30.8294 242.794 30.8294C238.09 30.8294 234.954 29.1634 233.386 25.8314L239.476 22.7654C240.008 24.3054 241.1 25.0754 242.752 25.0754C244.012 25.0754 244.642 24.6974 244.642 23.9414C244.642 23.5494 244.292 23.2274 243.592 22.9754C242.892 22.7234 242.038 22.4714 241.03 22.2194C240.022 21.9674 239.014 21.6314 238.006 21.2114C236.998 20.7914 236.144 20.1194 235.444 19.1954C234.744 18.2434 234.394 17.0814 234.394 15.7094C234.394 13.4694 235.22 11.7334 236.872 10.5014C238.524 9.26939 240.512 8.65339 242.836 8.65339C246.98 8.65339 249.864 10.2774 251.488 13.5254L245.608 16.1714C244.992 14.9674 244.124 14.3654 243.004 14.3654C241.968 14.3654 241.45 14.7014 241.45 15.3734Z" fill="#5C3EB3"/>
</svg>
