<svg width="50" height="50" viewBox="0 0 112 68" fill="none" xmlns="http://www.w3.org/2000/svg">
<path d="M50.6836 6.52888L42.8641 2.43859C41.4877 1.71858 39.9699 1.34375 38.431 1.34375H34.9645C32.3355 1.34375 29.8142 2.43631 27.9552 4.38115L23.8494 8.67661C21.9904 10.6214 20.946 13.2591 20.946 16.0095V42.4597C20.946 45.927 22.6024 49.1651 25.3601 51.0883L44.5253 64.455C48.1777 67.003 52.9972 66.7334 56.3694 63.7934L80.4212 42.8248" stroke="#5C3EB3" stroke-width="2" stroke-linecap="round"/>
<path d="M67.8111 32.0096C64.8205 27.82 59.3166 26.6155 54.9714 29.1988L45.7761 34.6665C42.8221 36.4227 39.1105 35.898 36.708 33.3847C33.5691 30.1005 33.8029 24.7059 37.2132 21.7332L57.8431 3.74737C59.6249 2.19427 61.8701 1.34375 64.1891 1.34375H68.1729C69.7119 1.34375 71.2295 1.71858 72.6058 2.43859L84.8582 8.84772C88.2166 10.6044 90.3378 14.1952 90.3378 18.1233V32.3487C90.3378 42.3254 78.1895 46.5477 72.4834 38.5543L67.8111 32.0096Z" stroke="#5C3EB3" stroke-width="2" stroke-linecap="square"/>
<path d="M1.12183 53.1954V6.5293" stroke="#5C3EB3" stroke-width="2" stroke-linecap="round"/>
<path d="M110.159 53.1954V6.5293" stroke="#5C3EB3" stroke-width="2" stroke-linecap="round"/>
</svg>
