<svg width="13" height="20" viewBox="0 0 13 20" fill="none" xmlns="http://www.w3.org/2000/svg">
<path d="M8.8164 10.3225L1.76988 3.59551C1.62905 3.47308 1.51539 3.32492 1.43561 3.1598C1.35583 2.99468 1.31156 2.81597 1.30543 2.63422C1.29929 2.45248 1.33141 2.27141 1.39989 2.10173C1.46836 1.93205 1.5718 1.77721 1.70408 1.64638C1.83636 1.51555 1.99479 1.41138 2.16999 1.34004C2.34519 1.2687 2.5336 1.23165 2.72408 1.23106C2.91455 1.23048 3.10321 1.26638 3.27888 1.33665C3.45456 1.40692 3.61369 1.51012 3.74684 1.64014L3.78152 1.67325L11.8358 9.36044C12.1028 9.61537 12.2527 9.96109 12.2527 10.3216C12.2527 10.6821 12.1028 11.0278 11.8358 11.2827L3.78345 18.9699C3.65351 19.0983 3.49836 19.201 3.32685 19.2721C3.15534 19.3433 2.97083 19.3815 2.78385 19.3846C2.59687 19.3876 2.41109 19.3555 2.23712 19.2901C2.06314 19.2246 1.90437 19.127 1.76988 19.003C1.63539 18.879 1.52781 18.7308 1.45329 18.5671C1.37876 18.4034 1.33874 18.2272 1.33552 18.0487C1.3323 17.8702 1.36594 17.6929 1.43451 17.5268C1.50309 17.3607 1.60527 17.2091 1.7352 17.0807L1.76988 17.0476L8.8164 10.3225Z" fill="#5C3EB3" stroke="#5C3EB3" stroke-width="0.919741"/>
</svg>
