<svg width="215" height="50" viewBox="0 0 215 50" fill="none" xmlns="http://www.w3.org/2000/svg">
<path d="M74.9155 17.8425C72.5902 17.8425 71.4275 18.6105 71.4275 20.1465C71.4275 20.8292 71.7155 21.3518 72.2915 21.7145C72.8675 22.0772 74.2115 22.5998 76.3235 23.2825C78.4568 23.9652 79.9502 24.7438 80.8035 25.6185C81.6568 26.4718 82.0835 27.7945 82.0835 29.5865C82.0835 31.8692 81.3902 33.5972 80.0035 34.7705C78.6168 35.9438 76.8035 36.5305 74.5635 36.5305C72.8995 36.5305 70.8622 36.2745 68.4515 35.7625L67.2995 35.5385L67.7475 32.1145C70.6062 32.4985 72.7928 32.6905 74.3075 32.6905C76.5688 32.6905 77.6995 31.7518 77.6995 29.8745C77.6995 29.1918 77.4328 28.6585 76.8995 28.2745C76.3875 27.8905 75.3528 27.4745 73.7955 27.0265C71.3208 26.3225 69.5715 25.4905 68.5475 24.5305C67.5448 23.5492 67.0435 22.1945 67.0435 20.4665C67.0435 18.2905 67.7048 16.6692 69.0275 15.6025C70.3502 14.5358 72.1635 14.0025 74.4675 14.0025C76.0462 14.0025 78.0515 14.2158 80.4835 14.6425L81.6355 14.8665L81.2835 18.3545C78.2755 18.0131 76.1528 17.8425 74.9155 17.8425ZM97.5057 25.1385V31.7945C97.5484 32.3065 97.6337 32.6692 97.7617 32.8825C97.8897 33.0745 98.1564 33.2132 98.5617 33.2985L98.4337 36.5305C97.3457 36.5305 96.4711 36.4558 95.8097 36.3065C95.1697 36.1572 94.5191 35.8585 93.8577 35.4105C92.3217 36.1572 90.7537 36.5305 89.1537 36.5305C85.8471 36.5305 84.1937 34.7812 84.1937 31.2825C84.1937 29.5758 84.6524 28.3705 85.5697 27.6665C86.4871 26.9412 87.8951 26.5145 89.7937 26.3865L93.2177 26.1305V25.1385C93.2177 24.4772 93.0684 24.0292 92.7697 23.7945C92.4711 23.5385 91.9911 23.4105 91.3297 23.4105L85.3137 23.6665L85.1857 20.6905C87.4684 20.0718 89.6337 19.7625 91.6817 19.7625C93.7511 19.7625 95.2337 20.1892 96.1297 21.0425C97.0471 21.8958 97.5057 23.2612 97.5057 25.1385ZM90.3057 29.3625C89.1111 29.4692 88.5137 30.1092 88.5137 31.2825C88.5137 32.4558 89.0364 33.0425 90.0817 33.0425C90.8924 33.0425 91.7777 32.9145 92.7377 32.6585L93.2177 32.5305V29.1065L90.3057 29.3625ZM106.649 23.7945V36.1465H102.361V23.7945H100.633V20.1465H102.361V19.4425C102.361 17.1385 102.703 15.5491 103.385 14.6745C104.068 13.7998 105.284 13.3625 107.033 13.3625C107.801 13.3625 108.793 13.4692 110.009 13.6825L110.681 13.7785L110.617 17.2665C109.679 17.2238 108.889 17.2025 108.249 17.2025C107.609 17.2025 107.183 17.3732 106.969 17.7145C106.756 18.0558 106.649 18.6425 106.649 19.4745V20.1465H110.521V23.7945H106.649ZM116.426 29.9705C116.447 30.9518 116.703 31.6665 117.194 32.1145C117.706 32.5412 118.431 32.7545 119.37 32.7545C121.354 32.7545 123.125 32.6905 124.682 32.5625L125.578 32.4665L125.642 35.6345C123.189 36.2318 120.97 36.5305 118.986 36.5305C116.575 36.5305 114.826 35.8905 113.738 34.6105C112.65 33.3305 112.106 31.2505 112.106 28.3705C112.106 22.6318 114.463 19.7625 119.178 19.7625C123.829 19.7625 126.154 22.1732 126.154 26.9945L125.834 29.9705H116.426ZM121.93 26.7065C121.93 25.4265 121.727 24.5412 121.322 24.0505C120.917 23.5385 120.202 23.2825 119.178 23.2825C118.175 23.2825 117.461 23.5492 117.034 24.0825C116.629 24.5945 116.415 25.4692 116.394 26.7065H121.93ZM142.114 36.1465V27.1225H134.018V36.1465H129.602V14.3865H134.018V23.2825H142.114V14.3865H146.53V36.1465H142.114ZM151.551 21.9705C152.682 20.4985 154.57 19.7625 157.215 19.7625C159.861 19.7625 161.749 20.4985 162.879 21.9705C164.01 23.4212 164.575 25.4692 164.575 28.1145C164.575 33.7252 162.122 36.5305 157.215 36.5305C152.309 36.5305 149.855 33.7252 149.855 28.1145C149.855 25.4692 150.421 23.4212 151.551 21.9705ZM154.847 31.7305C155.295 32.4985 156.085 32.8825 157.215 32.8825C158.346 32.8825 159.125 32.4985 159.551 31.7305C159.999 30.9625 160.223 29.7572 160.223 28.1145C160.223 26.4718 159.999 25.2772 159.551 24.5305C159.125 23.7838 158.346 23.4105 157.215 23.4105C156.085 23.4105 155.295 23.7838 154.847 24.5305C154.421 25.2772 154.207 26.4718 154.207 28.1145C154.207 29.7572 154.421 30.9625 154.847 31.7305ZM177.158 20.1465H181.446V36.1465H177.19V35.2505C175.654 36.1038 174.321 36.5305 173.19 36.5305C170.972 36.5305 169.478 35.9225 168.71 34.7065C167.942 33.4692 167.558 31.4105 167.558 28.5305V20.1465H171.846V28.5945C171.846 30.1732 171.974 31.2505 172.23 31.8265C172.486 32.4025 173.105 32.6905 174.086 32.6905C175.025 32.6905 175.91 32.5412 176.742 32.2425L177.158 32.1145V20.1465ZM196.894 24.1465C194.249 23.8052 192.393 23.6345 191.326 23.6345C190.281 23.6345 189.598 23.7305 189.278 23.9225C188.979 24.1145 188.83 24.4238 188.83 24.8505C188.83 25.2558 189.033 25.5438 189.438 25.7145C189.865 25.8638 190.931 26.0985 192.638 26.4185C194.366 26.7172 195.593 27.2185 196.318 27.9225C197.043 28.6265 197.406 29.7678 197.406 31.3465C197.406 34.8025 195.262 36.5305 190.974 36.5305C189.566 36.5305 187.859 36.3385 185.854 35.9545L184.83 35.7625L184.958 32.1785C187.603 32.5198 189.438 32.6905 190.462 32.6905C191.507 32.6905 192.211 32.5945 192.574 32.4025C192.958 32.1892 193.15 31.8798 193.15 31.4745C193.15 31.0692 192.947 30.7705 192.542 30.5785C192.158 30.3865 191.134 30.1518 189.47 29.8745C187.827 29.5972 186.601 29.1278 185.79 28.4665C184.979 27.8052 184.574 26.6318 184.574 24.9465C184.574 23.2398 185.15 21.9598 186.302 21.1065C187.454 20.2318 188.937 19.7945 190.75 19.7945C192.009 19.7945 193.726 19.9972 195.902 20.4025L196.958 20.5945L196.894 24.1465ZM204.02 29.9705C204.041 30.9518 204.297 31.6665 204.788 32.1145C205.3 32.5412 206.025 32.7545 206.964 32.7545C208.948 32.7545 210.718 32.6905 212.276 32.5625L213.172 32.4665L213.236 35.6345C210.782 36.2318 208.564 36.5305 206.58 36.5305C204.169 36.5305 202.42 35.8905 201.332 34.6105C200.244 33.3305 199.7 31.2505 199.7 28.3705C199.7 22.6318 202.057 19.7625 206.772 19.7625C211.422 19.7625 213.748 22.1732 213.748 26.9945L213.428 29.9705H204.02ZM209.524 26.7065C209.524 25.4265 209.321 24.5412 208.916 24.0505C208.51 23.5385 207.796 23.2825 206.772 23.2825C205.769 23.2825 205.054 23.5492 204.628 24.0825C204.222 24.5945 204.009 25.4692 203.988 26.7065H209.524Z" fill="#837C99"/>
<path d="M14.8341 10.79H35.4943L40.6498 18.9908L30.4903 38.6253H20.8236L9.98175 19.8582L14.8341 10.79Z" stroke="#837C99" stroke-width="5" stroke-miterlimit="10"/>
<path d="M13.2003 2.71973L37.0371 2.75878" stroke="#837C99" stroke-width="5" stroke-miterlimit="10"/>
<path d="M19.2719 46.0054H32.359" stroke="#837C99" stroke-width="5" stroke-miterlimit="10"/>
<path d="M8.48176 5.8083L2.69553 17.1072" stroke="#837C99" stroke-width="5" stroke-miterlimit="10"/>
<path d="M41.5691 5.26074L48.5049 15.8928" stroke="#837C99" stroke-width="5" stroke-miterlimit="10"/>
<path d="M2.39587 22.0664L14.5976 43.3639" stroke="#837C99" stroke-width="5" stroke-miterlimit="10"/>
<path d="M48.1644 21.8343L36.8146 43.5977" stroke="#837C99" stroke-width="5" stroke-miterlimit="10"/>
</svg>
