<svg width="50" height="50" viewBox="0 0 69 69" fill="none" xmlns="http://www.w3.org/2000/svg">
<path fill-rule="evenodd" clip-rule="evenodd" d="M34.0117 67.8154C34.0117 38.3154 34.0117 48.0408 34.0117 29.8154C34.0117 11.59 34.0117 23.3154 34.0117 1.81543C15.7863 1.81543 1.01172 16.59 1.01172 34.8154C1.01172 53.0408 15.7863 67.8154 34.0117 67.8154Z" fill="#C7B2E1"/>
<path d="M57.6784 34.8154C57.6784 34.8154 50.6784 48.8154 34.3451 48.8154C18.0117 48.8154 11.0117 34.8154 11.0117 34.8154C11.0117 34.8154 18.0117 20.8154 34.3451 20.8154C50.6784 20.8154 57.6784 34.8154 57.6784 34.8154Z" stroke="#5C3EB3" stroke-width="2" stroke-linecap="round"/>
<circle cx="34.3457" cy="34.8145" r="7" stroke="#5C3EB3" stroke-width="2" stroke-linecap="round"/>
<path fill-rule="evenodd" clip-rule="evenodd" d="M34.0117 67.8154C52.2371 67.8154 67.0117 53.0408 67.0117 34.8154C67.0117 16.59 52.2371 1.81543 34.0117 1.81543C15.7863 1.81543 1.01172 16.59 1.01172 34.8154C1.01172 53.0408 15.7863 67.8154 34.0117 67.8154Z" stroke="#5C3EB3" stroke-width="2"/>
</svg>
