<svg width="50" height="50" viewBox="0 0 69 69" fill="none" xmlns="http://www.w3.org/2000/svg">
<path d="M31.9492 67.1816C35.161 67.6405 35.0044 63.0468 34.9569 62.2871C34.9524 62.2147 34.9492 62.1453 34.9492 62.0728V56.1816V31.1816V16.6816V1.68164C31.401 1.68164 28.2888 3.54828 26.5409 6.35313C25.4978 8.02715 22.7849 9.15085 20.8636 8.70475C17.6443 7.9573 14.1237 8.83806 11.6147 11.347C9.10574 13.856 8.22497 17.3766 8.97241 20.5959C9.4185 22.5172 8.29476 25.2302 6.62071 26.2734C3.81586 28.0212 1.94922 31.1334 1.94922 34.6816C1.94922 38.2299 3.81587 41.3421 6.62072 43.0899C8.29474 44.1331 9.41843 46.8459 8.97233 48.7673C8.22488 51.9865 9.10564 55.5071 11.6146 58.0161C14.1236 60.5251 17.6442 61.4058 20.8634 60.6584C22.7848 60.2123 25.251 61.3443 25.921 63.1995C26.8142 65.6728 28.5413 67.1816 31.9492 67.1816Z" fill="#C7B2E1"/>
<path d="M21.7676 36.3346L30.0176 44.5846L48.1676 26.4346" stroke="#5C3EB3" stroke-width="2" stroke-linecap="round"/>
<path d="M34.9746 67.6816C38.5228 67.6816 41.6351 65.815 43.3829 63.0101C44.4261 61.3361 47.1389 60.2124 49.0602 60.6585C52.2795 61.406 55.8001 60.5252 58.3091 58.0162C60.8181 55.5073 61.6988 51.9867 60.9514 48.7674C60.5053 46.8461 61.6291 44.1331 63.3031 43.0899C66.108 41.3421 67.9746 38.2299 67.9746 34.6816C67.9746 31.1334 66.108 28.0212 63.3031 26.2733C61.6291 25.2302 60.5054 22.5173 60.9515 20.596C61.6989 17.3767 60.8182 13.8561 58.3092 11.3471C55.8002 8.83816 52.2796 7.95739 49.0604 8.70483C47.139 9.15092 44.4261 8.02718 43.3829 6.35314C41.6351 3.54828 38.5228 1.68164 34.9746 1.68164C31.4264 1.68164 28.3142 3.54828 26.5663 6.35313C25.5232 8.02715 22.8103 9.15085 20.889 8.70475C17.6697 7.9573 14.1491 8.83806 11.6401 11.347C9.13113 13.856 8.25036 17.3766 8.9978 20.5959C9.44389 22.5172 8.32015 25.2302 6.6461 26.2734C3.84125 28.0212 1.97461 31.1334 1.97461 34.6816C1.97461 38.2299 3.84126 41.3421 6.64611 43.0899C8.32013 44.1331 9.44382 46.8459 8.99772 48.7673C8.25027 51.9865 9.13104 55.5071 11.64 58.0161C14.149 60.5251 17.6696 61.4059 20.8888 60.6584C22.8102 60.2123 25.5231 61.3361 26.5663 63.0101C28.3141 65.815 31.4264 67.6816 34.9746 67.6816Z" stroke="#5C3EB3" stroke-width="2" stroke-linecap="round"/>
</svg>
