<svg width="97" height="97" viewBox="0 0 97 101" fill="none" xmlns="http://www.w3.org/2000/svg">
<circle cx="72.8029" cy="77.3585" r="23.2247" fill="#C7B2E1"/>
<circle cx="7.40305" cy="7.38743" r="6.53196" fill="#C7B2E1"/>
<circle cx="29.1769" cy="95.2062" r="4.35464" fill="#C7B2E1"/>
<path d="M29.4472 18.2744C38.1269 18.2744 46.8382 18.2744 55.5179 18.2744C55.8981 18.5595 56.3099 18.8129 56.6266 19.1297C61.1882 23.6596 65.7181 28.2212 70.248 32.7511C70.7866 33.2896 71.04 33.9232 71.04 34.7151C71.0083 40.9556 71.04 47.1961 71.04 53.4366C71.04 60.1523 71.04 66.8996 71.04 73.6153C71.04 76.0228 69.6778 78.0185 67.4921 78.7788C67.1436 78.9055 66.7635 79.0005 66.4151 79.0955C54.0924 79.0955 41.7698 79.0955 29.4155 79.0955C29.3839 79.0639 29.3522 79.0322 29.3205 79.0322C26.2478 78.2086 24.8223 76.4029 24.8223 73.2035C24.8223 60.7542 24.8223 48.2732 24.8223 35.8238C24.8223 31.8008 24.8223 27.746 24.8223 23.723C24.8223 21.854 25.5509 20.3335 27.0714 19.2881C27.8 18.8129 28.6553 18.5912 29.4472 18.2744ZM53.2688 21.854C52.9837 21.854 52.7936 21.854 52.6036 21.854C45.2227 21.854 37.8735 21.854 30.4926 21.854C29.0354 21.854 28.3702 22.5192 28.3702 24.0081C28.3702 40.4805 28.3702 56.9529 28.3702 73.4252C28.3702 74.8824 29.0354 75.5793 30.4926 75.5793C42.1183 75.5793 53.7123 75.5793 65.338 75.5793C66.7952 75.5793 67.4921 74.9141 67.4921 73.4569C67.4921 61.2293 67.4921 49.0334 67.4921 36.8059C67.4921 36.5841 67.4921 36.394 67.4921 36.1406C67.207 36.1406 66.9852 36.1406 66.7635 36.1406C64.0075 36.1406 61.2833 36.1723 58.5273 36.1406C56.2465 36.1089 54.2508 34.6518 53.5539 32.4977C53.3638 31.8641 53.2688 31.1672 53.2688 30.502C53.2688 27.6193 53.2688 24.7683 53.2688 21.854ZM56.8484 24.5149C56.8484 26.6373 56.8167 28.728 56.8484 30.8188C56.8484 31.8008 57.6403 32.5294 58.6857 32.5294C60.6814 32.5294 62.6771 32.5294 64.6728 32.5294C64.7361 32.5294 64.7995 32.4977 64.8312 32.4977C62.1702 29.8368 59.5093 27.2075 56.8484 24.5149Z" fill="#5C3EB3"/>
<path d="M47.9472 43.458C51.4635 43.458 54.9797 43.458 58.4959 43.458C59.9214 43.458 60.8084 44.7568 60.2382 45.9605C59.8897 46.6891 59.2878 47.0376 58.4642 47.0376C55.93 47.0376 53.3641 47.0376 50.8299 47.0376C46.3634 47.0376 41.8968 47.0376 37.4303 47.0376C36.0048 47.0376 35.0861 45.7705 35.6246 44.5667C35.9731 43.8065 36.6066 43.4897 37.4303 43.4897C40.9465 43.458 44.431 43.458 47.9472 43.458Z" fill="#5C3EB3"/>
<path d="M47.9475 54.1343C44.4313 54.1343 40.9151 54.1343 37.3989 54.1343C35.9734 54.1343 35.0547 52.8038 35.6883 51.5684C36.0367 50.8715 36.6386 50.5547 37.4305 50.5547C40.8201 50.5547 44.1779 50.5547 47.5674 50.5547C51.2103 50.5547 54.8849 50.5547 58.5279 50.5547C59.9217 50.5547 60.8087 51.8851 60.2385 53.0889C59.89 53.8175 59.2565 54.1343 58.4645 54.1343C54.9483 54.1343 51.4321 54.1343 47.9475 54.1343Z" fill="#5C3EB3"/>
<path d="M42.4974 61.26C40.5334 61.26 38.5377 61.26 36.5737 61.26C35.7501 61.26 35.2749 59.9296 35.6233 58.6941C35.8134 57.9972 36.1619 57.6804 36.6054 57.7121C38.7594 57.7121 40.8818 57.7121 43.0359 57.7121C44.8732 57.7121 46.6789 57.7121 48.5162 57.7121C49.3081 57.7121 49.8149 59.0426 49.4665 60.2463C49.2764 60.9749 48.8963 61.26 48.4528 61.26C46.4571 61.26 44.4614 61.26 42.4974 61.26Z" fill="#5C3EB3"/>
</svg>
