<svg width="234" height="24" viewBox="0 0 234 24" fill="none" xmlns="http://www.w3.org/2000/svg">
<path d="M16.7085 1.11465V5.33865H10.6605V23.5146H6.2445V5.33865H0.2285V1.11465H16.7085ZM19.5635 17.2106C20.1182 19.216 21.6222 20.2186 24.0755 20.2186C25.6542 20.2186 26.8488 19.6853 27.6595 18.6186L30.9875 20.5386C29.4088 22.8213 27.0835 23.9626 24.0115 23.9626C21.3662 23.9626 19.2435 23.1626 17.6435 21.5626C16.0435 19.9626 15.2435 17.9466 15.2435 15.5146C15.2435 13.104 16.0328 11.0986 17.6115 9.49865C19.1902 7.87731 21.2168 7.06665 23.6915 7.06665C26.0382 7.06665 27.9688 7.87731 29.4835 9.49865C31.0195 11.12 31.7875 13.1253 31.7875 15.5146C31.7875 16.048 31.7342 16.6133 31.6275 17.2106H19.5635ZM19.4995 14.0106H27.6595C27.4248 12.9226 26.9342 12.112 26.1875 11.5786C25.4622 11.0453 24.6302 10.7786 23.6915 10.7786C22.5822 10.7786 21.6648 11.0666 20.9395 11.6426C20.2142 12.1973 19.7342 12.9866 19.4995 14.0106ZM42.1603 23.9626C39.7496 23.9626 37.7336 23.152 36.1123 21.5306C34.5123 19.9093 33.7122 17.904 33.7122 15.5146C33.7122 13.1253 34.5123 11.12 36.1123 9.49865C37.7336 7.87731 39.7496 7.06665 42.1603 7.06665C43.7176 7.06665 45.1363 7.43998 46.4163 8.18665C47.6963 8.93331 48.6669 9.93598 49.3283 11.1946L45.7763 13.2746C45.4563 12.6133 44.9656 12.0906 44.3043 11.7066C43.6643 11.3226 42.9389 11.1306 42.1283 11.1306C40.8909 11.1306 39.8669 11.5466 39.0563 12.3786C38.2456 13.1893 37.8403 14.2346 37.8403 15.5146C37.8403 16.7733 38.2456 17.8186 39.0563 18.6506C39.8669 19.4613 40.8909 19.8666 42.1283 19.8666C42.9603 19.8666 43.6963 19.6853 44.3363 19.3226C44.9976 18.9386 45.4883 18.416 45.8083 17.7546L49.3923 19.8026C48.6883 21.0613 47.6963 22.0746 46.4163 22.8426C45.1363 23.5893 43.7176 23.9626 42.1603 23.9626ZM60.4715 7.06665C62.2208 7.06665 63.6608 7.65331 64.7915 8.82665C65.9435 9.99998 66.5195 11.6213 66.5195 13.6906V23.5146H62.3915V14.2026C62.3915 13.136 62.1035 12.3253 61.5275 11.7706C60.9515 11.1946 60.1835 10.9066 59.2235 10.9066C58.1568 10.9066 57.3035 11.2373 56.6635 11.8986C56.0235 12.56 55.7035 13.552 55.7035 14.8746V23.5146H51.5755V1.11465H55.7035V9.30665C56.7062 7.81331 58.2955 7.06665 60.4715 7.06665ZM74.1723 10.2666C74.5563 9.24265 75.1856 8.47465 76.0603 7.96265C76.9563 7.45065 77.9483 7.19465 79.0363 7.19465V11.8026C77.7776 11.6533 76.6469 11.9093 75.6443 12.5706C74.6629 13.232 74.1723 14.3306 74.1723 15.8666V23.5146H70.0443V7.51465H74.1723V10.2666ZM84.3448 17.2106C84.8994 19.216 86.4034 20.2186 88.8568 20.2186C90.4354 20.2186 91.6301 19.6853 92.4408 18.6186L95.7688 20.5386C94.1901 22.8213 91.8648 23.9626 88.7928 23.9626C86.1474 23.9626 84.0248 23.1626 82.4248 21.5626C80.8248 19.9626 80.0247 17.9466 80.0247 15.5146C80.0247 13.104 80.8141 11.0986 82.3928 9.49865C83.9714 7.87731 85.9981 7.06665 88.4728 7.06665C90.8194 7.06665 92.7501 7.87731 94.2648 9.49865C95.8008 11.12 96.5688 13.1253 96.5688 15.5146C96.5688 16.048 96.5154 16.6133 96.4088 17.2106H84.3448ZM84.2808 14.0106H92.4408C92.2061 12.9226 91.7154 12.112 90.9688 11.5786C90.2434 11.0453 89.4114 10.7786 88.4728 10.7786C87.3634 10.7786 86.4461 11.0666 85.7208 11.6426C84.9954 12.1973 84.5154 12.9866 84.2808 14.0106ZM109.354 7.51465H113.898L107.818 23.5146H103.114L97.0335 7.51465H101.578L105.45 18.7146L109.354 7.51465ZM117.936 5.59465C117.253 5.59465 116.656 5.34932 116.144 4.85865C115.653 4.34665 115.408 3.74931 115.408 3.06665C115.408 2.38398 115.653 1.78665 116.144 1.27465C116.656 0.762647 117.253 0.506647 117.936 0.506647C118.64 0.506647 119.237 0.762647 119.728 1.27465C120.24 1.78665 120.496 2.38398 120.496 3.06665C120.496 3.74931 120.24 4.34665 119.728 4.85865C119.237 5.34932 118.64 5.59465 117.936 5.59465ZM115.888 23.5146V7.51465H120.016V23.5146H115.888ZM127.282 17.2106C127.837 19.216 129.341 20.2186 131.794 20.2186C133.373 20.2186 134.568 19.6853 135.378 18.6186L138.706 20.5386C137.128 22.8213 134.802 23.9626 131.73 23.9626C129.085 23.9626 126.962 23.1626 125.362 21.5626C123.762 19.9626 122.962 17.9466 122.962 15.5146C122.962 13.104 123.752 11.0986 125.33 9.49865C126.909 7.87731 128.936 7.06665 131.41 7.06665C133.757 7.06665 135.688 7.87731 137.202 9.49865C138.738 11.12 139.506 13.1253 139.506 15.5146C139.506 16.048 139.453 16.6133 139.346 17.2106H127.282ZM127.218 14.0106H135.378C135.144 12.9226 134.653 12.112 133.906 11.5786C133.181 11.0453 132.349 10.7786 131.41 10.7786C130.301 10.7786 129.384 11.0666 128.658 11.6426C127.933 12.1973 127.453 12.9866 127.218 14.0106ZM159.779 7.51465H164.163L159.075 23.5146H155.139L152.195 13.8186L149.251 23.5146H145.315L140.227 7.51465H144.611L147.331 17.3386L150.243 7.51465H154.147L157.059 17.3706L159.779 7.51465ZM169.251 17.2106C169.806 19.216 171.31 20.2186 173.763 20.2186C175.342 20.2186 176.536 19.6853 177.347 18.6186L180.675 20.5386C179.096 22.8213 176.771 23.9626 173.699 23.9626C171.054 23.9626 168.931 23.1626 167.331 21.5626C165.731 19.9626 164.931 17.9466 164.931 15.5146C164.931 13.104 165.72 11.0986 167.299 9.49865C168.878 7.87731 170.904 7.06665 173.379 7.06665C175.726 7.06665 177.656 7.87731 179.171 9.49865C180.707 11.12 181.475 13.1253 181.475 15.5146C181.475 16.048 181.422 16.6133 181.315 17.2106H169.251ZM169.187 14.0106H177.347C177.112 12.9226 176.622 12.112 175.875 11.5786C175.15 11.0453 174.318 10.7786 173.379 10.7786C172.27 10.7786 171.352 11.0666 170.627 11.6426C169.902 12.1973 169.422 12.9866 169.187 14.0106ZM188.485 10.2666C188.869 9.24265 189.498 8.47465 190.373 7.96265C191.269 7.45065 192.261 7.19465 193.349 7.19465V11.8026C192.09 11.6533 190.959 11.9093 189.957 12.5706C188.975 13.232 188.485 14.3306 188.485 15.8666V23.5146H184.357V7.51465H188.485V10.2666ZM197.802 23.1306C197.268 23.664 196.628 23.9306 195.882 23.9306C195.135 23.9306 194.495 23.664 193.962 23.1306C193.428 22.5973 193.162 21.9573 193.162 21.2106C193.162 20.464 193.428 19.824 193.962 19.2906C194.495 18.7573 195.135 18.4906 195.882 18.4906C196.628 18.4906 197.268 18.7573 197.802 19.2906C198.335 19.824 198.602 20.464 198.602 21.2106C198.602 21.9573 198.335 22.5973 197.802 23.1306ZM208.379 23.9626C205.968 23.9626 203.952 23.152 202.331 21.5306C200.731 19.9093 199.931 17.904 199.931 15.5146C199.931 13.1253 200.731 11.12 202.331 9.49865C203.952 7.87731 205.968 7.06665 208.379 7.06665C209.936 7.06665 211.355 7.43998 212.635 8.18665C213.915 8.93331 214.886 9.93598 215.547 11.1946L211.995 13.2746C211.675 12.6133 211.184 12.0906 210.523 11.7066C209.883 11.3226 209.158 11.1306 208.347 11.1306C207.11 11.1306 206.086 11.5466 205.275 12.3786C204.464 13.1893 204.059 14.2346 204.059 15.5146C204.059 16.7733 204.464 17.8186 205.275 18.6506C206.086 19.4613 207.11 19.8666 208.347 19.8666C209.179 19.8666 209.915 19.6853 210.555 19.3226C211.216 18.9386 211.707 18.416 212.027 17.7546L215.611 19.8026C214.907 21.0613 213.915 22.0746 212.635 22.8426C211.355 23.5893 209.936 23.9626 208.379 23.9626ZM231.176 21.5306C229.534 23.152 227.528 23.9626 225.16 23.9626C222.792 23.9626 220.787 23.152 219.144 21.5306C217.523 19.888 216.712 17.8826 216.712 15.5146C216.712 13.1466 217.523 11.152 219.144 9.53065C220.787 7.88798 222.792 7.06665 225.16 7.06665C227.528 7.06665 229.534 7.88798 231.176 9.53065C232.819 11.152 233.64 13.1466 233.64 15.5146C233.64 17.8826 232.819 19.888 231.176 21.5306ZM222.056 18.6826C222.888 19.5146 223.923 19.9306 225.16 19.9306C226.398 19.9306 227.432 19.5146 228.264 18.6826C229.096 17.8506 229.512 16.7946 229.512 15.5146C229.512 14.2346 229.096 13.1786 228.264 12.3466C227.432 11.5146 226.398 11.0986 225.16 11.0986C223.923 11.0986 222.888 11.5146 222.056 12.3466C221.246 13.1786 220.84 14.2346 220.84 15.5146C220.84 16.7946 221.246 17.8506 222.056 18.6826Z" fill="#050505" fill-opacity="0.7"/>
</svg>
