<svg xmlns="http://www.w3.org/2000/svg" xmlns:xlink="http://www.w3.org/1999/xlink" width="78" height="78" viewBox="0 0 78 78">
  <defs>
    <linearGradient id="linear-gradient" x1="0.5" x2="0.5" y2="1" gradientUnits="objectBoundingBox">
      <stop offset="0" stop-color="#fea642"/>
      <stop offset="1" stop-color="#f29123"/>
    </linearGradient>
    <filter id="Icon_awesome-pencil-ruler" x="15.762" y="18.762" width="46.477" height="46.476" filterUnits="userSpaceOnUse">
      <feOffset dy="3" input="SourceAlpha"/>
      <feGaussianBlur stdDeviation="3" result="blur"/>
      <feFlood flood-opacity="0.161"/>
      <feComposite operator="in" in2="blur"/>
      <feComposite in="SourceGraphic"/>
    </filter>
  </defs>
  <g id="ui_ux" data-name="ui/ux" transform="translate(-661.432 -5376.623)">
    <circle id="Ellipse_77" data-name="Ellipse 77" cx="39" cy="39" r="39" transform="translate(661.432 5376.623)" fill="#fff"/>
    <circle id="Ellipse_93" data-name="Ellipse 93" cx="32" cy="32" r="32" transform="translate(668.432 5383.623)" fill="url(#linear-gradient)"/>
    <g transform="matrix(1, 0, 0, 1, 661.43, 5376.62)" filter="url(#Icon_awesome-pencil-ruler)">
      <path id="Icon_awesome-pencil-ruler-2" data-name="Icon awesome-pencil-ruler" d="M6.088,13.573l7.485-7.484L11.119,3.635l-3.43,3.43a.44.44,0,0,1-.623,0l-.623-.623a.44.44,0,0,1,0-.623l3.43-3.43L8,.517a1.764,1.764,0,0,0-2.495,0L.517,5.506A1.764,1.764,0,0,0,.517,8l5.571,5.572Zm21.605-6.5a2.672,2.672,0,0,0,0-3.778L25.177.782a2.673,2.673,0,0,0-3.779,0L18.838,3.341l6.3,6.3ZM17.579,4.6,1.061,21.116.018,27.091a1.181,1.181,0,0,0,1.368,1.366L7.361,27.41,23.875,10.9Zm10.38,15.875L26.088,18.6l-3.43,3.43a.44.44,0,0,1-.623,0l-.623-.623a.441.441,0,0,1,0-.623l3.43-3.43L22.386,14.9,14.9,22.386l5.573,5.573a1.764,1.764,0,0,0,2.495,0l4.989-4.989A1.764,1.764,0,0,0,27.959,20.475Z" transform="translate(24.76 24.76)" fill="#fff"/>
    </g>
  </g>
</svg>
