<svg width="21" height="23" viewBox="0 0 21 23" fill="none" xmlns="http://www.w3.org/2000/svg">
<path fill-rule="evenodd" clip-rule="evenodd" d="M20.5 7.62354H0.5V6.12354H20.5V7.62354Z" fill="#5C3EB3"/>
<rect x="0.75" y="1.65869" width="19.5" height="20.4209" rx="2.25" stroke="#5C3EB3" stroke-width="1.5"/>
<circle cx="3.56565" cy="4.4094" r="0.635967" fill="#5C3EB3"/>
<circle cx="5.89769" cy="4.4094" r="0.635967" fill="#5C3EB3"/>
<circle cx="8.22972" cy="4.4094" r="0.635967" fill="#5C3EB3"/>
<path fill-rule="evenodd" clip-rule="evenodd" d="M7.83192 11.1494C8.12481 11.4423 8.12481 11.9171 7.83192 12.21L5.63097 14.411L7.83192 16.6119C8.12481 16.9048 8.12481 17.3797 7.83192 17.6726C7.53903 17.9655 7.06415 17.9655 6.77126 17.6726L4.03998 14.9413C3.89933 14.8006 3.82031 14.6099 3.82031 14.411C3.82031 14.2121 3.89933 14.0213 4.03998 13.8806L6.77126 11.1494C7.06415 10.8565 7.53903 10.8565 7.83192 11.1494Z" fill="#5C3EB3"/>
<path fill-rule="evenodd" clip-rule="evenodd" d="M13.6265 11.1488C13.9197 10.8562 14.3946 10.8567 14.6872 11.1499L17.4124 13.8812C17.7045 14.174 17.7045 14.6479 17.4124 14.9407L14.6872 17.672C14.3946 17.9652 13.9197 17.9657 13.6265 17.6732C13.3333 17.3806 13.3328 16.9057 13.6253 16.6125L15.822 14.411L13.6253 12.2094C13.3328 11.9162 13.3333 11.4413 13.6265 11.1488Z" fill="#5C3EB3"/>
<path fill-rule="evenodd" clip-rule="evenodd" d="M12.1122 10.0923C12.5003 10.2369 12.6978 10.6688 12.5532 11.0569L9.85928 18.2893C9.7147 18.6775 9.28283 18.8749 8.89466 18.7304C8.5065 18.5858 8.30904 18.1539 8.45363 17.7657L11.1475 10.5333C11.2921 10.1452 11.724 9.94772 12.1122 10.0923Z" fill="#5C3EB3"/>
</svg>
