<svg width="376" height="177" viewBox="0 0 376 177" fill="none" xmlns="http://www.w3.org/2000/svg">
<rect x="0.5" y="0.958008" width="375" height="176" fill="url(#paint0_linear_60_1263)"/>
<path d="M22.7731 46.742L18.1001 42.069L22.7732 37.3656" stroke="white" stroke-width="2" stroke-linecap="round" stroke-linejoin="round"/>
<path d="M18.396 41.8461H33.0942" stroke="white" stroke-width="2" stroke-linecap="round"/>
<path d="M315.513 103.642L375.5 176.958H0.5L315.513 103.642Z" fill="white" fill-opacity="0.28"/>
<path d="M60.4868 74.2745L0.5 0.958008H375.5L60.4868 74.2745Z" fill="white" fill-opacity="0.28"/>
<path d="M52.5165 48.1349H57.5565C61.4165 48.1349 63.2365 46.1949 63.2365 41.1349C63.2365 36.0749 61.4165 34.1349 57.5565 34.1349H52.5165V48.1349ZM55.2365 45.7349V36.5349H57.5565C59.5365 36.5349 60.4965 37.4749 60.4965 41.1349C60.4965 44.7949 59.5365 45.7349 57.5565 45.7349H55.2365ZM65.4205 36.5349H67.9405V34.1549H65.4205V36.5349ZM65.4205 48.1349H67.9405V37.9349H65.4205V48.1349ZM75.3349 48.3349C76.4749 48.3349 77.6749 48.0749 78.2749 47.8749L78.6549 45.5949C77.9949 45.8349 76.6149 46.1349 75.3949 46.1349C73.4349 46.1349 72.6749 45.3349 72.6149 43.8349H79.1949V43.0549C79.1949 39.2549 77.5749 37.7349 74.6949 37.7349C71.6749 37.7349 70.0949 39.5749 70.0949 43.0349C70.0949 46.4549 71.5749 48.3349 75.3349 48.3349ZM72.6149 42.1149C72.7149 40.5949 73.4549 39.8149 74.7149 39.8149C75.9349 39.8149 76.7149 40.4749 76.7949 42.1149H72.6149ZM85.8427 46.1149C84.8027 46.1149 84.2827 45.6349 84.2827 44.1149V40.0149H87.5227V37.9349H84.2827V35.3549L81.7627 35.9349V37.9349H80.1627V40.0149H81.7627V44.1149C81.7627 47.0549 83.1427 48.3349 85.4027 48.3349C86.3427 48.3349 87.0627 48.1149 87.3427 47.9349L87.7227 45.7749C87.3427 45.9149 86.5627 46.1149 85.8427 46.1149Z" fill="white"/>
<path d="M19.9741 141.885H21.8461V136.449H27.5521V134.793H21.8461V130.941H28.2541L28.1461 129.285H19.9741V141.885ZM30.076 131.409H31.804V129.447H30.076V131.409ZM30.076 141.885H31.804V132.759H30.076V141.885ZM34.5404 141.885H36.2684V136.593C36.2684 134.883 37.1504 134.109 38.5724 134.109C39.3284 134.109 39.9404 134.343 40.1744 134.487L40.0664 132.831C39.8684 132.723 39.3824 132.597 38.8244 132.597C37.6184 132.597 36.8264 133.029 36.2684 133.965L35.9984 132.759H34.5404V141.885ZM44.5019 142.083C47.0939 142.083 48.2279 141.057 48.2279 139.347C48.2279 137.835 47.5439 137.061 45.7259 136.683L44.2499 136.395C43.2059 136.197 42.8639 135.873 42.8639 135.225C42.8639 134.541 43.4219 134.091 45.0419 134.091C46.2659 134.091 47.2919 134.379 47.7419 134.595L47.6339 133.011C47.1479 132.849 46.0679 132.597 44.8619 132.597C42.3239 132.597 41.1899 133.623 41.1899 135.279C41.1899 136.719 41.8559 137.511 43.6199 137.871L45.1319 138.177C46.2299 138.393 46.5179 138.699 46.5179 139.383C46.5179 140.103 45.9599 140.589 44.3759 140.589C43.0439 140.589 41.7659 140.247 41.1899 139.995L41.4599 141.579C42.0179 141.795 43.2059 142.083 44.5019 142.083ZM54.0721 140.535C52.9921 140.535 52.4161 140.031 52.4161 138.537V134.217H55.6201V132.759H52.4161V130.563L50.6881 130.959V132.759H49.1941V134.217H50.6881V138.537C50.6881 140.985 51.8761 142.065 53.7841 142.065C54.6121 142.065 55.2601 141.867 55.5121 141.705L55.7641 140.211C55.4581 140.337 54.7741 140.535 54.0721 140.535ZM69.219 129.285H60.093V130.977H63.729V141.885H65.583V130.977H69.219V129.285ZM69.6615 141.885H71.3895V136.593C71.3895 134.883 72.2715 134.109 73.6935 134.109C74.4495 134.109 75.0615 134.343 75.2955 134.487L75.1875 132.831C74.9895 132.723 74.5035 132.597 73.9455 132.597C72.7395 132.597 71.9475 133.029 71.3895 133.965L71.1195 132.759H69.6615V141.885ZM76.9393 131.409H78.6673V129.447H76.9393V131.409ZM76.9393 141.885H78.6673V132.759H76.9393V141.885ZM91.3217 132.597C89.9357 132.597 89.0177 133.101 88.3697 134.181C87.9377 133.137 87.0017 132.597 85.6877 132.597C84.3737 132.597 83.5997 133.119 83.1317 133.983L82.8617 132.759H81.4037V141.885H83.1317V136.665C83.1317 134.991 83.7077 134.145 85.1837 134.145C86.5877 134.145 87.1457 134.991 87.1457 136.665V141.885H88.8737V136.665C88.8737 134.991 89.4677 134.145 90.9437 134.145C92.3297 134.145 92.8877 134.991 92.8877 136.665V141.885H94.6157V136.287C94.6157 134.019 93.5357 132.597 91.3217 132.597ZM101.256 142.065C102.336 142.065 103.362 141.831 103.848 141.669L104.118 140.085C103.578 140.283 102.426 140.553 101.31 140.553C99.204 140.553 98.448 139.617 98.412 137.889H104.64V137.313C104.64 133.965 103.2 132.597 100.716 132.597C98.07 132.597 96.666 134.235 96.666 137.295C96.666 140.391 97.944 142.065 101.256 142.065ZM98.412 136.665C98.466 134.937 99.294 134.037 100.716 134.037C102.066 134.037 102.93 134.793 102.984 136.665H98.412ZM109.523 142.083C112.115 142.083 113.249 141.057 113.249 139.347C113.249 137.835 112.565 137.061 110.747 136.683L109.271 136.395C108.227 136.197 107.885 135.873 107.885 135.225C107.885 134.541 108.443 134.091 110.063 134.091C111.287 134.091 112.313 134.379 112.763 134.595L112.655 133.011C112.169 132.849 111.089 132.597 109.883 132.597C107.345 132.597 106.211 133.623 106.211 135.279C106.211 136.719 106.877 137.511 108.641 137.871L110.153 138.177C111.251 138.393 111.539 138.699 111.539 139.383C111.539 140.103 110.981 140.589 109.397 140.589C108.065 140.589 106.787 140.247 106.211 139.995L106.481 141.579C107.039 141.795 108.227 142.083 109.523 142.083ZM119.094 140.535C118.014 140.535 117.438 140.031 117.438 138.537V134.217H120.642V132.759H117.438V130.563L115.71 130.959V132.759H114.216V134.217H115.71V138.537C115.71 140.985 116.898 142.065 118.806 142.065C119.634 142.065 120.282 141.867 120.534 141.705L120.786 140.211C120.48 140.337 119.796 140.535 119.094 140.535ZM126.393 142.065C127.473 142.065 128.499 141.831 128.985 141.669L129.255 140.085C128.715 140.283 127.563 140.553 126.447 140.553C124.341 140.553 123.585 139.617 123.549 137.889H129.777V137.313C129.777 133.965 128.337 132.597 125.853 132.597C123.207 132.597 121.803 134.235 121.803 137.295C121.803 140.391 123.081 142.065 126.393 142.065ZM123.549 136.665C123.603 134.937 124.431 134.037 125.853 134.037C127.203 134.037 128.067 134.793 128.121 136.665H123.549ZM131.888 141.885H133.616V136.593C133.616 134.883 134.498 134.109 135.92 134.109C136.676 134.109 137.288 134.343 137.522 134.487L137.414 132.831C137.216 132.723 136.73 132.597 136.172 132.597C134.966 132.597 134.174 133.029 133.616 133.965L133.346 132.759H131.888V141.885Z" fill="white" fill-opacity="0.7"/>
<path d="M31.8883 108.652L30.2503 117.634L26.7403 108.652H26.4163L22.8703 117.616L21.2323 108.652H18.8023L21.3763 121.252H23.7343L26.5423 114.034L29.3503 121.252H31.7083L34.2643 108.652H31.8883ZM36.124 121.252H44.476L44.818 119.092H38.572V115.978H43.936V113.818H38.572V110.812H44.62L44.494 108.652H36.124V121.252ZM47.0225 121.252H55.3745L55.7165 119.092H49.4705V115.978H54.8345V113.818H49.4705V110.812H55.5185L55.3925 108.652H47.0225V121.252ZM65.2649 121.252H68.0909L63.6809 114.79L67.8029 108.652H65.0489L61.6289 113.854H60.3689V108.652H57.9209V121.252H60.3689V115.942H61.6289L65.2649 121.252ZM68.4581 117.04H73.2101V115.096H68.4581V117.04ZM79.148 108.382C76.43 108.382 74.81 110.128 74.81 112.666C74.81 115.474 76.556 116.806 78.698 116.806C79.958 116.806 80.93 116.338 81.47 115.87C81.128 118.48 79.832 119.434 78.068 119.434C77.114 119.434 76.268 119.146 75.89 118.93L76.214 121.216C76.592 121.342 77.42 121.522 78.284 121.522C81.74 121.522 83.936 119.236 83.936 114.412C83.936 110.326 82.19 108.382 79.148 108.382ZM77.222 112.666C77.222 111.298 77.96 110.488 79.148 110.488C80.516 110.488 81.452 111.478 81.542 113.98C81.02 114.376 80.21 114.736 79.22 114.736C77.942 114.736 77.222 113.962 77.222 112.666Z" fill="white"/>
<circle cx="350.556" cy="113.275" r="8.88334" stroke="white" stroke-width="1.5"/>
<path d="M349.802 110.211H351.314V108.783H349.802V110.211ZM349.802 117.171H351.314V111.051H349.802V117.171Z" fill="white"/>
<defs>
<linearGradient id="paint0_linear_60_1263" x1="188" y1="0.958008" x2="188" y2="176.958" gradientUnits="userSpaceOnUse">
<stop stop-color="#B777F6"/>
<stop offset="1" stop-color="#711BC8"/>
</linearGradient>
</defs>
</svg>
