<svg width="376" height="178" viewBox="0 0 376 178" fill="none" xmlns="http://www.w3.org/2000/svg">
<rect x="0.908203" y="0.847534" width="375" height="176" fill="url(#paint0_linear_183_2036)"/>
<path d="M18.3903 46.9538L13.7173 42.2808L18.3903 37.5773" stroke="white" stroke-width="2" stroke-linecap="round" stroke-linejoin="round"/>
<path d="M14.0137 42.0579H28.7119" stroke="white" stroke-width="2" stroke-linecap="round"/>
<path d="M56.5514 50.0579H67.6874L68.1434 47.1779H59.8154V43.0259H66.9674V40.1459H59.8154V36.1379H67.8794L67.7114 33.2579H56.5514V50.0579ZM81.2347 50.0579L77.1547 43.6739L80.9227 37.8179H77.5867L75.3547 41.5619L73.0987 37.8179H69.6187L73.4347 43.7699L69.3307 50.0579H72.6907L75.2347 45.9059L77.7547 50.0579H81.2347ZM88.2695 50.2979C89.6375 50.2979 91.0775 49.9859 91.7975 49.7459L92.2535 47.0099C91.4615 47.2979 89.8055 47.6579 88.3415 47.6579C85.9895 47.6579 85.0775 46.6979 85.0055 44.8979H92.9015V43.9619C92.9015 39.4019 90.9575 37.5779 87.5015 37.5779C83.8775 37.5779 81.9815 39.7859 81.9815 43.9379C81.9815 48.0419 83.7575 50.2979 88.2695 50.2979ZM85.0055 42.8339C85.1255 41.0099 86.0135 40.0739 87.5255 40.0739C88.9895 40.0739 89.9255 40.8659 90.0215 42.8339H85.0055ZM95.4504 50.0579H98.4744V42.9299C98.4744 41.0819 99.6024 40.2179 101.09 40.2179C102.098 40.2179 102.914 40.5539 103.25 40.7939L103.058 37.8899C102.794 37.7459 102.194 37.5779 101.546 37.5779C100.202 37.5779 99.3144 38.0579 98.4744 39.1379L97.9944 37.8179H95.4504V50.0579ZM109.887 50.2979C111.423 50.2979 112.623 49.9379 113.079 49.6739L113.559 46.8899C112.839 47.2259 111.423 47.6579 110.127 47.6579C108.183 47.6579 107.319 46.6259 107.319 43.9379C107.319 41.2499 108.183 40.2179 110.151 40.2179C111.303 40.2179 112.575 40.5779 113.223 40.8659L113.055 38.2019C112.599 37.9379 111.423 37.5779 109.911 37.5779C106.095 37.5779 104.247 39.6179 104.247 43.9379C104.247 48.2579 106.095 50.2979 109.887 50.2979ZM115.888 36.1379H118.912V33.2819H115.888V36.1379ZM115.888 50.0579H118.912V37.8179H115.888V50.0579ZM126.009 50.2979C129.633 50.2979 131.241 48.9059 131.241 46.4579C131.241 44.2979 130.329 43.2659 127.857 42.7619L126.009 42.4019C124.785 42.1619 124.497 41.8739 124.497 41.2499C124.497 40.6019 125.121 40.1939 127.065 40.1939C128.697 40.1939 130.041 40.5539 130.617 40.8179L130.449 38.1059C129.777 37.8899 128.313 37.5779 126.729 37.5779C123.201 37.5779 121.569 38.9939 121.569 41.3459C121.569 43.3859 122.481 44.4659 124.881 44.9459L126.825 45.3299C128.049 45.5699 128.289 45.8579 128.289 46.5299C128.289 47.2019 127.665 47.7059 125.769 47.7059C124.041 47.7059 122.289 47.2499 121.473 46.8899L121.953 49.6499C122.721 49.9379 124.353 50.2979 126.009 50.2979ZM139.269 50.2979C140.637 50.2979 142.077 49.9859 142.797 49.7459L143.253 47.0099C142.461 47.2979 140.805 47.6579 139.341 47.6579C136.989 47.6579 136.077 46.6979 136.005 44.8979H143.901V43.9619C143.901 39.4019 141.957 37.5779 138.501 37.5779C134.877 37.5779 132.981 39.7859 132.981 43.9379C132.981 48.0419 134.757 50.2979 139.269 50.2979ZM136.005 42.8339C136.125 41.0099 137.013 40.0739 138.525 40.0739C139.989 40.0739 140.925 40.8659 141.021 42.8339H136.005Z" fill="white"/>
<path d="M55.5479 73.5463H57.1079V69.6463H59.5229C61.9979 69.6463 63.1829 68.4163 63.1829 66.3613C63.1829 64.2763 61.9979 63.0463 59.5229 63.0463H55.5479V73.5463ZM57.1079 68.3113V64.3813H59.5229C60.9329 64.3813 61.6229 65.1163 61.6229 66.3613C61.6229 67.5913 60.9329 68.3113 59.5229 68.3113H57.1079ZM64.7129 73.5463H66.1529V69.1363C66.1529 67.7113 66.8879 67.0663 68.0729 67.0663C68.7029 67.0663 69.2129 67.2613 69.4079 67.3813L69.3179 66.0013C69.1529 65.9113 68.7479 65.8063 68.2829 65.8063C67.2779 65.8063 66.6179 66.1663 66.1529 66.9463L65.9279 65.9413H64.7129V73.5463ZM73.4226 73.6963C75.7176 73.6963 76.7376 72.4813 76.7376 69.7513C76.7376 67.0213 75.7176 65.8063 73.4226 65.8063C71.1426 65.8063 70.1076 67.0213 70.1076 69.7513C70.1076 72.4813 71.1426 73.6963 73.4226 73.6963ZM73.4226 72.4363C72.1176 72.4363 71.5776 71.6713 71.5776 69.7513C71.5776 67.8313 72.1176 67.0663 73.4226 67.0663C74.7426 67.0663 75.2826 67.8313 75.2826 69.7513C75.2826 71.6713 74.7426 72.4363 73.4226 72.4363ZM86.8353 65.8063C85.6803 65.8063 84.9153 66.2263 84.3753 67.1263C84.0153 66.2563 83.2353 65.8063 82.1403 65.8063C81.0453 65.8063 80.4003 66.2413 80.0103 66.9613L79.7853 65.9413H78.5703V73.5463H80.0103V69.1963C80.0103 67.8013 80.4903 67.0963 81.7203 67.0963C82.8903 67.0963 83.3553 67.8013 83.3553 69.1963V73.5463H84.7953V69.1963C84.7953 67.8013 85.2903 67.0963 86.5203 67.0963C87.6753 67.0963 88.1403 67.8013 88.1403 69.1963V73.5463H89.5803V68.8813C89.5803 66.9913 88.6803 65.8063 86.8353 65.8063ZM94.6189 73.6963C96.9139 73.6963 97.9339 72.4813 97.9339 69.7513C97.9339 67.0213 96.9139 65.8063 94.6189 65.8063C92.3389 65.8063 91.3039 67.0213 91.3039 69.7513C91.3039 72.4813 92.3389 73.6963 94.6189 73.6963ZM94.6189 72.4363C93.3139 72.4363 92.7739 71.6713 92.7739 69.7513C92.7739 67.8313 93.3139 67.0663 94.6189 67.0663C95.9389 67.0663 96.4789 67.8313 96.4789 69.7513C96.4789 71.6713 95.9389 72.4363 94.6189 72.4363ZM102.874 72.4213C101.974 72.4213 101.494 72.0013 101.494 70.7563V67.1563H104.164V65.9413H101.494V64.1113L100.054 64.4413V65.9413H98.8091V67.1563H100.054V70.7563C100.054 72.7963 101.044 73.6963 102.634 73.6963C103.324 73.6963 103.864 73.5313 104.074 73.3963L104.284 72.1513C104.029 72.2563 103.459 72.4213 102.874 72.4213ZM108.957 73.6963C109.857 73.6963 110.712 73.5013 111.117 73.3663L111.342 72.0463C110.892 72.2113 109.932 72.4363 109.002 72.4363C107.247 72.4363 106.617 71.6563 106.587 70.2163H111.777V69.7363C111.777 66.9463 110.577 65.8063 108.507 65.8063C106.302 65.8063 105.132 67.1713 105.132 69.7213C105.132 72.3013 106.197 73.6963 108.957 73.6963ZM106.587 69.1963C106.632 67.7563 107.322 67.0063 108.507 67.0063C109.632 67.0063 110.352 67.6363 110.397 69.1963H106.587ZM125.287 65.8063C124.132 65.8063 123.367 66.2263 122.827 67.1263C122.467 66.2563 121.687 65.8063 120.592 65.8063C119.497 65.8063 118.852 66.2413 118.462 66.9613L118.237 65.9413H117.022V73.5463H118.462V69.1963C118.462 67.8013 118.942 67.0963 120.172 67.0963C121.342 67.0963 121.807 67.8013 121.807 69.1963V73.5463H123.247V69.1963C123.247 67.8013 123.742 67.0963 124.972 67.0963C126.127 67.0963 126.592 67.8013 126.592 69.1963V73.5463H128.032V68.8813C128.032 66.9913 127.132 65.8063 125.287 65.8063ZM132.921 73.6963C134.076 73.6963 134.766 73.2613 135.171 72.5413L135.411 73.5463H136.611V65.9413H135.171V70.2613C135.171 71.7013 134.661 72.4063 133.326 72.4063C132.066 72.4063 131.556 71.7013 131.556 70.2613V65.9413H130.116V70.5763C130.116 72.4963 131.031 73.6963 132.921 73.6963ZM141.188 73.7113C143.348 73.7113 144.293 72.8563 144.293 71.4313C144.293 70.1713 143.723 69.5263 142.208 69.2113L140.978 68.9713C140.108 68.8063 139.823 68.5363 139.823 67.9963C139.823 67.4263 140.288 67.0513 141.638 67.0513C142.658 67.0513 143.513 67.2913 143.888 67.4713L143.798 66.1513C143.393 66.0163 142.493 65.8063 141.488 65.8063C139.373 65.8063 138.428 66.6613 138.428 68.0413C138.428 69.2413 138.983 69.9013 140.453 70.2013L141.713 70.4563C142.628 70.6363 142.868 70.8913 142.868 71.4613C142.868 72.0613 142.403 72.4663 141.083 72.4663C139.973 72.4663 138.908 72.1813 138.428 71.9713L138.653 73.2913C139.118 73.4713 140.108 73.7113 141.188 73.7113ZM148.938 73.6963C149.898 73.6963 150.633 73.4713 150.918 73.3063L151.143 71.9713C150.738 72.1663 149.898 72.4363 149.058 72.4363C147.633 72.4363 146.973 71.6563 146.973 69.7513C146.973 67.8463 147.633 67.0663 149.103 67.0663C149.838 67.0663 150.603 67.2913 150.978 67.4713L150.903 66.1813C150.618 66.0313 149.883 65.8063 148.983 65.8063C146.628 65.8063 145.503 67.0663 145.503 69.7513C145.503 72.4213 146.628 73.6963 148.938 73.6963ZM152.765 73.5463H154.205V62.9113L152.765 63.1363V73.5463ZM159.845 73.6963C160.745 73.6963 161.6 73.5013 162.005 73.3663L162.23 72.0463C161.78 72.2113 160.82 72.4363 159.89 72.4363C158.135 72.4363 157.505 71.6563 157.475 70.2163H162.665V69.7363C162.665 66.9463 161.465 65.8063 159.395 65.8063C157.19 65.8063 156.02 67.1713 156.02 69.7213C156.02 72.3013 157.085 73.6963 159.845 73.6963ZM157.475 69.1963C157.52 67.7563 158.21 67.0063 159.395 67.0063C160.52 67.0063 161.24 67.6363 161.285 69.1963H157.475ZM171.048 72.4213C170.148 72.4213 169.668 72.0013 169.668 70.7563V67.1563H172.338V65.9413H169.668V64.1113L168.228 64.4413V65.9413H166.983V67.1563H168.228V70.7563C168.228 72.7963 169.218 73.6963 170.808 73.6963C171.498 73.6963 172.038 73.5313 172.248 73.3963L172.458 72.1513C172.203 72.2563 171.633 72.4213 171.048 72.4213ZM176.636 73.6963C178.931 73.6963 179.951 72.4813 179.951 69.7513C179.951 67.0213 178.931 65.8063 176.636 65.8063C174.356 65.8063 173.321 67.0213 173.321 69.7513C173.321 72.4813 174.356 73.6963 176.636 73.6963ZM176.636 72.4363C175.331 72.4363 174.791 71.6713 174.791 69.7513C174.791 67.8313 175.331 67.0663 176.636 67.0663C177.956 67.0663 178.496 67.8313 178.496 69.7513C178.496 71.6713 177.956 72.4363 176.636 72.4363ZM181.783 73.5463H183.223V69.2413C183.223 67.8013 183.733 67.0963 185.068 67.0963C186.343 67.0963 186.838 67.8013 186.838 69.2413V73.5463H188.278V68.9263C188.278 67.0063 187.363 65.8063 185.473 65.8063C184.318 65.8063 183.628 66.2413 183.223 66.9613L182.998 65.9413H181.783V73.5463ZM193.815 73.6963C194.715 73.6963 195.57 73.5013 195.975 73.3663L196.2 72.0463C195.75 72.2113 194.79 72.4363 193.86 72.4363C192.105 72.4363 191.475 71.6563 191.445 70.2163H196.635V69.7363C196.635 66.9463 195.435 65.8063 193.365 65.8063C191.16 65.8063 189.99 67.1713 189.99 69.7213C189.99 72.3013 191.055 73.6963 193.815 73.6963ZM191.445 69.1963C191.49 67.7563 192.18 67.0063 193.365 67.0063C194.49 67.0063 195.21 67.6363 195.255 69.1963H191.445ZM197.691 75.5263H198.516L200.046 71.6713H198.291L197.691 75.5263ZM207.838 73.7113C209.998 73.7113 210.943 72.8563 210.943 71.4313C210.943 70.1713 210.373 69.5263 208.858 69.2113L207.628 68.9713C206.758 68.8063 206.473 68.5363 206.473 67.9963C206.473 67.4263 206.938 67.0513 208.288 67.0513C209.308 67.0513 210.163 67.2913 210.538 67.4713L210.448 66.1513C210.043 66.0163 209.143 65.8063 208.138 65.8063C206.023 65.8063 205.078 66.6613 205.078 68.0413C205.078 69.2413 205.633 69.9013 207.103 70.2013L208.363 70.4563C209.278 70.6363 209.518 70.8913 209.518 71.4613C209.518 72.0613 209.053 72.4663 207.733 72.4663C206.623 72.4663 205.558 72.1813 205.078 71.9713L205.303 73.2913C205.768 73.4713 206.758 73.7113 207.838 73.7113ZM215.814 72.4213C214.914 72.4213 214.434 72.0013 214.434 70.7563V67.1563H217.104V65.9413H214.434V64.1113L212.994 64.4413V65.9413H211.749V67.1563H212.994V70.7563C212.994 72.7963 213.984 73.6963 215.574 73.6963C216.264 73.6963 216.804 73.5313 217.014 73.3963L217.224 72.1513C216.969 72.2563 216.399 72.4213 215.814 72.4213ZM218.624 73.5463H220.064V69.1363C220.064 67.7113 220.799 67.0663 221.984 67.0663C222.614 67.0663 223.124 67.2613 223.319 67.3813L223.229 66.0013C223.064 65.9113 222.659 65.8063 222.194 65.8063C221.189 65.8063 220.529 66.1663 220.064 66.9463L219.839 65.9413H218.624V73.5463ZM227.829 73.6963C228.729 73.6963 229.584 73.5013 229.989 73.3663L230.214 72.0463C229.764 72.2113 228.804 72.4363 227.874 72.4363C226.119 72.4363 225.489 71.6563 225.459 70.2163H230.649V69.7363C230.649 66.9463 229.449 65.8063 227.379 65.8063C225.174 65.8063 224.004 67.1713 224.004 69.7213C224.004 72.3013 225.069 73.6963 227.829 73.6963ZM225.459 69.1963C225.504 67.7563 226.194 67.0063 227.379 67.0063C228.504 67.0063 229.224 67.6363 229.269 69.1963H225.459ZM232.408 73.5463H233.848V69.2413C233.848 67.8013 234.358 67.0963 235.693 67.0963C236.968 67.0963 237.463 67.8013 237.463 69.2413V73.5463H238.903V68.9263C238.903 67.0063 237.988 65.8063 236.098 65.8063C234.943 65.8063 234.253 66.2413 233.848 66.9613L233.623 65.9413H232.408V73.5463ZM243.57 76.5463C246.06 76.5463 247.275 75.3163 247.275 72.7663V65.9413H246.045L245.835 66.9613C245.685 66.6163 245.04 65.8063 243.57 65.8063C241.575 65.8063 240.645 66.9913 240.645 69.7513C240.645 72.4363 241.575 73.5913 243.57 73.5913C245.025 73.5913 245.685 72.8863 245.835 72.5263V72.8413C245.805 74.5963 245.055 75.2863 243.45 75.2863C242.55 75.2863 241.68 75.0163 241.26 74.8213L241.47 76.1863C241.86 76.3363 242.685 76.5463 243.57 76.5463ZM243.975 72.3313C242.655 72.3313 242.115 71.5963 242.115 69.7513C242.115 67.8313 242.655 67.0663 243.975 67.0663C245.28 67.0663 245.835 67.8313 245.835 69.7513C245.835 71.5963 245.28 72.3313 243.975 72.3313ZM252.757 72.4213C251.857 72.4213 251.377 72.0013 251.377 70.7563V67.1563H254.047V65.9413H251.377V64.1113L249.937 64.4413V65.9413H248.692V67.1563H249.937V70.7563C249.937 72.7963 250.927 73.6963 252.517 73.6963C253.207 73.6963 253.747 73.5313 253.957 73.3963L254.167 72.1513C253.912 72.2563 253.342 72.4213 252.757 72.4213ZM259.302 65.8063C258.132 65.8063 257.442 66.2263 257.007 66.9313V62.9113L255.567 63.1363V73.5463H257.007V69.2263C257.007 67.8463 257.487 67.0963 258.882 67.0963C260.157 67.0963 260.622 67.8463 260.622 69.2263V73.5463H262.062V68.8963C262.062 67.0663 261.192 65.8063 259.302 65.8063ZM57.2729 92.6963C58.5329 92.6963 59.2679 92.2613 59.6129 91.5263L59.8379 92.5463H61.0529V87.7313C61.0529 85.8863 60.1679 84.8513 57.9929 84.8513C56.9879 84.8513 56.0279 85.0013 55.5779 85.1063L55.3529 86.4113C55.8479 86.2763 56.8379 86.1113 57.7379 86.1113C59.1479 86.1113 59.6129 86.6213 59.6129 87.7313V88.1513H57.4079C55.6529 88.1513 54.7379 88.9763 54.7379 90.3413C54.7379 91.7813 55.6079 92.6963 57.2729 92.6963ZM57.5879 91.5563C56.6129 91.5563 56.1779 91.1063 56.1779 90.3413C56.1779 89.5913 56.6129 89.1713 57.6479 89.1713H59.6129V89.6963C59.6129 91.0313 58.8929 91.5563 57.5879 91.5563ZM63.2334 92.5463H64.6734V88.2413C64.6734 86.8013 65.1834 86.0963 66.5184 86.0963C67.7934 86.0963 68.2884 86.8013 68.2884 88.2413V92.5463H69.7284V87.9263C69.7284 86.0063 68.8134 84.8063 66.9234 84.8063C65.7684 84.8063 65.0784 85.2413 64.6734 85.9613L64.4484 84.9413H63.2334V92.5463ZM76.6603 82.1363V85.9613C76.5103 85.6163 75.8653 84.8063 74.3953 84.8063C72.4003 84.8063 71.4703 85.9913 71.4703 88.7513C71.4703 91.5113 72.4003 92.6963 74.3953 92.6963C75.8653 92.6963 76.5103 91.8863 76.6603 91.5413L76.8703 92.5463H78.1003V81.9113L76.6603 82.1363ZM74.8003 91.4363C73.4803 91.4363 72.9403 90.6713 72.9403 88.7513C72.9403 86.8313 73.4803 86.0663 74.8003 86.0663C76.1053 86.0663 76.6603 86.8313 76.6603 88.7513C76.6603 90.6713 76.1053 91.4363 74.8003 91.4363ZM87.2184 92.6963C88.1184 92.6963 88.9734 92.5013 89.3784 92.3663L89.6034 91.0463C89.1534 91.2113 88.1934 91.4363 87.2634 91.4363C85.5084 91.4363 84.8784 90.6563 84.8484 89.2163H90.0384V88.7363C90.0384 85.9463 88.8384 84.8063 86.7684 84.8063C84.5634 84.8063 83.3934 86.1713 83.3934 88.7213C83.3934 91.3013 84.4584 92.6963 87.2184 92.6963ZM84.8484 88.1963C84.8934 86.7563 85.5834 86.0063 86.7684 86.0063C87.8934 86.0063 88.6134 86.6363 88.6584 88.1963H84.8484ZM91.7979 92.5463H93.2379V88.2413C93.2379 86.8013 93.7479 86.0963 95.0829 86.0963C96.3579 86.0963 96.8529 86.8013 96.8529 88.2413V92.5463H98.2929V87.9263C98.2929 86.0063 97.3779 84.8063 95.4879 84.8063C94.3329 84.8063 93.6429 85.2413 93.2379 85.9613L93.0129 84.9413H91.7979V92.5463ZM105.225 82.1363V85.9613C105.075 85.6163 104.43 84.8063 102.96 84.8063C100.965 84.8063 100.035 85.9913 100.035 88.7513C100.035 91.5113 100.965 92.6963 102.96 92.6963C104.43 92.6963 105.075 91.8863 105.225 91.5413L105.435 92.5463H106.665V81.9113L105.225 82.1363ZM103.365 91.4363C102.045 91.4363 101.505 90.6713 101.505 88.7513C101.505 86.8313 102.045 86.0663 103.365 86.0663C104.67 86.0663 105.225 86.8313 105.225 88.7513C105.225 90.6713 104.67 91.4363 103.365 91.4363ZM111.652 92.6963C112.807 92.6963 113.497 92.2613 113.902 91.5413L114.142 92.5463H115.342V84.9413H113.902V89.2613C113.902 90.7013 113.392 91.4063 112.057 91.4063C110.797 91.4063 110.287 90.7013 110.287 89.2613V84.9413H108.847V89.5763C108.847 91.4963 109.762 92.6963 111.652 92.6963ZM117.608 92.5463H119.048V88.1363C119.048 86.7113 119.783 86.0663 120.968 86.0663C121.598 86.0663 122.108 86.2613 122.303 86.3813L122.213 85.0013C122.048 84.9113 121.643 84.8063 121.178 84.8063C120.173 84.8063 119.513 85.1663 119.048 85.9463L118.823 84.9413H117.608V92.5463ZM125.388 92.6963C126.648 92.6963 127.383 92.2613 127.728 91.5263L127.953 92.5463H129.168V87.7313C129.168 85.8863 128.283 84.8513 126.108 84.8513C125.103 84.8513 124.143 85.0013 123.693 85.1063L123.468 86.4113C123.963 86.2763 124.953 86.1113 125.853 86.1113C127.263 86.1113 127.728 86.6213 127.728 87.7313V88.1513H125.523C123.768 88.1513 122.853 88.9763 122.853 90.3413C122.853 91.7813 123.723 92.6963 125.388 92.6963ZM125.703 91.5563C124.728 91.5563 124.293 91.1063 124.293 90.3413C124.293 89.5913 124.728 89.1713 125.763 89.1713H127.728V89.6963C127.728 91.0313 127.008 91.5563 125.703 91.5563ZM131.349 92.5463H132.789V88.2413C132.789 86.8013 133.299 86.0963 134.634 86.0963C135.909 86.0963 136.404 86.8013 136.404 88.2413V92.5463H137.844V87.9263C137.844 86.0063 136.929 84.8063 135.039 84.8063C133.884 84.8063 133.194 85.2413 132.789 85.9613L132.564 84.9413H131.349V92.5463ZM142.991 92.6963C143.951 92.6963 144.686 92.4713 144.971 92.3063L145.196 90.9713C144.791 91.1663 143.951 91.4363 143.111 91.4363C141.686 91.4363 141.026 90.6563 141.026 88.7513C141.026 86.8463 141.686 86.0663 143.156 86.0663C143.891 86.0663 144.656 86.2913 145.031 86.4713L144.956 85.1813C144.671 85.0313 143.936 84.8063 143.036 84.8063C140.681 84.8063 139.556 86.0663 139.556 88.7513C139.556 91.4213 140.681 92.6963 142.991 92.6963ZM150.148 92.6963C151.048 92.6963 151.903 92.5013 152.308 92.3663L152.533 91.0463C152.083 91.2113 151.123 91.4363 150.193 91.4363C148.438 91.4363 147.808 90.6563 147.778 89.2163H152.968V88.7363C152.968 85.9463 151.768 84.8063 149.698 84.8063C147.493 84.8063 146.323 86.1713 146.323 88.7213C146.323 91.3013 147.388 92.6963 150.148 92.6963ZM147.778 88.1963C147.823 86.7563 148.513 86.0063 149.698 86.0063C150.823 86.0063 151.543 86.6363 151.588 88.1963H147.778Z" fill="white"/>
<path d="M315.921 103.531L375.908 176.848H0.908203L315.921 103.531Z" fill="white" fill-opacity="0.17"/>
<path d="M60.895 74.164L0.908203 0.847534H375.908L60.895 74.164Z" fill="white" fill-opacity="0.17"/>
<path d="M337.849 73.8639C337.499 72.5974 336.361 71.5869 335.058 71.3769C333.754 71.1669 332.352 71.7772 331.624 72.873" stroke="#0D0D0D" stroke-width="0.8" stroke-linecap="round" stroke-linejoin="round"/>
<path d="M328.365 136.902L274.329 131.37C266.834 136.751 259.332 142.125 251.836 147.506C246.478 151.351 243.123 158.989 245.651 165.059C248.178 171.122 255.6 174.705 261.971 172.933C273.509 175.643 287.137 175.335 299.555 174.908C302.796 169.56 306.441 164.061 309.69 158.72C315.134 158.563 320.156 156.056 323.715 151.968C327.274 147.88 329.007 142.283 328.372 136.915L328.365 136.902Z" fill="#FCF315"/>
<path d="M261.885 173.038C257.287 171.076 253.841 166.66 253.08 161.752C252.319 156.843 254.264 151.607 258.055 148.365C263.513 143.693 269.401 139.717 275.705 136.246C276.975 135.55 278.543 134.986 279.886 134.448" stroke="#2E1112" stroke-width="0.8" stroke-linecap="round" stroke-linejoin="round"/>
<path d="M273.707 132.066C274.309 133.424 275.123 134.684 276.102 135.806" stroke="#2E1112" stroke-width="0.8" stroke-linecap="round" stroke-linejoin="round"/>
<path d="M270.724 148.72C281.679 149.251 292.496 151.417 303.127 154.074" stroke="#2E1112" stroke-width="0.8" stroke-linecap="round" stroke-linejoin="round"/>
<path d="M350.336 105.287C349.701 100.005 347.392 95.1555 344.243 90.8575C343.958 91.6843 343.045 92.2486 342.172 92.137C341.299 92.0255 340.538 91.3102 340.472 90.4375C339.718 90.5359 338.977 90.8181 338.216 90.8903C333.803 91.3233 329.391 91.7564 324.978 92.183C322.504 91.5399 319.725 90.9428 317.185 91.2577C314.651 91.5727 312.15 92.5898 310.344 94.3877C308.538 96.1857 307.493 98.7973 307.89 101.304C301.996 98.1017 294.579 97.4127 288.209 99.5388C281.838 101.665 276.446 106.527 273.707 112.617C270.968 118.706 270.915 125.931 273.568 132.053L329.172 138.346C332.646 130.681 340.981 126.554 346.565 120.241C350.084 116.265 350.964 110.543 350.329 105.287H350.336Z" fill="white"/>
<path d="M329.708 92.0058C331.878 94.0662 334.723 95.4114 337.7 95.8051C340.677 96.1988 343.779 95.6279 346.412 94.1975" stroke="#2E1112" stroke-width="0.8" stroke-linecap="round" stroke-linejoin="round"/>
<path d="M307.5 100.995C313.533 103.673 318.515 108.62 321.201 114.611" stroke="#2E1112" stroke-width="0.8" stroke-linecap="round" stroke-linejoin="round"/>
<path d="M282.876 104.447C283.63 104.434 284.384 104.414 285.139 104.401" stroke="#2E1112" stroke-width="0.8" stroke-linecap="round" stroke-linejoin="round"/>
<path d="M349.249 87.9785C350.883 88.5428 352.127 90.0914 352.305 91.8041" stroke="#0D0D0D" stroke-width="0.8" stroke-linecap="round" stroke-linejoin="round"/>
<path d="M355.639 100.367C355.242 99.0352 354.329 97.9197 353.099 97.2504C353.536 96.5023 353.641 95.564 353.377 94.7372C353.112 93.9104 352.437 93.2936 351.643 92.9327C351.901 91.0494 351.048 89.1202 349.434 88.1032C350.79 85.8721 351.075 83.0309 350.188 80.5833C349.302 78.1292 347.29 75.9703 344.816 75.0976C344.36 74.0936 343.308 73.3849 342.196 73.339C341.085 73.2865 339.974 73.8968 339.424 74.8548C338.875 75.8128 338.915 77.0727 339.53 77.9914L343.744 87.4667C344.022 90.4523 346.199 93.333 349.03 94.3828C348.832 95.144 348.958 95.9839 349.368 96.6598C349.785 97.3357 350.605 97.9984 351.379 98.169C351.643 99.4355 352.246 100.63 353.106 101.594C353.377 101.896 353.681 102.185 354.058 102.349C354.435 102.513 354.892 102.533 355.236 102.316C355.54 102.126 355.719 101.778 355.772 101.424C355.818 101.069 355.752 100.708 355.653 100.367H355.639Z" fill="#0D0D0D"/>
<path d="M347.257 83.8839C346.55 83.1096 345.365 82.8471 344.36 83.1424C343.645 82.5912 343.592 81.4888 344.082 80.7342C343.414 80.5308 342.858 80.019 342.607 79.3759C342.355 78.7328 342.541 77.6829 342.891 77.0858C341.839 76.8233 340.701 76.9218 339.709 77.368C338.717 77.8076 337.903 78.6082 337.4 79.5662C336.362 79.8877 335.33 80.2093 334.291 80.5308C334.741 80.9967 335.177 81.4757 335.627 81.9416C334.814 82.8996 334.509 84.4023 334.866 85.6097C335.217 86.817 336.203 87.821 337.407 88.2016C337.308 89.1924 337.142 90.2161 337.043 91.2069C335.197 91.4366 333.265 91.7515 331.413 91.9812C333.365 93.4445 335.766 94.3632 338.201 94.6059C340.635 94.8487 343.136 94.4156 345.339 93.3658L345.359 88.5625C346.411 88.4903 347.383 87.7816 347.78 86.817C348.17 85.8524 347.959 84.6713 347.251 83.897L347.257 83.8839Z" fill="#FE818B"/>
<path d="M338.592 80.4717C338.691 80.813 338.936 81.1082 339.26 81.2657C339.584 81.4232 339.968 81.4363 340.305 81.3051" stroke="#2E1112" stroke-width="0.8" stroke-linecap="round" stroke-linejoin="round"/>
<path d="M336.468 83.0309C336.679 83.4246 337.281 83.5493 337.632 83.2671" stroke="#2E1112" stroke-width="0.8" stroke-linecap="round" stroke-linejoin="round"/>
<path d="M340.583 77.9454C341.238 77.9979 341.84 78.4769 342.025 79.1069" stroke="#2E1112" stroke-width="0.8" stroke-linecap="round" stroke-linejoin="round"/>
<path d="M344.744 84.8748L346.279 84.9338" stroke="#2E1112" stroke-width="0.8" stroke-linecap="round" stroke-linejoin="round"/>
<path d="M345.591 88.7069C344.744 88.8775 343.851 88.7988 343.044 88.4904" stroke="#2E1112" stroke-width="0.8" stroke-linecap="round" stroke-linejoin="round"/>
<path d="M337.314 88.1885C337.744 88.3263 338.174 88.4575 338.604 88.5953" stroke="#2E1112" stroke-width="0.8" stroke-linecap="round" stroke-linejoin="round"/>
<path d="M336.635 170.643C336.039 169.285 334.094 168.51 332.731 169.114C333.347 168.038 332.923 166.502 331.838 165.892C330.753 165.275 329.424 165.61 328.802 166.68C328.842 165.82 328.187 164.974 327.333 164.803C326.48 164.626 325.957 165 325.646 165.8C322.279 162.395 319.123 159.009 315.815 155.61C314.75 154.514 313.116 154.153 311.674 154.685C310.596 155.085 309.517 155.485 308.446 155.879C306.726 155.341 304.668 154.901 302.948 154.37L299.541 174.902C309.914 175.046 320.883 174.941 331.256 175.085C332.632 175.663 334.326 175.538 335.503 174.633C336.681 173.727 337.223 172.014 336.628 170.656L336.635 170.643Z" fill="#FF9284"/>
<path d="M308.486 155.603L307.354 156.968" stroke="#2E1112" stroke-width="0.8" stroke-linecap="round" stroke-linejoin="round"/>
<path d="M325.606 165.787C327.604 167.651 329.602 169.514 331.6 171.378" stroke="#2E1112" stroke-width="0.8" stroke-linecap="round" stroke-linejoin="round"/>
<path d="M360.994 166.128C359.029 165.019 357.018 163.438 356.74 161.214C354.709 144.94 353.002 128.431 351.467 112.111L335.967 114.204C337.7 131.003 339.433 147.801 341.167 164.599C341.445 167.283 343.244 169.409 345.301 171.168C347.359 172.933 349.82 174.147 352.254 175.348C354.12 176.266 355.721 177.054 357.593 177.959C357.898 177.828 358.222 177.454 358.228 177.126C358.242 176.798 358.116 176.476 357.99 176.175C357.494 175.007 356.839 173.911 356.052 172.913C361.033 172.867 366.266 172.88 371.248 172.835C371.876 172.835 372.24 172.428 372.809 172.165C373.881 172.342 375.098 171.739 375.607 170.794C371.651 169.619 366.643 168.491 360.987 166.128H360.994Z" fill="#FF9284"/>
<path d="M355.245 171.227C355.669 171.922 356.092 172.618 356.515 173.307L355.245 171.227Z" fill="#FF9284"/>
<path d="M355.245 171.227C355.669 171.922 356.092 172.618 356.515 173.307" stroke="#2E1112" stroke-width="0.8" stroke-linecap="round" stroke-linejoin="round"/>
<path d="M364.745 168.274C367.53 169.271 370.322 170.275 373.107 171.273L364.745 168.274Z" fill="#FF9284"/>
<path d="M364.745 168.274C367.53 169.271 370.322 170.275 373.107 171.273" stroke="#2E1112" stroke-width="0.8" stroke-linecap="round" stroke-linejoin="round"/>
<path d="M351.652 104.001C350.7 101.265 348.808 98.7054 346.102 97.6227C344.679 97.0519 343.085 96.9206 341.59 97.2422C338.044 98.0099 335.444 101.232 334.432 104.69C333.42 108.148 333.724 111.836 334.121 115.418L352.889 112.577C352.751 109.683 352.598 106.744 351.646 104.007L351.652 104.001Z" fill="white"/>
<path d="M334.313 115.537C334.035 113.194 333.763 110.838 333.863 108.476C333.962 106.12 334.451 103.738 335.622 101.685C336.886 99.4732 339.149 97.5965 341.669 97.1372C344.19 96.6778 346.909 97.4784 348.774 99.2238" stroke="#2E1112" stroke-width="0.8" stroke-linecap="round" stroke-linejoin="round"/>
<path d="M334.2 113.529C340.333 112.512 346.472 111.494 352.605 110.477" stroke="#2E1112" stroke-width="0.8" stroke-linecap="round" stroke-linejoin="round"/>
<defs>
<linearGradient id="paint0_linear_183_2036" x1="188.408" y1="0.847534" x2="188.408" y2="176.848" gradientUnits="userSpaceOnUse">
<stop stop-color="#B777F6"/>
<stop offset="1" stop-color="#711BC8"/>
</linearGradient>
</defs>
</svg>
