<svg width="345" height="49" viewBox="0 0 345 49" fill="none" xmlns="http://www.w3.org/2000/svg">
<rect x="0.5" y="0.958008" width="344" height="48" rx="24" fill="#EED553"/>
<path d="M23.9816 29.958H25.6456V25.126H30.7176V23.654H25.6456V20.23H31.3416L31.2456 18.758H23.9816V29.958ZM32.6482 29.958H34.1842V25.254C34.1842 23.734 34.9682 23.046 36.2322 23.046C36.9042 23.046 37.4482 23.254 37.6562 23.382L37.5602 21.91C37.3842 21.814 36.9522 21.702 36.4562 21.702C35.3842 21.702 34.6802 22.086 34.1842 22.918L33.9442 21.846H32.6482V29.958ZM39.1174 20.646H40.6534V18.902H39.1174V20.646ZM39.1174 29.958H40.6534V21.846H39.1174V29.958ZM48.1577 18.854V22.934C47.9977 22.566 47.3097 21.702 45.7417 21.702C43.6137 21.702 42.6217 22.966 42.6217 25.91C42.6217 28.854 43.6137 30.118 45.7417 30.118C47.3097 30.118 47.9977 29.254 48.1577 28.886L48.3817 29.958H49.6937V18.614L48.1577 18.854ZM46.1737 28.774C44.7657 28.774 44.1897 27.958 44.1897 25.91C44.1897 23.862 44.7657 23.046 46.1737 23.046C47.5657 23.046 48.1577 23.862 48.1577 25.91C48.1577 27.958 47.5657 28.774 46.1737 28.774ZM54.181 30.118C55.525 30.118 56.309 29.654 56.677 28.87L56.917 29.958H58.213V24.822C58.213 22.854 57.269 21.75 54.949 21.75C53.877 21.75 52.853 21.91 52.373 22.022L52.133 23.414C52.661 23.27 53.717 23.094 54.677 23.094C56.181 23.094 56.677 23.638 56.677 24.822V25.27H54.325C52.453 25.27 51.477 26.15 51.477 27.606C51.477 29.142 52.405 30.118 54.181 30.118ZM54.517 28.902C53.477 28.902 53.013 28.422 53.013 27.606C53.013 26.806 53.477 26.358 54.581 26.358H56.677V26.918C56.677 28.342 55.909 28.902 54.517 28.902ZM61.3742 33.158C62.4142 33.158 63.1662 32.598 63.6942 31.158L67.1022 21.846H65.5022L63.3742 28.006L61.0382 21.846H59.3742L62.6062 29.958L62.3022 30.726C62.0142 31.542 61.6142 31.798 60.9902 31.798C60.5582 31.798 60.1582 31.67 59.9662 31.574L60.2222 32.902C60.3822 33.014 60.8142 33.158 61.3742 33.158Z" fill="white"/>
<path d="M311.179 19.5469L316.573 24.9404L311.179 30.3692" stroke="white" stroke-width="2" stroke-linecap="round" stroke-linejoin="round"/>
</svg>
