<svg width="375" height="176" viewBox="0 0 375 176" fill="none" xmlns="http://www.w3.org/2000/svg">
<rect x="0.892578" y="-0.509216" width="375" height="176" fill="url(#paint0_linear_183_2192)"/>
<path d="M20.7692 47.3867L16.0962 42.7137L20.7693 38.0102" stroke="white" stroke-width="2" stroke-linecap="round" stroke-linejoin="round"/>
<path d="M16.3926 42.4908H31.0908" stroke="white" stroke-width="2" stroke-linecap="round"/>
<path d="M71.9462 33.6907L66.6422 41.3227L61.3382 33.6907H58.6022V50.4907H61.6262V39.0667L66.6182 46.1707L71.5622 39.0667V50.4907H74.6582V33.6907H71.9462ZM83.5937 50.7307C84.9617 50.7307 86.4017 50.4187 87.1217 50.1787L87.5777 47.4427C86.7857 47.7307 85.1297 48.0907 83.6657 48.0907C81.3137 48.0907 80.4017 47.1307 80.3297 45.3307H88.2257V44.3947C88.2257 39.8347 86.2817 38.0107 82.8257 38.0107C79.2017 38.0107 77.3057 40.2187 77.3057 44.3707C77.3057 48.4747 79.0817 50.7307 83.5937 50.7307ZM80.3297 43.2667C80.4497 41.4427 81.3377 40.5067 82.8497 40.5067C84.3137 40.5067 85.2497 41.2987 85.3457 43.2667H80.3297ZM98.0226 33.9307V39.5227C97.9986 39.4987 97.1106 38.0107 94.7106 38.0107C91.5906 38.0107 90.1506 39.8827 90.1506 44.3707C90.1506 48.8587 91.5906 50.7307 94.7106 50.7307C97.1106 50.7307 97.9986 49.2427 98.0226 49.2187L98.4786 50.4907H101.047V33.4507L98.0226 33.9307ZM95.6226 48.0907C93.8946 48.0907 93.2226 47.0827 93.2226 44.3707C93.2226 41.6587 93.8946 40.6507 95.6226 40.6507C97.3506 40.6507 98.0226 41.6587 98.0226 44.3707C98.0226 47.0827 97.3506 48.0907 95.6226 48.0907ZM104.321 36.5707H107.345V33.7147H104.321V36.5707ZM104.321 50.4907H107.345V38.2507H104.321V50.4907ZM116.219 48.0667C114.971 48.0667 114.347 47.4907 114.347 45.6667V40.7467H118.235V38.2507H114.347V35.1547L111.323 35.8507V38.2507H109.403V40.7467H111.323V45.6667C111.323 49.1947 112.979 50.7307 115.691 50.7307C116.819 50.7307 117.683 50.4667 118.019 50.2507L118.475 47.6587C118.019 47.8267 117.083 48.0667 116.219 48.0667ZM123.78 50.7307C125.532 50.7307 126.564 50.2507 127.092 49.2187L127.572 50.4907H130.116V42.7147C130.116 39.7867 128.7 38.0827 125.148 38.0827C123.492 38.0827 121.884 38.3227 121.14 38.4907L120.66 41.2027C121.524 40.9867 123.18 40.7227 124.596 40.7227C126.492 40.7227 127.092 41.2987 127.092 42.7147V43.3147H123.948C121.212 43.3147 119.7 44.6587 119.7 46.8907C119.7 49.2667 121.116 50.7307 123.78 50.7307ZM124.5 48.3547C123.252 48.3547 122.724 47.8267 122.724 46.8667C122.724 45.9307 123.252 45.4027 124.5 45.4027H127.092V46.0507C127.092 47.8267 126.324 48.3547 124.5 48.3547ZM138.789 48.0667C137.541 48.0667 136.917 47.4907 136.917 45.6667V40.7467H140.805V38.2507H136.917V35.1547L133.893 35.8507V38.2507H131.973V40.7467H133.893V45.6667C133.893 49.1947 135.549 50.7307 138.261 50.7307C139.389 50.7307 140.253 50.4667 140.589 50.2507L141.045 47.6587C140.589 47.8267 139.653 48.0667 138.789 48.0667ZM143.134 36.5707H146.158V33.7147H143.134V36.5707ZM143.134 50.4907H146.158V38.2507H143.134V50.4907ZM154.215 50.7307C158.007 50.7307 159.663 48.7867 159.663 44.3707C159.663 39.9547 158.007 38.0107 154.215 38.0107C150.423 38.0107 148.767 39.9547 148.767 44.3707C148.767 48.7867 150.423 50.7307 154.215 50.7307ZM154.215 48.0907C152.487 48.0907 151.839 47.0827 151.839 44.3707C151.839 41.6587 152.487 40.6507 154.215 40.6507C155.943 40.6507 156.591 41.6587 156.591 44.3707C156.591 47.0827 155.943 48.0907 154.215 48.0907ZM162.282 50.4907H165.306V43.6027C165.306 41.7307 165.93 40.6987 167.73 40.6987C169.386 40.6987 169.986 41.7307 169.986 43.6027V50.4907H173.01V42.9067C173.01 40.0507 171.57 38.0107 168.666 38.0107C166.986 38.0107 166.002 38.6347 165.306 39.5947L164.826 38.2507H162.282V50.4907Z" fill="white"/>
<path d="M57.9268 77.8992H59.4868V73.3692H64.2418V71.9892H59.4868V68.7792H64.8268L64.7368 67.3992H57.9268V77.8992ZM66.3451 69.1692H67.7851V67.5342H66.3451V69.1692ZM66.3451 77.8992H67.7851V70.2942H66.3451V77.8992ZM70.0804 77.8992H71.5204V67.2642L70.0804 67.4892V77.8992ZM73.8158 77.8992H75.2558V67.2642L73.8158 67.4892V77.8992ZM84.3825 78.0492C85.2825 78.0492 86.1375 77.8542 86.5425 77.7192L86.7675 76.3992C86.3175 76.5642 85.3575 76.7892 84.4275 76.7892C82.6725 76.7892 82.0425 76.0092 82.0125 74.5692H87.2025V74.0892C87.2025 71.2992 86.0025 70.1592 83.9325 70.1592C81.7275 70.1592 80.5575 71.5242 80.5575 74.0742C80.5575 76.6542 81.6225 78.0492 84.3825 78.0492ZM82.0125 73.5492C82.0575 72.1092 82.7475 71.3592 83.9325 71.3592C85.0575 71.3592 85.7775 71.9892 85.8225 73.5492H82.0125ZM90.8969 78.0492C92.1569 78.0492 92.8919 77.6142 93.2369 76.8792L93.4619 77.8992H94.6769V73.0842C94.6769 71.2392 93.7919 70.2042 91.6169 70.2042C90.6119 70.2042 89.6519 70.3542 89.2019 70.4592L88.9769 71.7642C89.4719 71.6292 90.4619 71.4642 91.3619 71.4642C92.7719 71.4642 93.2369 71.9742 93.2369 73.0842V73.5042H91.0319C89.2769 73.5042 88.3619 74.3292 88.3619 75.6942C88.3619 77.1342 89.2319 78.0492 90.8969 78.0492ZM91.2119 76.9092C90.2369 76.9092 89.8019 76.4592 89.8019 75.6942C89.8019 74.9442 90.2369 74.5242 91.2719 74.5242H93.2369V75.0492C93.2369 76.3842 92.5169 76.9092 91.2119 76.9092ZM99.8274 78.0492C100.787 78.0492 101.522 77.8242 101.807 77.6592L102.032 76.3242C101.627 76.5192 100.787 76.7892 99.9474 76.7892C98.5224 76.7892 97.8624 76.0092 97.8624 74.1042C97.8624 72.1992 98.5224 71.4192 99.9924 71.4192C100.727 71.4192 101.492 71.6442 101.867 71.8242L101.792 70.5342C101.507 70.3842 100.772 70.1592 99.8724 70.1592C97.5174 70.1592 96.3924 71.4192 96.3924 74.1042C96.3924 76.7742 97.5174 78.0492 99.8274 78.0492ZM107.375 70.1592C106.205 70.1592 105.515 70.5792 105.08 71.2842V67.2642L103.64 67.4892V77.8992H105.08V73.5792C105.08 72.1992 105.56 71.4492 106.955 71.4492C108.23 71.4492 108.695 72.1992 108.695 73.5792V77.8992H110.135V73.2492C110.135 71.4192 109.265 70.1592 107.375 70.1592ZM119.488 70.1592C118.033 70.1592 117.373 70.9692 117.238 71.3142L117.013 70.2942H115.798V80.8692L117.238 80.6442V76.8792C117.373 77.2392 118.033 78.0492 119.488 78.0492C121.498 78.0492 122.413 76.8642 122.413 74.1042C122.413 71.3442 121.498 70.1592 119.488 70.1592ZM119.083 76.7892C117.778 76.7892 117.238 76.0242 117.238 74.1042C117.238 72.1842 117.778 71.4192 119.083 71.4192C120.403 71.4192 120.943 72.1842 120.943 74.1042C120.943 76.0242 120.403 76.7892 119.083 76.7892ZM127.115 78.0492C129.41 78.0492 130.43 76.8342 130.43 74.1042C130.43 71.3742 129.41 70.1592 127.115 70.1592C124.835 70.1592 123.8 71.3742 123.8 74.1042C123.8 76.8342 124.835 78.0492 127.115 78.0492ZM127.115 76.7892C125.81 76.7892 125.27 76.0242 125.27 74.1042C125.27 72.1842 125.81 71.4192 127.115 71.4192C128.435 71.4192 128.975 72.1842 128.975 74.1042C128.975 76.0242 128.435 76.7892 127.115 76.7892ZM132.263 77.8992H133.703V73.4892C133.703 72.0642 134.438 71.4192 135.623 71.4192C136.253 71.4192 136.763 71.6142 136.958 71.7342L136.868 70.3542C136.703 70.2642 136.298 70.1592 135.833 70.1592C134.828 70.1592 134.168 70.5192 133.703 71.2992L133.478 70.2942H132.263V77.8992ZM141.467 78.0492C142.367 78.0492 143.222 77.8542 143.627 77.7192L143.852 76.3992C143.402 76.5642 142.442 76.7892 141.512 76.7892C139.757 76.7892 139.127 76.0092 139.097 74.5692H144.287V74.0892C144.287 71.2992 143.087 70.1592 141.017 70.1592C138.812 70.1592 137.642 71.5242 137.642 74.0742C137.642 76.6542 138.707 78.0492 141.467 78.0492ZM139.097 73.5492C139.142 72.1092 139.832 71.3592 141.017 71.3592C142.142 71.3592 142.862 71.9892 142.907 73.5492H139.097ZM152.398 78.0492C154.693 78.0492 155.713 76.8342 155.713 74.1042C155.713 71.3742 154.693 70.1592 152.398 70.1592C150.118 70.1592 149.083 71.3742 149.083 74.1042C149.083 76.8342 150.118 78.0492 152.398 78.0492ZM152.398 76.7892C151.093 76.7892 150.553 76.0242 150.553 74.1042C150.553 72.1842 151.093 71.4192 152.398 71.4192C153.718 71.4192 154.258 72.1842 154.258 74.1042C154.258 76.0242 153.718 76.7892 152.398 76.7892ZM157.908 77.8992H159.348V71.5092H161.703V70.2942H159.348V70.0542C159.348 68.9442 159.828 68.4342 160.713 68.4342C161.283 68.4342 161.793 68.5542 162.003 68.6292L161.928 67.3992C161.673 67.3242 161.118 67.2192 160.533 67.2192C158.928 67.2192 157.908 68.1342 157.908 70.0542V70.2942H156.663V71.5092H157.908V77.8992ZM169.267 76.7742C168.367 76.7742 167.887 76.3542 167.887 75.1092V71.5092H170.557V70.2942H167.887V68.4642L166.447 68.7942V70.2942H165.202V71.5092H166.447V75.1092C166.447 77.1492 167.437 78.0492 169.027 78.0492C169.717 78.0492 170.257 77.8842 170.467 77.7492L170.677 76.5042C170.422 76.6092 169.852 76.7742 169.267 76.7742ZM175.812 70.1592C174.642 70.1592 173.952 70.5792 173.517 71.2842V67.2642L172.077 67.4892V77.8992H173.517V73.5792C173.517 72.1992 173.997 71.4492 175.392 71.4492C176.667 71.4492 177.132 72.1992 177.132 73.5792V77.8992H178.572V73.2492C178.572 71.4192 177.702 70.1592 175.812 70.1592ZM184.109 78.0492C185.009 78.0492 185.864 77.8542 186.269 77.7192L186.494 76.3992C186.044 76.5642 185.084 76.7892 184.154 76.7892C182.399 76.7892 181.769 76.0092 181.739 74.5692H186.929V74.0892C186.929 71.2992 185.729 70.1592 183.659 70.1592C181.454 70.1592 180.284 71.5242 180.284 74.0742C180.284 76.6542 181.349 78.0492 184.109 78.0492ZM181.739 73.5492C181.784 72.1092 182.474 71.3592 183.659 71.3592C184.784 71.3592 185.504 71.9892 185.549 73.5492H181.739ZM195.865 70.1592C194.41 70.1592 193.75 70.9692 193.615 71.3142V67.2642L192.175 67.4892V77.8992H193.39L193.615 76.8942C193.75 77.2392 194.41 78.0492 195.865 78.0492C197.875 78.0492 198.79 76.8642 198.79 74.1042C198.79 71.3442 197.875 70.1592 195.865 70.1592ZM195.46 76.7892C194.155 76.7892 193.615 76.0242 193.615 74.1042C193.615 72.1842 194.155 71.4192 195.46 71.4192C196.78 71.4192 197.32 72.1842 197.32 74.1042C197.32 76.0242 196.78 76.7892 195.46 76.7892ZM203.492 78.0492C205.787 78.0492 206.807 76.8342 206.807 74.1042C206.807 71.3742 205.787 70.1592 203.492 70.1592C201.212 70.1592 200.177 71.3742 200.177 74.1042C200.177 76.8342 201.212 78.0492 203.492 78.0492ZM203.492 76.7892C202.187 76.7892 201.647 76.0242 201.647 74.1042C201.647 72.1842 202.187 71.4192 203.492 71.4192C204.812 71.4192 205.352 72.1842 205.352 74.1042C205.352 76.0242 204.812 76.7892 203.492 76.7892ZM213.395 67.4892V71.3142C213.245 70.9692 212.6 70.1592 211.13 70.1592C209.135 70.1592 208.205 71.3442 208.205 74.1042C208.205 76.8642 209.135 78.0492 211.13 78.0492C212.6 78.0492 213.245 77.2392 213.395 76.8942L213.605 77.8992H214.835V67.2642L213.395 67.4892ZM211.535 76.7892C210.215 76.7892 209.675 76.0242 209.675 74.1042C209.675 72.1842 210.215 71.4192 211.535 71.4192C212.84 71.4192 213.395 72.1842 213.395 74.1042C213.395 76.0242 212.84 76.7892 211.535 76.7892ZM218.021 80.8992C218.996 80.8992 219.701 80.3742 220.196 79.0242L223.391 70.2942H221.891L219.896 76.0692L217.706 70.2942H216.146L219.176 77.8992L218.891 78.6192C218.621 79.3842 218.246 79.6242 217.661 79.6242C217.256 79.6242 216.881 79.5042 216.701 79.4142L216.941 80.6592C217.091 80.7642 217.496 80.8992 218.021 80.8992ZM60.9268 95.7742C60.0268 95.7742 59.5468 95.3542 59.5468 94.1092V90.5092H62.2168V89.2942H59.5468V87.4642L58.1068 87.7942V89.2942H56.8618V90.5092H58.1068V94.1092C58.1068 96.1492 59.0968 97.0492 60.6868 97.0492C61.3768 97.0492 61.9168 96.8842 62.1268 96.7492L62.3368 95.5042C62.0818 95.6092 61.5118 95.7742 60.9268 95.7742ZM67.4723 89.1592C66.3023 89.1592 65.6123 89.5792 65.1773 90.2842V86.2642L63.7373 86.4892V96.8992H65.1773V92.5792C65.1773 91.1992 65.6573 90.4492 67.0523 90.4492C68.3273 90.4492 68.7923 91.1992 68.7923 92.5792V96.8992H70.2323V92.2492C70.2323 90.4192 69.3623 89.1592 67.4723 89.1592ZM72.4092 96.8992H73.8492V92.4892C73.8492 91.0642 74.5842 90.4192 75.7692 90.4192C76.3992 90.4192 76.9092 90.6142 77.1042 90.7342L77.0142 89.3542C76.8492 89.2642 76.4442 89.1592 75.9792 89.1592C74.9742 89.1592 74.3142 89.5192 73.8492 90.2992L73.6242 89.2942H72.4092V96.8992ZM81.1189 97.0492C83.4139 97.0492 84.4339 95.8342 84.4339 93.1042C84.4339 90.3742 83.4139 89.1592 81.1189 89.1592C78.8389 89.1592 77.8039 90.3742 77.8039 93.1042C77.8039 95.8342 78.8389 97.0492 81.1189 97.0492ZM81.1189 95.7892C79.8139 95.7892 79.2739 95.0242 79.2739 93.1042C79.2739 91.1842 79.8139 90.4192 81.1189 90.4192C82.4389 90.4192 82.9789 91.1842 82.9789 93.1042C82.9789 95.0242 82.4389 95.7892 81.1189 95.7892ZM88.9816 97.0492C90.1366 97.0492 90.8266 96.6142 91.2316 95.8942L91.4716 96.8992H92.6716V89.2942H91.2316V93.6142C91.2316 95.0542 90.7216 95.7592 89.3866 95.7592C88.1266 95.7592 87.6166 95.0542 87.6166 93.6142V89.2942H86.1766V93.9292C86.1766 95.8492 87.0916 97.0492 88.9816 97.0492ZM97.4285 99.8992C99.9185 99.8992 101.133 98.6692 101.133 96.1192V89.2942H99.9035L99.6935 90.3142C99.5435 89.9692 98.8985 89.1592 97.4285 89.1592C95.4335 89.1592 94.5035 90.3442 94.5035 93.1042C94.5035 95.7892 95.4335 96.9442 97.4285 96.9442C98.8835 96.9442 99.5435 96.2392 99.6935 95.8792V96.1942C99.6635 97.9492 98.9135 98.6392 97.3085 98.6392C96.4085 98.6392 95.5385 98.3692 95.1185 98.1742L95.3285 99.5392C95.7185 99.6892 96.5435 99.8992 97.4285 99.8992ZM97.8335 95.6842C96.5135 95.6842 95.9735 94.9492 95.9735 93.1042C95.9735 91.1842 96.5135 90.4192 97.8335 90.4192C99.1385 90.4192 99.6935 91.1842 99.6935 93.1042C99.6935 94.9492 99.1385 95.6842 97.8335 95.6842ZM107.14 89.1592C105.97 89.1592 105.28 89.5792 104.845 90.2842V86.2642L103.405 86.4892V96.8992H104.845V92.5792C104.845 91.1992 105.325 90.4492 106.72 90.4492C107.995 90.4492 108.46 91.1992 108.46 92.5792V96.8992H109.9V92.2492C109.9 90.4192 109.03 89.1592 107.14 89.1592ZM123.828 89.1592C122.673 89.1592 121.908 89.5792 121.368 90.4792C121.008 89.6092 120.228 89.1592 119.133 89.1592C118.038 89.1592 117.393 89.5942 117.003 90.3142L116.778 89.2942H115.563V96.8992H117.003V92.5492C117.003 91.1542 117.483 90.4492 118.713 90.4492C119.883 90.4492 120.348 91.1542 120.348 92.5492V96.8992H121.788V92.5492C121.788 91.1542 122.283 90.4492 123.513 90.4492C124.668 90.4492 125.133 91.1542 125.133 92.5492V96.8992H126.573V92.2342C126.573 90.3442 125.673 89.1592 123.828 89.1592ZM132.107 97.0492C133.007 97.0492 133.862 96.8542 134.267 96.7192L134.492 95.3992C134.042 95.5642 133.082 95.7892 132.152 95.7892C130.397 95.7892 129.767 95.0092 129.737 93.5692H134.927V93.0892C134.927 90.2992 133.727 89.1592 131.657 89.1592C129.452 89.1592 128.282 90.5242 128.282 93.0742C128.282 95.6542 129.347 97.0492 132.107 97.0492ZM129.737 92.5492C129.782 91.1092 130.472 90.3592 131.657 90.3592C132.782 90.3592 133.502 90.9892 133.547 92.5492H129.737ZM141.442 86.4892V90.3142C141.292 89.9692 140.647 89.1592 139.177 89.1592C137.182 89.1592 136.252 90.3442 136.252 93.1042C136.252 95.8642 137.182 97.0492 139.177 97.0492C140.647 97.0492 141.292 96.2392 141.442 95.8942L141.652 96.8992H142.882V86.2642L141.442 86.4892ZM139.582 95.7892C138.262 95.7892 137.722 95.0242 137.722 93.1042C137.722 91.1842 138.262 90.4192 139.582 90.4192C140.887 90.4192 141.442 91.1842 141.442 93.1042C141.442 95.0242 140.887 95.7892 139.582 95.7892ZM145.168 88.1692H146.608V86.5342H145.168V88.1692ZM145.168 96.8992H146.608V89.2942H145.168V96.8992ZM152.099 95.7742C151.199 95.7742 150.719 95.3542 150.719 94.1092V90.5092H153.389V89.2942H150.719V87.4642L149.279 87.7942V89.2942H148.034V90.5092H149.279V94.1092C149.279 96.1492 150.269 97.0492 151.859 97.0492C152.549 97.0492 153.089 96.8842 153.299 96.7492L153.509 95.5042C153.254 95.6092 152.684 95.7742 152.099 95.7742ZM156.844 97.0492C158.104 97.0492 158.839 96.6142 159.184 95.8792L159.409 96.8992H160.624V92.0842C160.624 90.2392 159.739 89.2042 157.564 89.2042C156.559 89.2042 155.599 89.3542 155.149 89.4592L154.924 90.7642C155.419 90.6292 156.409 90.4642 157.309 90.4642C158.719 90.4642 159.184 90.9742 159.184 92.0842V92.5042H156.979C155.224 92.5042 154.309 93.3292 154.309 94.6942C154.309 96.1342 155.179 97.0492 156.844 97.0492ZM157.159 95.9092C156.184 95.9092 155.749 95.4592 155.749 94.6942C155.749 93.9442 156.184 93.5242 157.219 93.5242H159.184V94.0492C159.184 95.3842 158.464 95.9092 157.159 95.9092ZM165.941 95.7742C165.041 95.7742 164.561 95.3542 164.561 94.1092V90.5092H167.231V89.2942H164.561V87.4642L163.121 87.7942V89.2942H161.876V90.5092H163.121V94.1092C163.121 96.1492 164.111 97.0492 165.701 97.0492C166.391 97.0492 166.931 96.8842 167.141 96.7492L167.351 95.5042C167.096 95.6092 166.526 95.7742 165.941 95.7742ZM168.767 88.1692H170.207V86.5342H168.767V88.1692ZM168.767 96.8992H170.207V89.2942H168.767V96.8992ZM175.352 97.0492C177.647 97.0492 178.667 95.8342 178.667 93.1042C178.667 90.3742 177.647 89.1592 175.352 89.1592C173.072 89.1592 172.037 90.3742 172.037 93.1042C172.037 95.8342 173.072 97.0492 175.352 97.0492ZM175.352 95.7892C174.047 95.7892 173.507 95.0242 173.507 93.1042C173.507 91.1842 174.047 90.4192 175.352 90.4192C176.672 90.4192 177.212 91.1842 177.212 93.1042C177.212 95.0242 176.672 95.7892 175.352 95.7892ZM180.5 96.8992H181.94V92.5942C181.94 91.1542 182.45 90.4492 183.785 90.4492C185.06 90.4492 185.555 91.1542 185.555 92.5942V96.8992H186.995V92.2792C186.995 90.3592 186.08 89.1592 184.19 89.1592C183.035 89.1592 182.345 89.5942 181.94 90.3142L181.715 89.2942H180.5V96.8992ZM196.018 97.0492C196.918 97.0492 197.773 96.8542 198.178 96.7192L198.403 95.3992C197.953 95.5642 196.993 95.7892 196.063 95.7892C194.308 95.7892 193.678 95.0092 193.648 93.5692H198.838V93.0892C198.838 90.2992 197.638 89.1592 195.568 89.1592C193.363 89.1592 192.193 90.5242 192.193 93.0742C192.193 95.6542 193.258 97.0492 196.018 97.0492ZM193.648 92.5492C193.693 91.1092 194.383 90.3592 195.568 90.3592C196.693 90.3592 197.413 90.9892 197.458 92.5492H193.648ZM206.663 96.8992L203.933 92.9542L206.453 89.2942H204.848L203.078 91.9342L201.293 89.2942H199.613L202.163 92.9842L199.418 96.8992H201.038L203.018 94.0042L204.983 96.8992H206.663ZM211.062 97.0492C211.962 97.0492 212.817 96.8542 213.222 96.7192L213.447 95.3992C212.997 95.5642 212.037 95.7892 211.107 95.7892C209.352 95.7892 208.722 95.0092 208.692 93.5692H213.882V93.0892C213.882 90.2992 212.682 89.1592 210.612 89.1592C208.407 89.1592 207.237 90.5242 207.237 93.0742C207.237 95.6542 208.302 97.0492 211.062 97.0492ZM208.692 92.5492C208.737 91.1092 209.427 90.3592 210.612 90.3592C211.737 90.3592 212.457 90.9892 212.502 92.5492H208.692ZM215.642 96.8992H217.082V92.4892C217.082 91.0642 217.817 90.4192 219.002 90.4192C219.632 90.4192 220.142 90.6142 220.337 90.7342L220.247 89.3542C220.082 89.2642 219.677 89.1592 219.212 89.1592C218.207 89.1592 217.547 89.5192 217.082 90.2992L216.857 89.2942H215.642V96.8992ZM224.456 97.0492C225.416 97.0492 226.151 96.8242 226.436 96.6592L226.661 95.3242C226.256 95.5192 225.416 95.7892 224.576 95.7892C223.151 95.7892 222.491 95.0092 222.491 93.1042C222.491 91.1992 223.151 90.4192 224.621 90.4192C225.356 90.4192 226.121 90.6442 226.496 90.8242L226.421 89.5342C226.136 89.3842 225.401 89.1592 224.501 89.1592C222.146 89.1592 221.021 90.4192 221.021 93.1042C221.021 95.7742 222.146 97.0492 224.456 97.0492ZM228.284 88.1692H229.724V86.5342H228.284V88.1692ZM228.284 96.8992H229.724V89.2942H228.284V96.8992ZM234.314 97.0642C236.474 97.0642 237.419 96.2092 237.419 94.7842C237.419 93.5242 236.849 92.8792 235.334 92.5642L234.104 92.3242C233.234 92.1592 232.949 91.8892 232.949 91.3492C232.949 90.7792 233.414 90.4042 234.764 90.4042C235.784 90.4042 236.639 90.6442 237.014 90.8242L236.924 89.5042C236.519 89.3692 235.619 89.1592 234.614 89.1592C232.499 89.1592 231.554 90.0142 231.554 91.3942C231.554 92.5942 232.109 93.2542 233.579 93.5542L234.839 93.8092C235.754 93.9892 235.994 94.2442 235.994 94.8142C235.994 95.4142 235.529 95.8192 234.209 95.8192C233.099 95.8192 232.034 95.5342 231.554 95.3242L231.779 96.6442C232.244 96.8242 233.234 97.0642 234.314 97.0642ZM242.454 97.0492C243.354 97.0492 244.209 96.8542 244.614 96.7192L244.839 95.3992C244.389 95.5642 243.429 95.7892 242.499 95.7892C240.744 95.7892 240.114 95.0092 240.084 93.5692H245.274V93.0892C245.274 90.2992 244.074 89.1592 242.004 89.1592C239.799 89.1592 238.629 90.5242 238.629 93.0742C238.629 95.6542 239.694 97.0492 242.454 97.0492ZM240.084 92.5492C240.129 91.1092 240.819 90.3592 242.004 90.3592C243.129 90.3592 243.849 90.9892 243.894 92.5492H240.084ZM249.343 97.0642C251.503 97.0642 252.448 96.2092 252.448 94.7842C252.448 93.5242 251.878 92.8792 250.363 92.5642L249.133 92.3242C248.263 92.1592 247.978 91.8892 247.978 91.3492C247.978 90.7792 248.443 90.4042 249.793 90.4042C250.813 90.4042 251.668 90.6442 252.043 90.8242L251.953 89.5042C251.548 89.3692 250.648 89.1592 249.643 89.1592C247.528 89.1592 246.583 90.0142 246.583 91.3942C246.583 92.5942 247.138 93.2542 248.608 93.5542L249.868 93.8092C250.783 93.9892 251.023 94.2442 251.023 94.8142C251.023 95.4142 250.558 95.8192 249.238 95.8192C248.128 95.8192 247.063 95.5342 246.583 95.3242L246.808 96.6442C247.273 96.8242 248.263 97.0642 249.343 97.0642ZM253.943 96.8992H255.608V95.0242H253.943V96.8992Z" fill="white"/>
<path d="M328.058 131.839C311.992 131.273 295.884 131.846 279.865 133.123C278.964 135.272 278.677 137.668 279.046 139.968L328.243 140.221C328.741 137.409 328.775 134.604 328.065 131.839H328.058Z" fill="#FF9284"/>
<path d="M302.225 136.187C303.003 136.242 303.781 136.289 304.559 136.344" stroke="#2E1112" stroke-width="0.8" stroke-linecap="round" stroke-linejoin="round"/>
<path d="M326.426 117.936C312.1 114.687 296.573 115.076 282.478 119.219C277.803 107.425 275.551 94.7099 274.104 82.1036C273.599 77.7354 275.059 73.3195 277.359 69.5724C279.66 65.8253 282.656 62.7335 285.83 59.6894C290.723 55.0004 296.661 50.605 298.927 44.2233C299.89 41.4932 301.057 38.886 302.033 36.149C302.476 36.149 302.77 36.5927 302.756 37.0432C302.565 42.7081 303.282 48.3595 302.176 53.9221C301.712 56.2631 300.49 58.3517 299.159 60.3378C295.167 66.3031 291.419 72.1182 287.427 78.0835C288.785 84.5129 290.246 90.8945 291.604 97.324C294.122 96.58 296.634 95.836 299.153 95.0921C299.282 93.8021 299.371 92.4644 299.501 91.1744C302.374 91.3587 305.35 91.5566 308.223 91.7409C308.278 92.9899 308.353 94.3004 308.408 95.5494C311.104 96.3343 313.752 97.0305 316.448 97.8154C317.376 91.7272 318.168 85.3115 319.089 79.2233C314.878 73.2034 310.721 66.9105 306.51 60.8907C304.872 58.5496 303.719 55.6352 303.391 52.8027C302.811 47.7725 303.343 42.6672 303.268 37.6028C303.261 37.0841 303.452 36.6746 303.889 36.3879C304.647 38.456 305.493 40.4831 306.251 42.5512C307.903 47.0558 310.837 50.9531 314.243 54.3316C319.383 59.4437 324.638 64.5149 329.177 70.1662C330.951 72.3776 332.378 74.9439 332.89 77.7354C333.402 80.527 333.299 83.3936 333.095 86.2192C332.31 96.9963 330.064 107.76 326.426 117.929V117.936Z" fill="#FF9284"/>
<path d="M282.718 110.428C283.339 111.179 283.967 111.93 284.588 112.681" stroke="#2E1112" stroke-width="0.8" stroke-linecap="round" stroke-linejoin="round"/>
<path d="M323.45 111.91C324.078 110.954 324.706 109.998 325.334 109.036" stroke="#2E1112" stroke-width="0.8" stroke-linecap="round" stroke-linejoin="round"/>
<path d="M285.952 77.1826C286.389 77.6603 286.826 78.1381 287.263 78.6159" stroke="#2E1112" stroke-width="0.8" stroke-linecap="round" stroke-linejoin="round"/>
<path d="M319.267 79.3121C319.635 78.4725 320.004 77.6399 320.372 76.8004" stroke="#2E1112" stroke-width="0.8" stroke-linecap="round" stroke-linejoin="round"/>
<path d="M302.231 169.378C298.341 170.027 294.355 170.58 290.465 171.228C290.431 172.102 289.769 172.921 288.922 173.139C288.076 173.357 287.1 172.968 286.643 172.224C286.185 171.481 286.267 170.436 286.847 169.774C286.315 170.013 285.783 169.713 285.332 169.351C284.882 168.982 284.663 168.355 284.793 167.788C290.239 164.546 297.229 165.495 302.231 169.385V169.378Z" fill="#FF9284"/>
<path d="M328.686 138.999L278.213 138.255C278.213 138.255 261.225 128.747 253.137 139.647C245.049 150.547 256.017 166.368 290.915 168.846C322.4 171.085 342.814 164.962 351.653 158.178C361.557 150.575 357.059 133.02 340.651 135.914C334.488 136.999 328.693 138.992 328.693 138.992L328.686 138.999Z" fill="#FCF315"/>
<path d="M278.432 138.317C283.714 141.975 288.997 145.633 294.28 149.298" stroke="white" stroke-width="0.8" stroke-linecap="round" stroke-linejoin="round"/>
<path d="M302.307 151.899C311.043 147.701 319.779 143.504 328.516 139.306" stroke="white" stroke-width="0.8" stroke-linecap="round" stroke-linejoin="round"/>
<path d="M281.912 140.726C296.525 140.787 310.449 140.842 325.061 140.903" stroke="white" stroke-width="0.8" stroke-linecap="round" stroke-linejoin="round"/>
<path d="M312.606 82.1787C312.524 81.8169 312.292 81.462 311.943 81.346C312.107 80.8068 311.916 80.1789 311.479 79.824C311.043 79.469 310.353 79.3121 309.862 79.5919C310.06 78.8479 309.698 78.0016 309.029 77.6194C308.36 77.244 307.452 77.4283 306.913 77.9743C306.797 77.517 306.36 77.1689 305.889 77.1553C305.418 77.1416 304.975 77.401 304.838 77.8514C304.613 77.2781 304.006 76.8823 303.391 76.8959C302.777 76.9096 302.217 77.3396 302.02 77.9197C301.453 77.3942 300.573 77.2372 299.856 77.517C299.139 77.7968 298.784 78.4998 298.723 79.2711C298.034 79.1346 297.283 79.3803 296.798 79.8922C296.314 80.4041 296.3 81.1617 296.382 81.8579C296.573 83.4209 296.764 84.9839 296.955 86.5468L311.193 88.0962C311.855 86.5537 312.319 84.9361 312.578 83.2775C312.633 82.9158 312.681 82.5404 312.599 82.1787H312.606Z" fill="#2E1112"/>
<path d="M309.214 91.6658C310.21 91.6863 311.22 91.2495 311.828 90.4646C312.435 89.6797 312.599 88.5467 312.169 87.6526C311.739 86.7584 310.579 86.3694 309.603 86.54C309.289 86.8267 308.79 86.8881 308.415 86.6765C308.046 86.4718 307.883 85.9394 307.965 85.5231C307.616 85.7415 307.152 85.762 306.784 85.5777C306.415 85.3934 306.122 85.1204 306.094 84.7109C305.405 84.8201 304.661 84.5198 304.245 83.9601C303.828 83.4004 303.671 82.6019 303.972 81.9671C303.433 82.049 302.771 82.3152 302.231 82.3971C302.491 82.9226 302.32 83.6256 301.856 83.9737C301.385 84.3218 300.545 84.3696 300.116 83.9737C299.836 84.6904 299.549 85.4002 299.269 86.1169C299.01 85.8166 298.737 85.4548 298.471 85.1477C297.563 85.0931 296.641 85.5435 296.116 86.2875C295.597 87.0315 295.488 88.0552 295.85 88.8879C296.211 89.7206 297.024 90.3485 297.925 90.4782C298.791 92.5941 301.064 94.1024 303.33 94.3686C305.603 94.6348 307.883 93.5155 309.214 91.659V91.6658Z" fill="#FF9284"/>
<path d="M297.004 86.8608C297.454 87.0792 297.912 87.3045 298.362 87.5229" stroke="#2E1112" stroke-width="0.8" stroke-linecap="round" stroke-linejoin="round"/>
<path d="M309.924 88.5262C310.32 88.3966 310.709 88.2669 311.105 88.1304" stroke="#2E1112" stroke-width="0.8" stroke-linecap="round" stroke-linejoin="round"/>
<path d="M299.386 92.6896C300.56 93.8158 302.17 94.4779 303.802 94.5052C305.433 94.5325 307.064 93.925 308.279 92.8398" stroke="#2E1112" stroke-width="0.8" stroke-linecap="round" stroke-linejoin="round"/>
<path d="M300.401 88.0689C300.763 88.5876 301.528 88.7787 302.087 88.4921" stroke="#2E1112" stroke-width="0.8" stroke-linecap="round" stroke-linejoin="round"/>
<path d="M303.732 88.4375L303.671 90.0483C303.787 89.98 303.903 89.9118 304.012 89.8435" stroke="#2E1112" stroke-width="0.8" stroke-linecap="round" stroke-linejoin="round"/>
<path d="M305.731 88.3692C305.957 88.6763 306.339 88.8675 306.721 88.8606C307.103 88.8606 307.479 88.649 307.69 88.3351" stroke="#2E1112" stroke-width="0.8" stroke-linecap="round" stroke-linejoin="round"/>
<path d="M303.835 91.0721C304.047 91.3587 304.429 91.5089 304.784 91.4475C305.139 91.3792 305.439 91.0994 305.528 90.7513" stroke="#2E1112" stroke-width="0.8" stroke-linecap="round" stroke-linejoin="round"/>
<path d="M300.347 85.6255C300.981 85.3866 301.684 85.3252 302.346 85.4617" stroke="#2E1112" stroke-width="0.8" stroke-linecap="round" stroke-linejoin="round"/>
<path d="M305.657 85.994L306.531 86.0554" stroke="#2E1112" stroke-width="0.8" stroke-linecap="round" stroke-linejoin="round"/>
<path d="M329.191 133.819C328.789 131.123 327.703 128.591 326.147 126.359C326.55 123.376 326.959 120.421 327.355 117.404C321.772 111.336 317.957 103.951 316.483 95.836C315.459 96.0408 314.442 96.2865 313.418 96.4913C312.319 100.696 308.17 103.897 303.822 103.883C299.474 103.869 295.181 100.648 294.116 96.4367C293.14 96.0613 292.233 95.7337 291.257 95.3583C289.987 103.74 286.561 111.787 281.401 118.516C281.763 121.131 282.152 123.67 282.527 126.243C280.363 128.945 278.882 132.181 278.548 135.614L329.198 133.826L329.191 133.819Z" fill="white"/>
<path d="M282.288 125.779C288.062 120.032 296.212 116.735 304.361 116.865C312.51 116.988 320.557 120.523 326.154 126.447" stroke="#2E1112" stroke-width="0.8" stroke-linecap="round" stroke-linejoin="round"/>
<path d="M286.438 114.094C285.442 115.145 285.114 116.769 285.619 118.127C286.124 119.479 287.442 120.496 288.882 120.632" stroke="#2E1112" stroke-width="0.8" stroke-linecap="round" stroke-linejoin="round"/>
<path d="M317.731 119.806C319.226 119.957 320.776 119.349 321.765 118.223C322.755 117.097 323.164 115.479 322.823 114.019" stroke="#2E1112" stroke-width="0.8" stroke-linecap="round" stroke-linejoin="round"/>
<path d="M292.895 96.58C294.048 101.501 298.873 105.296 303.931 105.255C308.982 105.214 313.746 101.33 314.817 96.3957" stroke="#2E1112" stroke-width="0.8" stroke-linecap="round" stroke-linejoin="round"/>
<path d="M310.244 172.081C305.835 171.535 301.535 170.928 297.126 170.382C295.857 171.098 294.273 171.037 292.901 170.559C291.529 170.081 290.321 169.228 289.134 168.389C290.813 162.116 292.512 155.857 294.198 149.578L316.455 158.963C317.445 158.246 318.933 158.642 319.588 159.673C320.237 160.71 319.834 162.26 318.762 162.84C319.281 163.208 319.54 164.007 319.329 164.601C319.117 165.201 318.476 165.618 317.841 165.577C318.319 166.061 318.339 167.263 317.971 167.836C317.602 168.409 316.817 168.669 316.176 168.436C316.687 168.969 316.53 169.986 316.012 170.511C315.486 171.037 314.537 171.051 314.005 170.539C314.23 171.03 313.964 171.774 313.555 172.129C313.145 172.484 312.579 172.6 312.039 172.566C311.5 172.532 310.784 172.143 310.251 172.074L310.244 172.081Z" fill="#FF9284"/>
<path d="M316.735 162.355C317.589 161.966 318.728 162.396 319.104 163.263" stroke="#2E1112" stroke-width="0.8" stroke-linecap="round" stroke-linejoin="round"/>
<path d="M316.039 165.256C316.844 164.887 317.916 165.351 318.196 166.184" stroke="#2E1112" stroke-width="0.8" stroke-linecap="round" stroke-linejoin="round"/>
<path d="M314.605 168.054C314.96 167.795 315.452 167.754 315.848 167.938C316.244 168.122 316.517 168.539 316.537 168.976" stroke="#2E1112" stroke-width="0.8" stroke-linecap="round" stroke-linejoin="round"/>
<path d="M312.619 170.143C312.933 169.945 313.349 169.924 313.684 170.081C314.018 170.238 314.264 170.573 314.319 170.941" stroke="#2E1112" stroke-width="0.8" stroke-linecap="round" stroke-linejoin="round"/>
<path d="M289.44 168.641C290.519 169.686 291.87 170.436 293.331 170.798" stroke="#2E1112" stroke-width="0.8" stroke-linecap="round" stroke-linejoin="round"/>
<circle cx="314.215" cy="65.1227" r="89.6234" fill="white" fill-opacity="0.1"/>
<defs>
<linearGradient id="paint0_linear_183_2192" x1="188.393" y1="-0.509216" x2="188.393" y2="175.491" gradientUnits="userSpaceOnUse">
<stop stop-color="#B777F6"/>
<stop offset="1" stop-color="#711BC8"/>
</linearGradient>
</defs>
</svg>
