<svg width="345" height="49" viewBox="0 0 345 49" fill="none" xmlns="http://www.w3.org/2000/svg">
<rect x="0.5" y="0.958008" width="344" height="48" rx="24" fill="#FF4471"/>
<path d="M33.2013 20.758L29.3933 26.23L25.5693 20.758H24.1613V31.958H25.6973V23.494L29.3773 28.71L33.0253 23.494V31.958H34.5933V20.758H33.2013ZM40.1652 32.118C42.6132 32.118 43.7012 30.822 43.7012 27.91C43.7012 24.998 42.6132 23.702 40.1652 23.702C37.7332 23.702 36.6292 24.998 36.6292 27.91C36.6292 30.822 37.7332 32.118 40.1652 32.118ZM40.1652 30.774C38.7732 30.774 38.1972 29.958 38.1972 27.91C38.1972 25.862 38.7732 25.046 40.1652 25.046C41.5732 25.046 42.1492 25.862 42.1492 27.91C42.1492 29.958 41.5732 30.774 40.1652 30.774ZM45.6561 31.958H47.1921V27.366C47.1921 25.83 47.7361 25.078 49.1601 25.078C50.5201 25.078 51.0481 25.83 51.0481 27.366V31.958H52.5841V27.03C52.5841 24.982 51.6081 23.702 49.5921 23.702C48.3601 23.702 47.6241 24.166 47.1921 24.934L46.9521 23.846H45.6561V31.958ZM59.9781 20.854V24.934C59.8181 24.566 59.1301 23.702 57.5621 23.702C55.4341 23.702 54.4421 24.966 54.4421 27.91C54.4421 30.854 55.4341 32.118 57.5621 32.118C59.1301 32.118 59.8181 31.254 59.9781 30.886L60.2021 31.958H61.5141V20.614L59.9781 20.854ZM57.9941 30.774C56.5861 30.774 56.0101 29.958 56.0101 27.91C56.0101 25.862 56.5861 25.046 57.9941 25.046C59.3861 25.046 59.9781 25.862 59.9781 27.91C59.9781 29.958 59.3861 30.774 57.9941 30.774ZM66.0013 32.118C67.3453 32.118 68.1293 31.654 68.4973 30.87L68.7373 31.958H70.0333V26.822C70.0333 24.854 69.0893 23.75 66.7693 23.75C65.6973 23.75 64.6733 23.91 64.1933 24.022L63.9533 25.414C64.4813 25.27 65.5373 25.094 66.4973 25.094C68.0013 25.094 68.4973 25.638 68.4973 26.822V27.27H66.1453C64.2733 27.27 63.2973 28.15 63.2973 29.606C63.2973 31.142 64.2253 32.118 66.0013 32.118ZM66.3373 30.902C65.2973 30.902 64.8333 30.422 64.8333 29.606C64.8333 28.806 65.2973 28.358 66.4013 28.358H68.4973V28.918C68.4973 30.342 67.7293 30.902 66.3373 30.902ZM73.1946 35.158C74.2346 35.158 74.9866 34.598 75.5146 33.158L78.9226 23.846H77.3226L75.1946 30.006L72.8586 23.846H71.1946L74.4266 31.958L74.1226 32.726C73.8346 33.542 73.4346 33.798 72.8106 33.798C72.3786 33.798 71.9786 33.67 71.7866 33.574L72.0426 34.902C72.2026 35.014 72.6346 35.158 73.1946 35.158Z" fill="white"/>
<path d="M311.179 19.5995L316.573 24.993L311.179 30.4217" stroke="white" stroke-width="2" stroke-linecap="round" stroke-linejoin="round"/>
</svg>
