<svg width="376" height="177" viewBox="0 0 376 177" fill="none" xmlns="http://www.w3.org/2000/svg">
<rect x="0.855469" y="0.804138" width="375" height="176" fill="url(#paint0_linear_183_2195)"/>
<path d="M0.855469 136.804C123.656 37.5053 113.8 178.214 375.855 169.845V176.804H0.855469V136.804Z" fill="white" fill-opacity="0.1"/>
<path d="M375.945 40.8041C253.145 140.103 263.001 -0.606059 0.9453 7.76333L0.945299 0.804097L375.945 0.804031L375.945 40.8041Z" fill="white" fill-opacity="0.1"/>
<path d="M57.6655 63.3445L54.0955 68.4745L50.5105 63.3445H49.1905V73.8445H50.6305V65.9095L54.0805 70.7995L57.5005 65.9095V73.8445H58.9705V63.3445H57.6655ZM64.0588 73.9945C65.2138 73.9945 65.9038 73.5595 66.3088 72.8395L66.5488 73.8445H67.7488V66.2395H66.3088V70.5595C66.3088 71.9995 65.7988 72.7045 64.4638 72.7045C63.2038 72.7045 62.6938 71.9995 62.6938 70.5595V66.2395H61.2538V70.8745C61.2538 72.7945 62.1688 73.9945 64.0588 73.9945ZM72.3256 74.0095C74.4856 74.0095 75.4306 73.1545 75.4306 71.7295C75.4306 70.4695 74.8606 69.8245 73.3456 69.5095L72.1156 69.2695C71.2456 69.1045 70.9606 68.8345 70.9606 68.2945C70.9606 67.7245 71.4256 67.3495 72.7756 67.3495C73.7956 67.3495 74.6506 67.5895 75.0256 67.7695L74.9356 66.4495C74.5306 66.3145 73.6306 66.1045 72.6256 66.1045C70.5106 66.1045 69.5656 66.9595 69.5656 68.3395C69.5656 69.5395 70.1206 70.1995 71.5906 70.4995L72.8506 70.7545C73.7656 70.9345 74.0056 71.1895 74.0056 71.7595C74.0056 72.3595 73.5406 72.7645 72.2206 72.7645C71.1106 72.7645 70.0456 72.4795 69.5656 72.2695L69.7906 73.5895C70.2556 73.7695 71.2456 74.0095 72.3256 74.0095ZM77.1205 65.1145H78.5605V63.4795H77.1205V65.1145ZM77.1205 73.8445H78.5605V66.2395H77.1205V73.8445ZM83.8108 73.9945C84.7708 73.9945 85.5058 73.7695 85.7908 73.6045L86.0158 72.2695C85.6108 72.4645 84.7708 72.7345 83.9308 72.7345C82.5058 72.7345 81.8458 71.9545 81.8458 70.0495C81.8458 68.1445 82.5058 67.3645 83.9758 67.3645C84.7108 67.3645 85.4758 67.5895 85.8508 67.7695L85.7758 66.4795C85.4908 66.3295 84.7558 66.1045 83.8558 66.1045C81.5008 66.1045 80.3758 67.3645 80.3758 70.0495C80.3758 72.7195 81.5008 73.9945 83.8108 73.9945ZM89.558 73.9945C90.818 73.9945 91.553 73.5595 91.898 72.8245L92.123 73.8445H93.338V69.0295C93.338 67.1845 92.453 66.1495 90.278 66.1495C89.273 66.1495 88.313 66.2995 87.863 66.4045L87.638 67.7095C88.133 67.5745 89.123 67.4095 90.023 67.4095C91.433 67.4095 91.898 67.9195 91.898 69.0295V69.4495H89.693C87.938 69.4495 87.023 70.2745 87.023 71.6395C87.023 73.0795 87.893 73.9945 89.558 73.9945ZM89.873 72.8545C88.898 72.8545 88.463 72.4045 88.463 71.6395C88.463 70.8895 88.898 70.4695 89.933 70.4695H91.898V70.9945C91.898 72.3295 91.178 72.8545 89.873 72.8545ZM95.5336 73.8445H96.9736V63.2095L95.5336 63.4345V73.8445ZM105.05 74.0095C107.21 74.0095 108.155 73.1545 108.155 71.7295C108.155 70.4695 107.585 69.8245 106.07 69.5095L104.84 69.2695C103.97 69.1045 103.685 68.8345 103.685 68.2945C103.685 67.7245 104.15 67.3495 105.5 67.3495C106.52 67.3495 107.375 67.5895 107.75 67.7695L107.66 66.4495C107.255 66.3145 106.355 66.1045 105.35 66.1045C103.235 66.1045 102.29 66.9595 102.29 68.3395C102.29 69.5395 102.845 70.1995 104.315 70.4995L105.575 70.7545C106.49 70.9345 106.73 71.1895 106.73 71.7595C106.73 72.3595 106.265 72.7645 104.945 72.7645C103.835 72.7645 102.77 72.4795 102.29 72.2695L102.515 73.5895C102.98 73.7695 103.97 74.0095 105.05 74.0095ZM112.695 73.9945C114.99 73.9945 116.01 72.7795 116.01 70.0495C116.01 67.3195 114.99 66.1045 112.695 66.1045C110.415 66.1045 109.38 67.3195 109.38 70.0495C109.38 72.7795 110.415 73.9945 112.695 73.9945ZM112.695 72.7345C111.39 72.7345 110.85 71.9695 110.85 70.0495C110.85 68.1295 111.39 67.3645 112.695 67.3645C114.015 67.3645 114.555 68.1295 114.555 70.0495C114.555 71.9695 114.015 72.7345 112.695 72.7345ZM120.558 73.9945C121.713 73.9945 122.403 73.5595 122.808 72.8395L123.048 73.8445H124.248V66.2395H122.808V70.5595C122.808 71.9995 122.298 72.7045 120.963 72.7045C119.703 72.7045 119.193 71.9995 119.193 70.5595V66.2395H117.753V70.8745C117.753 72.7945 118.668 73.9945 120.558 73.9945ZM126.515 73.8445H127.955V69.5395C127.955 68.0995 128.465 67.3945 129.8 67.3945C131.075 67.3945 131.57 68.0995 131.57 69.5395V73.8445H133.01V69.2245C133.01 67.3045 132.095 66.1045 130.205 66.1045C129.05 66.1045 128.36 66.5395 127.955 67.2595L127.73 66.2395H126.515V73.8445ZM139.942 63.4345V67.2595C139.792 66.9145 139.147 66.1045 137.677 66.1045C135.682 66.1045 134.752 67.2895 134.752 70.0495C134.752 72.8095 135.682 73.9945 137.677 73.9945C139.147 73.9945 139.792 73.1845 139.942 72.8395L140.152 73.8445H141.382V63.2095L139.942 63.4345ZM138.082 72.7345C136.762 72.7345 136.222 71.9695 136.222 70.0495C136.222 68.1295 136.762 67.3645 138.082 67.3645C139.387 67.3645 139.942 68.1295 139.942 70.0495C139.942 71.9695 139.387 72.7345 138.082 72.7345ZM155.315 66.2395L154.01 71.9695L151.7 66.2545H151.505L149.18 71.9995L147.875 66.2395H146.45L148.22 73.8445H149.72L151.565 69.1945L153.425 73.8445H154.925L156.695 66.2395H155.315ZM160.076 73.9945C161.336 73.9945 162.071 73.5595 162.416 72.8245L162.641 73.8445H163.856V69.0295C163.856 67.1845 162.971 66.1495 160.796 66.1495C159.791 66.1495 158.831 66.2995 158.381 66.4045L158.156 67.7095C158.651 67.5745 159.641 67.4095 160.541 67.4095C161.951 67.4095 162.416 67.9195 162.416 69.0295V69.4495H160.211C158.456 69.4495 157.541 70.2745 157.541 71.6395C157.541 73.0795 158.411 73.9945 160.076 73.9945ZM160.391 72.8545C159.416 72.8545 158.981 72.4045 158.981 71.6395C158.981 70.8895 159.416 70.4695 160.451 70.4695H162.416V70.9945C162.416 72.3295 161.696 72.8545 160.391 72.8545ZM170.719 66.2395L168.604 72.0595L166.504 66.2395H164.959L167.869 73.8445H169.324L172.219 66.2395H170.719ZM176.779 73.9945C177.679 73.9945 178.534 73.7995 178.939 73.6645L179.164 72.3445C178.714 72.5095 177.754 72.7345 176.824 72.7345C175.069 72.7345 174.439 71.9545 174.409 70.5145H179.599V70.0345C179.599 67.2445 178.399 66.1045 176.329 66.1045C174.124 66.1045 172.954 67.4695 172.954 70.0195C172.954 72.5995 174.019 73.9945 176.779 73.9945ZM174.409 69.4945C174.454 68.0545 175.144 67.3045 176.329 67.3045C177.454 67.3045 178.174 67.9345 178.219 69.4945H174.409ZM183.668 74.0095C185.828 74.0095 186.773 73.1545 186.773 71.7295C186.773 70.4695 186.203 69.8245 184.688 69.5095L183.458 69.2695C182.588 69.1045 182.303 68.8345 182.303 68.2945C182.303 67.7245 182.768 67.3495 184.118 67.3495C185.138 67.3495 185.993 67.5895 186.368 67.7695L186.278 66.4495C185.873 66.3145 184.973 66.1045 183.968 66.1045C181.853 66.1045 180.908 66.9595 180.908 68.3395C180.908 69.5395 181.463 70.1995 182.933 70.4995L184.193 70.7545C185.108 70.9345 185.348 71.1895 185.348 71.7595C185.348 72.3595 184.883 72.7645 183.563 72.7645C182.453 72.7645 181.388 72.4795 180.908 72.2695L181.133 73.5895C181.598 73.7695 182.588 74.0095 183.668 74.0095ZM194.905 73.9945C195.865 73.9945 196.6 73.7695 196.885 73.6045L197.11 72.2695C196.705 72.4645 195.865 72.7345 195.025 72.7345C193.6 72.7345 192.94 71.9545 192.94 70.0495C192.94 68.1445 193.6 67.3645 195.07 67.3645C195.805 67.3645 196.57 67.5895 196.945 67.7695L196.87 66.4795C196.585 66.3295 195.85 66.1045 194.95 66.1045C192.595 66.1045 191.47 67.3645 191.47 70.0495C191.47 72.7195 192.595 73.9945 194.905 73.9945ZM200.652 73.9945C201.912 73.9945 202.647 73.5595 202.992 72.8245L203.217 73.8445H204.432V69.0295C204.432 67.1845 203.547 66.1495 201.372 66.1495C200.367 66.1495 199.407 66.2995 198.957 66.4045L198.732 67.7095C199.227 67.5745 200.217 67.4095 201.117 67.4095C202.527 67.4095 202.992 67.9195 202.992 69.0295V69.4495H200.787C199.032 69.4495 198.117 70.2745 198.117 71.6395C198.117 73.0795 198.987 73.9945 200.652 73.9945ZM200.967 72.8545C199.992 72.8545 199.557 72.4045 199.557 71.6395C199.557 70.8895 199.992 70.4695 201.027 70.4695H202.992V70.9945C202.992 72.3295 202.272 72.8545 200.967 72.8545ZM206.627 73.8445H208.067V63.2095L206.627 63.4345V73.8445ZM218.613 66.1045C217.458 66.1045 216.693 66.5245 216.153 67.4245C215.793 66.5545 215.013 66.1045 213.918 66.1045C212.823 66.1045 212.178 66.5395 211.788 67.2595L211.563 66.2395H210.348V73.8445H211.788V69.4945C211.788 68.0995 212.268 67.3945 213.498 67.3945C214.668 67.3945 215.133 68.0995 215.133 69.4945V73.8445H216.573V69.4945C216.573 68.0995 217.068 67.3945 218.298 67.3945C219.453 67.3945 219.918 68.0995 219.918 69.4945V73.8445H221.358V69.1795C221.358 67.2895 220.458 66.1045 218.613 66.1045ZM227.669 76.8445C228.644 76.8445 229.349 76.3195 229.844 74.9695L233.039 66.2395H231.539L229.544 72.0145L227.354 66.2395H225.794L228.824 73.8445L228.539 74.5645C228.269 75.3295 227.894 75.5695 227.309 75.5695C226.904 75.5695 226.529 75.4495 226.349 75.3595L226.589 76.6045C226.739 76.7095 227.144 76.8445 227.669 76.8445ZM237.119 73.9945C239.414 73.9945 240.434 72.7795 240.434 70.0495C240.434 67.3195 239.414 66.1045 237.119 66.1045C234.839 66.1045 233.804 67.3195 233.804 70.0495C233.804 72.7795 234.839 73.9945 237.119 73.9945ZM237.119 72.7345C235.814 72.7345 235.274 71.9695 235.274 70.0495C235.274 68.1295 235.814 67.3645 237.119 67.3645C238.439 67.3645 238.979 68.1295 238.979 70.0495C238.979 71.9695 238.439 72.7345 237.119 72.7345ZM244.982 73.9945C246.137 73.9945 246.827 73.5595 247.232 72.8395L247.472 73.8445H248.672V66.2395H247.232V70.5595C247.232 71.9995 246.722 72.7045 245.387 72.7045C244.127 72.7045 243.617 71.9995 243.617 70.5595V66.2395H242.177V70.8745C242.177 72.7945 243.092 73.9945 244.982 73.9945ZM51.9505 92.9945C52.9105 92.9945 53.6455 92.7695 53.9305 92.6045L54.1555 91.2695C53.7505 91.4645 52.9105 91.7345 52.0705 91.7345C50.6455 91.7345 49.9855 90.9545 49.9855 89.0495C49.9855 87.1445 50.6455 86.3645 52.1155 86.3645C52.8505 86.3645 53.6155 86.5895 53.9905 86.7695L53.9155 85.4795C53.6305 85.3295 52.8955 85.1045 51.9955 85.1045C49.6405 85.1045 48.5155 86.3645 48.5155 89.0495C48.5155 91.7195 49.6405 92.9945 51.9505 92.9945ZM58.613 92.9945C60.908 92.9945 61.928 91.7795 61.928 89.0495C61.928 86.3195 60.908 85.1045 58.613 85.1045C56.333 85.1045 55.298 86.3195 55.298 89.0495C55.298 91.7795 56.333 92.9945 58.613 92.9945ZM58.613 91.7345C57.308 91.7345 56.768 90.9695 56.768 89.0495C56.768 87.1295 57.308 86.3645 58.613 86.3645C59.933 86.3645 60.473 87.1295 60.473 89.0495C60.473 90.9695 59.933 91.7345 58.613 91.7345ZM63.7607 92.8445H65.2007V88.5395C65.2007 87.0995 65.7107 86.3945 67.0457 86.3945C68.3207 86.3945 68.8157 87.0995 68.8157 88.5395V92.8445H70.2557V88.2245C70.2557 86.3045 69.3407 85.1045 67.4507 85.1045C66.2957 85.1045 65.6057 85.5395 65.2007 86.2595L64.9757 85.2395H63.7607V92.8445ZM74.7426 93.0095C76.9026 93.0095 77.8476 92.1545 77.8476 90.7295C77.8476 89.4695 77.2776 88.8245 75.7626 88.5095L74.5326 88.2695C73.6626 88.1045 73.3776 87.8345 73.3776 87.2945C73.3776 86.7245 73.8426 86.3495 75.1926 86.3495C76.2126 86.3495 77.0676 86.5895 77.4426 86.7695L77.3526 85.4495C76.9476 85.3145 76.0476 85.1045 75.0426 85.1045C72.9276 85.1045 71.9826 85.9595 71.9826 87.3395C71.9826 88.5395 72.5376 89.1995 74.0076 89.4995L75.2676 89.7545C76.1826 89.9345 76.4226 90.1895 76.4226 90.7595C76.4226 91.3595 75.9576 91.7645 74.6376 91.7645C73.5276 91.7645 72.4626 91.4795 71.9826 91.2695L72.2076 92.5895C72.6726 92.7695 73.6626 93.0095 74.7426 93.0095ZM79.5375 84.1145H80.9775V82.4795H79.5375V84.1145ZM79.5375 92.8445H80.9775V85.2395H79.5375V92.8445ZM88.0128 82.4345V86.2595C87.8628 85.9145 87.2178 85.1045 85.7478 85.1045C83.7528 85.1045 82.8228 86.2895 82.8228 89.0495C82.8228 91.8095 83.7528 92.9945 85.7478 92.9945C87.2178 92.9945 87.8628 92.1845 88.0128 91.8395L88.2228 92.8445H89.4528V82.2095L88.0128 82.4345ZM86.1528 91.7345C84.8328 91.7345 84.2928 90.9695 84.2928 89.0495C84.2928 87.1295 84.8328 86.3645 86.1528 86.3645C87.4578 86.3645 88.0128 87.1295 88.0128 89.0495C88.0128 90.9695 87.4578 91.7345 86.1528 91.7345ZM95.0846 92.9945C95.9846 92.9945 96.8396 92.7995 97.2446 92.6645L97.4696 91.3445C97.0196 91.5095 96.0596 91.7345 95.1296 91.7345C93.3746 91.7345 92.7446 90.9545 92.7146 89.5145H97.9046V89.0345C97.9046 86.2445 96.7046 85.1045 94.6346 85.1045C92.4296 85.1045 91.2596 86.4695 91.2596 89.0195C91.2596 91.5995 92.3246 92.9945 95.0846 92.9945ZM92.7146 88.4945C92.7596 87.0545 93.4496 86.3045 94.6346 86.3045C95.7596 86.3045 96.4796 86.9345 96.5246 88.4945H92.7146ZM99.6641 92.8445H101.104V88.4345C101.104 87.0095 101.839 86.3645 103.024 86.3645C103.654 86.3645 104.164 86.5595 104.359 86.6795L104.269 85.2995C104.104 85.2095 103.699 85.1045 103.234 85.1045C102.229 85.1045 101.569 85.4645 101.104 86.2445L100.879 85.2395H99.6641V92.8445ZM107.444 92.9945C108.704 92.9945 109.439 92.5595 109.784 91.8245L110.009 92.8445H111.224V88.0295C111.224 86.1845 110.339 85.1495 108.164 85.1495C107.159 85.1495 106.199 85.2995 105.749 85.4045L105.524 86.7095C106.019 86.5745 107.009 86.4095 107.909 86.4095C109.319 86.4095 109.784 86.9195 109.784 88.0295V88.4495H107.579C105.824 88.4495 104.909 89.2745 104.909 90.6395C104.909 92.0795 105.779 92.9945 107.444 92.9945ZM107.759 91.8545C106.784 91.8545 106.349 91.4045 106.349 90.6395C106.349 89.8895 106.784 89.4695 107.819 89.4695H109.784V89.9945C109.784 91.3295 109.064 91.8545 107.759 91.8545ZM117.094 85.1045C115.639 85.1045 114.979 85.9145 114.844 86.2595V82.2095L113.404 82.4345V92.8445H114.619L114.844 91.8395C114.979 92.1845 115.639 92.9945 117.094 92.9945C119.104 92.9945 120.019 91.8095 120.019 89.0495C120.019 86.2895 119.104 85.1045 117.094 85.1045ZM116.689 91.7345C115.384 91.7345 114.844 90.9695 114.844 89.0495C114.844 87.1295 115.384 86.3645 116.689 86.3645C118.009 86.3645 118.549 87.1295 118.549 89.0495C118.549 90.9695 118.009 91.7345 116.689 91.7345ZM121.871 92.8445H123.311V82.2095L121.871 82.4345V92.8445ZM126.507 95.8445C127.482 95.8445 128.187 95.3195 128.682 93.9695L131.877 85.2395H130.377L128.382 91.0145L126.192 85.2395H124.632L127.662 92.8445L127.377 93.5645C127.107 94.3295 126.732 94.5695 126.147 94.5695C125.742 94.5695 125.367 94.4495 125.187 94.3595L125.427 95.6045C125.577 95.7095 125.982 95.8445 126.507 95.8445ZM133.569 89.6345H134.604L134.934 82.3445H133.239L133.569 89.6345ZM133.254 92.8445H134.919V90.9695H133.254V92.8445Z" fill="white"/>
<path d="M64.4833 33.0041L59.1793 40.6361L53.8753 33.0041H51.1393V49.8041H54.1633V38.3801L59.1553 45.4841L64.0993 38.3801V49.8041H67.1953V33.0041H64.4833ZM74.7623 50.0441C76.4423 50.0441 77.4263 49.4201 78.1223 48.4601L78.6023 49.8041H81.1463V37.5641H78.1223V44.4521C78.1223 46.3241 77.4983 47.3561 75.6983 47.3561C74.0423 47.3561 73.4423 46.3241 73.4423 44.4521V37.5641H70.4183V45.1481C70.4183 48.0041 71.8583 50.0441 74.7623 50.0441ZM88.2533 50.0441C91.8773 50.0441 93.4853 48.6521 93.4853 46.2041C93.4853 44.0441 92.5733 43.0121 90.1013 42.5081L88.2533 42.1481C87.0293 41.9081 86.7413 41.6201 86.7413 40.9961C86.7413 40.3481 87.3653 39.9401 89.3093 39.9401C90.9413 39.9401 92.2853 40.3001 92.8613 40.5641L92.6933 37.8521C92.0213 37.6361 90.5573 37.3241 88.9733 37.3241C85.4453 37.3241 83.8133 38.7401 83.8133 41.0921C83.8133 43.1321 84.7253 44.2121 87.1253 44.6921L89.0693 45.0761C90.2933 45.3161 90.5333 45.6041 90.5333 46.2761C90.5333 46.9481 89.9093 47.4521 88.0133 47.4521C86.2853 47.4521 84.5333 46.9961 83.7173 46.6361L84.1973 49.3961C84.9653 49.6841 86.5973 50.0441 88.2533 50.0441ZM95.8976 35.8841H98.9216V33.0281H95.8976V35.8841ZM95.8976 49.8041H98.9216V37.5641H95.8976V49.8041ZM107.147 50.0441C108.683 50.0441 109.883 49.6841 110.339 49.4201L110.819 46.6361C110.099 46.9721 108.683 47.4041 107.387 47.4041C105.443 47.4041 104.579 46.3721 104.579 43.6841C104.579 40.9961 105.443 39.9641 107.411 39.9641C108.563 39.9641 109.835 40.3241 110.483 40.6121L110.315 37.9481C109.859 37.6841 108.683 37.3241 107.171 37.3241C103.355 37.3241 101.507 39.3641 101.507 43.6841C101.507 48.0041 103.355 50.0441 107.147 50.0441Z" fill="white"/>
<path d="M21.0339 46.8607L16.3609 42.1877L21.0339 37.4842" stroke="white" stroke-width="2" stroke-linecap="round" stroke-linejoin="round"/>
<path d="M16.6562 41.9647H31.3544" stroke="white" stroke-width="2" stroke-linecap="round"/>
<path d="M326.781 120.479C326 128.832 326.473 138.987 321.864 146.357C318.243 152.13 311.869 155.467 305.499 157.293C291.481 161.303 272.888 159.491 265.459 145.094C262.495 139.342 263.379 128.346 270.062 125.203C273.491 123.598 277.3 123.645 280.987 123.176C285.851 122.573 289.602 120.409 292.379 116.342C297.802 108.421 297.822 102.072 299.912 92.9796C300.304 91.2944 300.94 89.6661 302.826 88.46C304.453 87.1868 306.53 86.4464 308.707 86.1884C310.59 85.7194 312.522 85.5619 314.428 86.041C318.444 87.0327 321.834 91.3379 324.661 94.1187C327.521 96.9364 328.643 99.6166 328.335 103.657C327.9 109.269 327.3 114.871 326.781 120.479Z" fill="#0D0D0D"/>
<path d="M327.263 124.533C327.484 116.831 327.554 109.138 327.675 101.439C327.675 101.392 327.604 101.382 327.601 101.433C327.32 107.765 326.948 114.087 326.75 120.426C326.553 126.637 326.78 133.04 326.04 139.211C324.379 153.068 309.39 156.72 297.734 154.408C297.205 154.304 297.098 155.159 297.637 155.249C307.933 156.955 320.758 155.139 325.437 144.341C327.996 138.434 327.085 130.832 327.266 124.537L327.263 124.533Z" fill="#263238"/>
<path d="M300.679 92.3497C300.695 92.2023 300.478 92.1788 300.451 92.3229C299.047 99.8746 298.12 108.813 292.874 114.831C290.305 117.776 286.849 119.92 283.061 120.885C280.046 121.652 277.008 121.33 273.943 121.501C261.959 122.171 259.658 137.911 267.278 145.235C267.439 145.389 267.71 145.121 267.556 144.957C262.251 139.372 261.483 130.453 267.231 124.781C271.843 120.231 279.118 122.888 284.826 120.881C296.653 116.717 299.382 103.416 300.682 92.3464L300.679 92.3497Z" fill="#263238"/>
<path d="M352.692 105.423C351.7 104.304 344.811 95.1506 338.976 92.1654C335.888 90.5874 326.908 87.2002 325.712 88.9625C324.62 90.5673 326.854 92.1017 326.854 92.1017C326.854 92.1017 322.828 90.651 321.338 92.9025C319.847 95.1539 323.749 97.5427 323.749 97.5427C323.749 97.5427 319.506 96.3533 318.179 98.7053C316.853 101.057 321.177 102.803 321.177 102.803C321.177 102.803 317.349 101.536 317.071 103.932C316.736 106.817 324.058 108.354 327.116 110.676C327.809 111.205 340.426 122.379 340.426 122.379L352.692 105.419V105.423Z" fill="#FF9284"/>
<path d="M321.194 102.957C326.577 104.099 328.734 105.533 332.612 109.313C332.689 109.386 332.817 109.289 332.743 109.205C329.28 105.158 326.834 102.97 321.234 102.692C320.96 102.679 320.936 102.9 321.194 102.957Z" fill="#263238"/>
<path d="M323.747 97.7002C329.233 99.3754 331.588 100.91 335.942 104.568C336.002 104.619 336.096 104.522 336.039 104.465C332.067 100.515 329.578 98.3904 323.874 97.4355C323.616 97.392 323.495 97.6231 323.747 97.7002Z" fill="#263238"/>
<path d="M327.059 92.286C332.254 94.2929 334.907 95.8608 338.678 99.9583C338.769 100.055 338.916 99.9349 338.836 99.8277C335.396 95.2745 332.1 93.2945 327.136 92.1319C326.798 92.0515 326.731 92.1587 327.059 92.2827V92.286Z" fill="#263238"/>
<path d="M341.086 126.771C341.086 126.771 334.591 124.456 331.962 122.811C329.333 121.166 321.793 111.423 323.806 109.674C326.402 107.416 331.862 112.184 334.233 114.867C334.233 114.867 340.235 109.641 344.894 112.214C349.553 114.787 341.089 126.775 341.089 126.775L341.086 126.771Z" fill="#FF9284"/>
<path d="M324.724 109.286C328.576 108.937 331.46 112.659 333.952 115.092C334.143 115.276 334.357 115.189 334.471 115.018C337.134 112.995 341.478 110.917 344.834 112.003C344.931 112.033 344.992 111.899 344.898 111.855C341.455 110.2 337.02 111.896 334.247 114.298C331.728 111.765 328.673 108.157 324.721 109.252C324.697 109.259 324.701 109.292 324.727 109.289L324.724 109.286Z" fill="#263238"/>
<path d="M320.664 130.071C326.482 136.682 344.137 153.919 357.937 160.01C363.303 162.379 369.268 160.864 371.911 158.198C381.249 148.776 355.659 106.756 351.258 103.932C348.883 102.407 334.996 121.551 338.108 125.381C339.384 126.952 343.561 131.76 343.561 131.76C343.196 132.021 336.872 127.2 325.658 123.384C314.923 119.729 317.054 125.974 320.664 130.075V130.071Z" fill="#FF9284"/>
<path d="M361.765 155.581C361.122 154.844 360.533 154.057 359.93 153.286C359.327 152.512 358.694 151.762 358.091 150.991C356.892 149.46 355.659 147.952 354.46 146.421C352.062 143.355 349.717 140.253 347.436 137.1C346.797 136.216 346.157 135.331 345.524 134.44C344.881 133.539 344.191 132.671 343.561 131.763C343.491 131.663 343.347 131.777 343.41 131.877C343.93 132.711 344.412 133.569 344.938 134.4C345.464 135.228 346.006 136.048 346.559 136.856C347.654 138.464 348.78 140.049 349.932 141.617C352.239 144.753 354.651 147.808 357.2 150.756C357.917 151.587 358.67 152.388 359.401 153.202C360.147 154.03 360.961 154.797 361.712 155.624C361.738 155.655 361.792 155.618 361.762 155.584L361.765 155.581Z" fill="#263238"/>
<path d="M342.429 130.664L332.234 143.382C332.234 143.382 325.391 136.618 319.683 129.632C313.976 122.647 315.57 118 327.735 123.196C337.281 127.277 342.433 130.661 342.433 130.661L342.429 130.664Z" fill="#FCF315"/>
<path d="M325.977 128.748C325.977 129.137 325.662 129.452 325.274 129.452C324.885 129.452 324.57 129.137 324.57 128.748C324.57 128.359 324.885 128.044 325.274 128.044C325.662 128.044 325.977 128.359 325.977 128.748ZM332.431 128.044C332.043 128.044 331.728 128.359 331.728 128.748C331.728 129.137 332.043 129.452 332.431 129.452C332.82 129.452 333.135 129.137 333.135 128.748C333.135 128.359 332.82 128.044 332.431 128.044ZM340.081 129.254C339.954 129.378 339.783 129.455 339.592 129.455C339.204 129.455 338.889 129.137 338.889 128.748C338.889 128.694 338.896 128.644 338.906 128.597L340.081 129.254ZM321.69 122.952C321.301 122.952 320.986 123.267 320.986 123.655C320.986 124.044 321.301 124.359 321.69 124.359C322.078 124.359 322.393 124.044 322.393 123.655C322.393 123.267 322.078 122.952 321.69 122.952ZM328.194 123.397C328.164 123.478 328.147 123.568 328.147 123.659C328.147 124.047 328.462 124.362 328.851 124.362C329.129 124.362 329.37 124.198 329.487 123.964C329.065 123.776 328.633 123.588 328.194 123.397ZM332.431 138.725C332.043 138.725 331.728 139.04 331.728 139.429C331.728 139.818 332.043 140.132 332.431 140.132C332.82 140.132 333.135 139.818 333.135 139.429C333.135 139.04 332.82 138.725 332.431 138.725ZM328.851 133.633C328.462 133.633 328.147 133.948 328.147 134.336C328.147 134.725 328.462 135.04 328.851 135.04C329.239 135.04 329.554 134.725 329.554 134.336C329.554 133.948 329.239 133.633 328.851 133.633ZM336.012 133.633C335.623 133.633 335.308 133.948 335.308 134.336C335.308 134.725 335.623 135.04 336.012 135.04C336.4 135.04 336.715 134.725 336.715 134.336C336.715 133.948 336.4 133.633 336.012 133.633Z" fill="white"/>
<path d="M338.869 129.629C338.256 130.577 337.496 131.432 336.776 132.289C336.052 133.15 335.316 133.998 334.575 134.842C333.828 135.693 333.081 136.548 332.314 137.378C331.527 138.236 330.7 139.04 329.896 139.871C329.849 139.918 329.766 139.844 329.809 139.794C330.512 138.91 331.186 138.005 331.909 137.141C332.633 136.28 333.373 135.435 334.11 134.588C334.853 133.733 335.607 132.886 336.371 132.051C337.151 131.2 337.918 130.306 338.796 129.562C338.839 129.525 338.903 129.579 338.869 129.629Z" fill="#263238"/>
<path opacity="0.1" d="M337.965 136.236L332.234 143.386C332.234 143.386 325.391 136.625 319.683 129.636C316.924 126.262 315.872 123.431 316.89 121.994L337.965 136.236Z" fill="#FCF315"/>
<path d="M336.806 176.618L333.379 155.591C333.379 155.591 338.105 147.336 335.365 141.412C333.982 138.41 325.595 126.406 320.481 122.694C315.684 119.213 309.431 120.225 306.838 122.952C296.854 133.465 290.979 148.187 287.392 176.618H336.806Z" fill="#FF9284"/>
<path d="M336.806 169.981L333.38 155.591C333.38 155.591 338.106 147.336 335.366 141.412C333.983 138.41 324.611 124.721 319.496 121.009C314.7 117.528 307.455 120.556 304.863 123.287C294.878 133.8 290.537 147.761 286.438 169.984H336.806V169.981Z" fill="#FCF315"/>
<path d="M325 152.515C322.572 152.767 320.137 153.098 317.769 153.705C316.59 154.006 315.434 154.361 314.278 154.74C313.702 154.931 313.123 155.098 312.543 155.266C311.947 155.437 311.304 155.598 310.681 155.618C310.624 155.618 310.628 155.705 310.681 155.705C311.287 155.722 311.87 155.735 312.476 155.671C313.053 155.611 313.625 155.487 314.188 155.35C315.387 155.055 316.569 154.703 317.765 154.398C320.177 153.778 322.585 153.159 325.033 152.716C325.147 152.696 325.117 152.502 325.003 152.515H325Z" fill="#263238"/>
<path d="M331.019 154.676C329.023 154.472 326.987 154.361 324.977 154.385C323.965 154.398 322.964 154.469 321.959 154.566C321.48 154.613 321.001 154.666 320.522 154.73C319.996 154.797 319.477 154.934 318.951 154.995C318.898 155.001 318.898 155.085 318.951 155.082C319.45 155.041 319.956 155.082 320.459 155.072C320.961 155.058 321.463 155.045 321.966 155.031C322.971 155.008 323.979 154.995 324.984 154.961C326.997 154.894 329.003 154.844 331.019 154.847C331.13 154.847 331.12 154.693 331.019 154.683V154.676Z" fill="#263238"/>
<path d="M307.663 127.234C301.302 129.438 271.465 129.927 267.737 125.605C260.804 117.564 258.409 95.4856 257.264 92.8154C254.119 85.5016 277.655 83.5148 278.365 88.145C279.554 95.8843 281.071 111.102 282.696 111.691C287.509 113.44 296.656 116.62 307.03 119.591C314.264 121.665 314.686 124.791 307.663 127.23V127.234Z" fill="#FF9284"/>
<path d="M257.951 95.4454C259.558 97.5963 276.717 93.3782 277.836 90.8554C278.044 90.3796 278.231 89.4181 278.369 88.1483H278.375C278.375 88.1483 281.139 82.6537 285.061 78.9013C288.35 75.7453 293.595 71.4334 291.964 69.6007C289.593 66.9205 282.304 71.5741 278.285 74.5023C277.974 71.8153 277.451 69.5337 276.661 68.3142C274.028 64.267 254.484 73.7049 253.998 78.5864C253.529 83.2936 256.343 93.2911 257.951 95.4454Z" fill="#FF9284"/>
<path d="M279.458 75.3533C277.957 77.3602 276.45 74.442 276.45 74.442C276.45 74.442 277.605 79.166 275.257 80.6368C272.99 82.0473 271.295 78.4591 271.171 78.2011C271.231 78.4524 272.176 82.8213 269.667 84.0542C267.055 85.334 265.973 81.4376 265.906 81.1863C265.886 81.4409 265.584 84.7946 263.464 85.2972C259.817 86.1616 260.356 77.5646 258.256 75.3768C258.256 75.3768 254.139 78.5161 254.002 78.5797C254.002 78.5797 254.347 70.3914 257.459 67.7212C259.1 66.3141 260.734 67.5637 260.734 67.5637C260.734 67.5637 260.553 64.9103 262.499 63.875C263.501 63.3456 265.236 64.4781 265.236 64.4781C265.236 64.4781 265.179 62.3472 266.971 61.5365C268.398 60.8831 269.915 62.1194 269.915 62.1194C269.915 62.1194 270.809 60.0489 272.484 59.8546C275.857 59.4559 282.68 71.0481 279.468 75.3466L279.458 75.3533Z" fill="#FF9284"/>
<path d="M270.176 62.2836C270.149 62.2467 270.196 62.2032 270.229 62.2367C273.401 65.4999 275.89 70.0597 276.55 74.5928C276.57 74.7402 276.339 74.8407 276.285 74.6832C274.711 70.1435 272.956 66.237 270.179 62.2869L270.176 62.2836Z" fill="#263238"/>
<path d="M265.219 64.411C265.189 64.3675 265.259 64.3172 265.3 64.3574C268.552 67.7379 271.211 72.9511 271.355 78.2648C271.359 78.4457 271.181 78.6165 271.161 78.4055C270.796 74.8809 267.738 67.9557 265.223 64.411H265.219Z" fill="#263238"/>
<path d="M265.785 81.5648C265.45 76.4756 263.514 72.0063 260.868 67.7011C260.835 67.6441 260.915 67.6006 260.959 67.6408C262.828 69.393 264.228 72.3145 265.125 74.6799C265.986 76.9447 266.304 79.1593 265.963 81.5548C265.949 81.6486 265.792 81.6754 265.785 81.5648Z" fill="#263238"/>
<path d="M276.527 74.4822C276.554 74.6598 276.263 74.5023 276.283 74.6799C276.367 75.4337 276.487 80.0137 274.94 80.5397C273.697 80.9585 272.277 79.5781 271.935 78.8377L271.081 76.9682L271.232 79.022C271.299 79.9165 271.242 80.8747 271.014 81.7391C270.79 82.6002 270.334 83.4009 269.607 83.756C268.857 84.1447 268.03 84.0509 267.47 83.4344C266.891 82.8481 266.512 81.9535 266.298 81.1092L265.702 78.7472L265.494 81.1628C265.437 81.8162 265.297 82.5097 265.069 83.1362C264.841 83.7594 264.506 84.349 264.017 84.6941C263.542 85.0325 262.875 85.1163 262.393 84.8348C261.88 84.5467 261.502 83.9403 261.204 83.3339C260.604 82.0875 260.266 80.6938 259.864 79.3302C259.666 78.6467 259.469 77.9566 259.238 77.2764C258.996 76.6097 258.752 75.9028 258.246 75.3835C258.692 75.9497 258.852 76.66 259.047 77.3334C259.224 78.0202 259.365 78.7171 259.509 79.414C259.797 80.8111 260.105 82.2115 260.664 83.5751C260.966 84.2385 261.318 84.9487 262.034 85.4211C262.778 85.9003 263.763 85.783 264.439 85.3072C265.133 84.8248 265.521 84.1045 265.796 83.4109C266.064 82.6973 266.224 81.987 266.301 81.2232L265.498 81.2768C265.742 82.2785 266.104 83.23 266.854 84.0375C267.226 84.4328 267.762 84.7477 268.348 84.8147C268.937 84.8851 269.49 84.741 269.982 84.4898C271.001 83.9604 271.527 82.9017 271.764 81.9368C272.006 80.9417 272.049 79.9567 271.959 78.9449L271.255 79.1292C271.717 80.0606 273.141 81.7726 275.147 81.3672C277.683 80.4459 276.755 75.3969 276.517 74.4856L276.527 74.4822Z" fill="#263238"/>
<path d="M276.45 74.442C276.802 74.8608 277.18 75.2394 277.579 75.4873C277.978 75.7386 278.41 75.7721 278.755 75.5912C279.103 75.417 279.384 75.0015 279.622 74.5593C279.847 74.107 280.061 73.6212 280.262 73.1086C280.332 73.658 280.292 74.2175 280.131 74.7603C279.967 75.293 279.686 75.8726 279.076 76.211C278.761 76.3551 278.423 76.412 278.088 76.3551C277.756 76.2881 277.468 76.1239 277.251 75.9195C276.805 75.5108 276.564 74.9781 276.454 74.4387L276.45 74.442Z" fill="#263238"/>
<path d="M286.227 112.465L289.804 131.013C289.804 131.013 302.81 130.899 308.815 129.448C314.569 128.058 317.015 122.687 306.99 119.022C294.634 114.506 286.227 112.465 286.227 112.465Z" fill="#FCF315"/>
<path d="M290.176 118.067C290.176 118.456 289.861 118.771 289.473 118.771C289.084 118.771 288.769 118.456 288.769 118.067C288.769 117.678 289.084 117.363 289.473 117.363C289.861 117.363 290.176 117.678 290.176 118.067ZM296.63 117.363C296.242 117.363 295.927 117.678 295.927 118.067C295.927 118.456 296.242 118.771 296.63 118.771C297.019 118.771 297.334 118.456 297.334 118.067C297.334 117.678 297.019 117.363 296.63 117.363ZM303.205 117.672C303.132 117.786 303.085 117.923 303.085 118.067C303.085 118.456 303.4 118.774 303.791 118.774C304.16 118.774 304.461 118.489 304.491 118.127C304.056 117.97 303.627 117.819 303.205 117.672ZM286.415 112.512C286.287 112.482 286.224 112.465 286.224 112.465L286.411 113.444C286.522 113.32 286.592 113.159 286.592 112.978C286.592 112.797 286.525 112.636 286.415 112.512ZM289.469 128.044C289.389 128.044 289.308 128.058 289.235 128.081L289.499 129.455C289.875 129.438 290.173 129.127 290.173 128.748C290.173 128.369 289.858 128.044 289.469 128.044ZM296.63 128.044C296.242 128.044 295.927 128.359 295.927 128.748C295.927 129.137 296.242 129.452 296.63 129.452C297.019 129.452 297.334 129.137 297.334 128.748C297.334 128.359 297.019 128.044 296.63 128.044ZM303.791 128.044C303.403 128.044 303.088 128.359 303.088 128.748C303.088 129.137 303.403 129.452 303.791 129.452C304.18 129.452 304.495 129.137 304.495 128.748C304.495 128.359 304.18 128.044 303.791 128.044ZM310.949 128.044C310.561 128.044 310.246 128.359 310.246 128.748C310.246 128.828 310.259 128.902 310.286 128.976C310.735 128.795 311.153 128.584 311.532 128.349C311.405 128.165 311.194 128.044 310.949 128.044ZM293.05 122.952C292.661 122.952 292.346 123.267 292.346 123.655C292.346 124.044 292.661 124.359 293.05 124.359C293.438 124.359 293.753 124.044 293.753 123.655C293.753 123.267 293.438 122.952 293.05 122.952ZM300.211 122.952C299.822 122.952 299.507 123.267 299.507 123.655C299.507 124.044 299.822 124.359 300.211 124.359C300.599 124.359 300.914 124.044 300.914 123.655C300.914 123.267 300.599 122.952 300.211 122.952ZM307.372 122.952C306.983 122.952 306.669 123.267 306.669 123.655C306.669 124.044 306.983 124.359 307.372 124.359C307.76 124.359 308.075 124.044 308.075 123.655C308.075 123.267 307.76 122.952 307.372 122.952Z" fill="white"/>
<path d="M290.263 115.028C290.652 116.087 290.876 117.209 291.127 118.302C291.382 119.397 291.613 120.496 291.844 121.595C292.075 122.704 292.306 123.813 292.514 124.925C292.725 126.068 292.869 127.213 293.05 128.359C293.06 128.426 292.953 128.446 292.936 128.383C292.651 127.291 292.333 126.208 292.079 125.106C291.824 124.011 291.596 122.912 291.362 121.813C291.127 120.704 290.903 119.595 290.695 118.482C290.484 117.35 290.233 116.197 290.166 115.048C290.166 114.991 290.243 114.975 290.263 115.028Z" fill="#263238"/>
<path d="M289.804 131.013C291.278 130.879 292.748 130.788 294.219 130.708L298.627 130.48L303.031 130.262L307.442 130.001C306.009 130.373 304.542 130.604 303.075 130.785C301.608 130.969 300.13 131.07 298.657 131.15C297.18 131.217 295.706 131.247 294.229 131.231C292.752 131.214 291.275 131.16 289.801 131.016L289.804 131.013Z" fill="#263238"/>
<path d="M302.02 130.607C302.673 130.651 303.302 130.765 303.932 130.882C304.558 131.009 305.181 131.137 305.808 131.324C305.155 131.401 304.501 131.331 303.868 131.21C303.235 131.08 302.609 130.906 302.023 130.607H302.02Z" fill="#263238"/>
<path d="M304.253 118.04C304.253 118.04 309.354 128.121 317.225 129.495C325.096 130.869 323.462 121.639 323.462 121.639C323.462 121.639 320.015 120.231 314.703 119.444C311.149 118.915 304.253 118.04 304.253 118.04Z" fill="#EB9481"/>
<path d="M314.159 156.798C312.806 156.798 311.875 156.627 311.656 156.121C311.284 155.262 312.292 154.364 313.358 153.415C314.303 152.574 315.282 151.701 315.394 150.815C315.554 149.57 314.894 148.458 314.06 147.046C313.613 146.293 313.108 145.44 312.639 144.425C311.967 142.973 312.323 139.666 312.702 136.164C313.088 132.591 313.487 128.897 312.648 127.634C311.886 126.488 309.703 125.137 307.593 123.829C305.086 122.275 302.493 120.67 301.868 119.215C300.727 116.556 302.103 109.104 302.161 108.788L302.382 108.829C302.369 108.906 300.96 116.529 302.073 119.125C302.669 120.514 305.232 122.102 307.71 123.635C309.94 125.016 312.046 126.321 312.835 127.508C313.719 128.838 313.333 132.409 312.925 136.186C312.567 139.504 312.197 142.934 312.842 144.328C313.306 145.334 313.809 146.18 314.251 146.929C315.108 148.377 315.784 149.52 315.615 150.839C315.491 151.811 314.481 152.711 313.505 153.58C312.502 154.475 311.552 155.318 311.859 156.029C312.229 156.886 315.733 156.548 319.121 156.221C321.281 156.013 323.511 155.797 325.13 155.862C329.333 156.033 335.962 156.378 336.03 156.383L336.018 156.609C335.953 156.606 329.324 156.259 325.123 156.09C323.523 156.024 321.297 156.241 319.146 156.448C317.261 156.631 315.503 156.8 314.159 156.8V156.798Z" fill="#263238"/>
<path d="M322.178 140.809C322.141 138.343 324.884 134.387 327.541 130.557C329.631 127.542 331.607 124.691 332.179 122.694C333.469 118.188 330.14 106.183 330.106 106.063L330.428 105.972C330.565 106.468 333.817 118.191 332.501 122.788C331.915 124.838 329.922 127.709 327.815 130.748C325.193 134.534 322.476 138.447 322.513 140.803L322.178 140.809Z" fill="#263238"/>
<path d="M321.733 103.573C321.97 106.907 324.529 109.443 327.453 109.236C330.377 109.028 332.558 106.157 332.32 102.823C332.082 99.4893 329.523 96.9531 326.599 97.1608C323.675 97.3685 321.495 100.24 321.733 103.573Z" fill="#FFC727"/>
<path d="M320.031 103.905C320.293 107.614 323.143 110.435 326.399 110.204C329.651 109.973 332.076 106.78 331.811 103.071C331.55 99.362 328.7 96.541 325.444 96.7722C322.192 97.0033 319.767 100.196 320.031 103.905Z" fill="#FFC727"/>
<path d="M320.031 103.905C320.293 107.614 323.143 110.435 326.399 110.204C329.651 109.973 332.076 106.78 331.811 103.071C331.55 99.362 328.7 96.541 325.444 96.7722C322.192 97.0033 319.767 100.196 320.031 103.905Z" fill="white"/>
<path d="M309.749 121.401C309.94 122.221 315.46 128.041 319.09 127.133C321.67 126.49 318.806 120.643 318.806 120.643L320.474 113.236L311.189 107.319C311.189 107.319 309.672 121.049 309.749 121.397V121.401Z" fill="#EB9481"/>
<path d="M310.664 112.144C312.727 117.286 316.893 119.461 318.9 120.231L320.477 113.239L311.189 107.322C311.189 107.322 310.952 109.5 310.66 112.147L310.664 112.144Z" fill="#0D0D0D"/>
<path d="M318.899 120.231C318.923 119.672 319.023 119.132 319.141 118.596C319.265 118.06 319.409 117.531 319.626 117.015C319.603 117.574 319.502 118.114 319.385 118.65C319.261 119.186 319.117 119.715 318.899 120.231Z" fill="#455A64"/>
<path d="M329.885 101.453C331.972 113.712 324.868 116.348 322.222 116.794C319.824 117.199 311.601 118.278 308.258 106.297C304.915 94.3164 309.953 89.4717 315.392 88.2522C320.832 87.0327 327.795 89.1903 329.885 101.449V101.453Z" fill="#EB9481"/>
<path d="M308.376 105.413C311.33 105.195 310.921 100.541 310.921 100.541C310.921 100.541 314.244 99.9617 314.046 94.5341C314.046 94.5341 315.925 97.6633 320.521 97.9548C321.492 98.0151 318.066 95.7905 318.066 95.7905C318.066 95.7905 322.216 98.9666 329.269 97.0469C329.769 96.9129 328.064 89.4416 322.232 87.3275C316.401 85.2134 311.454 87.0963 308.269 90.9291C308.269 90.9291 305.237 92.6077 305.1 96.5443C304.959 100.484 307.227 105.496 308.376 105.413Z" fill="#0D0D0D"/>
<path d="M310.356 106.053C310.356 106.053 307.335 102.407 305.656 103.516C303.982 104.625 306.477 110.066 308.601 110.663C310.724 111.259 311.317 109.306 311.317 109.306L310.356 106.053Z" fill="#EB9481"/>
<path d="M306.41 105.058C306.377 105.058 306.373 105.105 306.403 105.115C307.897 105.58 308.768 106.857 309.415 108.204C308.942 107.704 308.333 107.46 307.656 108.029C307.619 108.06 307.663 108.116 307.703 108.103C308.286 107.929 308.721 107.996 309.16 108.435C309.472 108.746 309.699 109.155 309.934 109.527C310.011 109.651 310.239 109.564 310.178 109.416C310.175 109.406 310.168 109.396 310.165 109.383C310.051 107.537 308.406 105.078 306.414 105.054L306.41 105.058Z" fill="#0D0D0D"/>
<path d="M326.061 99.6099C325.766 99.6065 325.498 99.5529 325.207 99.5194C324.879 99.4826 324.614 99.4826 324.353 99.2614C324.212 99.1408 324.195 98.8728 324.299 98.7254C324.54 98.3836 324.952 98.33 325.348 98.3602C325.776 98.3937 326.101 98.5277 326.413 98.8225C326.714 99.1107 326.45 99.6166 326.061 99.6099Z" fill="#0D0D0D"/>
<path d="M317.55 100.367C317.838 100.303 318.089 100.196 318.367 100.106C318.679 100.002 318.94 99.9516 319.151 99.6802C319.265 99.5328 319.225 99.2648 319.094 99.1442C318.789 98.8561 318.374 98.8896 317.992 99.0001C317.577 99.1207 317.289 99.3184 317.044 99.6702C316.807 100.012 317.172 100.454 317.55 100.37V100.367Z" fill="#0D0D0D"/>
<path d="M320.949 110.12C321.16 110.311 321.375 110.576 321.683 110.586C321.978 110.599 322.319 110.452 322.584 110.334C322.611 110.324 322.637 110.351 322.621 110.375C322.413 110.71 321.961 110.931 321.566 110.88C321.18 110.83 320.976 110.505 320.869 110.16C320.852 110.11 320.919 110.09 320.949 110.12Z" fill="#0D0D0D"/>
<path d="M324.172 106.723C324.172 106.723 324.47 107.966 324.53 108.559C324.537 108.616 324.393 108.656 324.195 108.686C324.185 108.689 324.182 108.696 324.172 108.686C323.14 108.954 322.048 108.696 321.328 107.902C321.281 107.848 321.351 107.778 321.408 107.812C322.249 108.307 323.126 108.371 324.058 108.294C324.084 108.126 323.475 106.183 323.569 106.167C323.89 106.106 324.55 106.264 324.949 106.337C324.403 103.734 323.441 101.238 322.936 98.6349C322.919 98.5411 323.049 98.5009 323.086 98.5813C324.279 101.128 324.972 104.109 325.605 106.783C325.689 107.115 324.423 106.79 324.175 106.713L324.172 106.723Z" fill="#0D0D0D"/>
<path d="M323.763 108.408C323.763 108.408 323.351 109.172 322.684 109.517C322.44 109.648 322.165 109.721 321.864 109.684C321.244 109.611 321.15 109.065 321.194 108.579C321.227 108.18 321.361 107.822 321.361 107.822C321.361 107.822 322.349 108.515 323.763 108.405V108.408Z" fill="#0D0D0D"/>
<path d="M322.684 109.52C322.44 109.651 322.165 109.725 321.864 109.688C321.244 109.614 321.15 109.068 321.194 108.582C321.844 108.559 322.54 108.904 322.684 109.517V109.52Z" fill="#FF9CBD"/>
<path d="M318.545 102.913C318.32 103.088 318.062 103.302 317.778 103.356C317.449 103.416 317.111 103.114 316.87 102.86C316.847 102.833 316.823 102.86 316.826 102.897C316.863 103.419 317.138 103.835 317.707 103.865C318.223 103.892 318.551 103.315 318.719 103.081C318.776 102.997 318.639 102.846 318.548 102.917L318.545 102.913Z" fill="#0D0D0D"/>
<path d="M318.176 104.411C318.099 104.059 318.096 103.681 318.243 103.315C318.317 103.134 318.451 102.957 318.642 102.85C318.836 102.746 319.054 102.709 319.275 102.759C319.496 102.813 319.677 102.967 319.787 103.134C319.898 103.305 319.968 103.486 320.005 103.674C320.082 104.039 320.072 104.414 319.968 104.763C319.925 104.408 319.858 104.066 319.741 103.751C319.623 103.446 319.442 103.155 319.188 103.101C318.92 103.034 318.639 103.165 318.481 103.439C318.317 103.714 318.233 104.059 318.17 104.411H318.176Z" fill="#0D0D0D"/>
<path d="M326.017 102.032C326.248 102.149 326.529 102.484 326.844 102.428C327.199 102.364 327.236 102.039 327.39 101.734C327.407 101.704 327.43 101.724 327.437 101.757C327.514 102.273 327.373 102.85 326.868 102.95C326.496 103.024 326.131 102.394 325.906 102.23C325.826 102.173 325.926 101.982 326.02 102.029L326.017 102.032Z" fill="#0D0D0D"/>
<path d="M326.677 103.248C326.64 102.89 326.523 102.531 326.268 102.23C326.141 102.079 325.957 101.959 325.742 101.915C325.525 101.878 325.307 101.915 325.113 102.029C324.922 102.149 324.798 102.354 324.744 102.548C324.694 102.746 324.684 102.94 324.707 103.128C324.748 103.5 324.878 103.851 325.082 104.15C325.012 103.798 324.969 103.453 324.979 103.118C324.992 102.789 325.072 102.458 325.297 102.327C325.531 102.18 325.839 102.216 326.074 102.424C326.315 102.632 326.503 102.933 326.677 103.248Z" fill="#0D0D0D"/>
<path d="M330.187 107.322C330.194 108.137 330.066 108.951 329.872 109.745C329.678 110.539 329.38 111.309 329.005 112.043C328.633 112.777 328.141 113.45 327.571 114.043C327.015 114.653 326.322 115.115 325.608 115.497C325.766 115.37 325.927 115.243 326.087 115.122L326.325 114.938L326.543 114.73L326.982 114.321L327.377 113.872C327.883 113.256 328.348 112.606 328.703 111.889C329.075 111.182 329.373 110.438 329.621 109.674C329.745 109.292 329.852 108.904 329.943 108.512C330.046 108.12 330.117 107.724 330.184 107.322H330.187Z" fill="#0D0D0D"/>
<path d="M305.723 103.191C305.723 103.191 304.396 96.0016 306.051 91.7567C307.897 87.0327 315.396 84.8348 319.198 86.567C319.198 86.567 313.313 84.9789 308.955 91.7433C307.12 94.5911 308.165 103.104 308.165 103.104L305.723 103.191Z" fill="#FFC727"/>
<path d="M305.723 103.191C305.723 103.191 304.396 96.0016 306.051 91.7567C307.897 87.0327 315.396 84.8348 319.198 86.567C319.198 86.567 313.313 84.9789 308.955 91.7433C307.12 94.5911 308.165 103.104 308.165 103.104L305.723 103.191Z" fill="white"/>
<path d="M312.935 106.063C313.4 109.751 311.156 113.075 307.921 113.484C304.685 113.892 301.684 111.236 301.218 107.547C300.753 103.858 302.997 100.535 306.232 100.126C309.468 99.7171 312.469 102.374 312.935 106.063Z" fill="#FFC727"/>
<path d="M312.935 106.063C313.4 109.751 311.156 113.075 307.921 113.484C304.685 113.892 301.684 111.236 301.218 107.547C300.753 103.858 302.997 100.535 306.232 100.126C309.468 99.7171 312.469 102.374 312.935 106.063Z" fill="white"/>
<path d="M311.203 106.069C311.621 109.386 309.605 112.371 306.698 112.74C303.791 113.108 301.091 110.72 300.672 107.403C300.254 104.086 302.27 101.101 305.177 100.732C308.084 100.364 310.784 102.753 311.203 106.069Z" fill="#FFC727"/>
<path d="M308.342 106.495C308.6 108.532 307.361 110.368 305.572 110.592C303.783 110.82 302.129 109.349 301.871 107.312C301.613 105.275 302.852 103.439 304.641 103.215C306.429 102.987 308.087 104.458 308.345 106.495H308.342Z" fill="#FFC727"/>
<path opacity="0.2" d="M308.342 106.495C308.6 108.532 307.361 110.368 305.572 110.592C303.783 110.82 302.129 109.349 301.871 107.312C301.613 105.275 302.852 103.439 304.641 103.215C306.429 102.987 308.087 104.458 308.345 106.495H308.342Z" fill="black"/>
<defs>
<linearGradient id="paint0_linear_183_2195" x1="188.355" y1="0.804138" x2="188.355" y2="176.804" gradientUnits="userSpaceOnUse">
<stop stop-color="#B777F6"/>
<stop offset="1" stop-color="#711BC8"/>
</linearGradient>
</defs>
</svg>
