<svg width="345" height="49" viewBox="0 0 345 49" fill="none" xmlns="http://www.w3.org/2000/svg">
<rect x="0.5" y="0.958008" width="344" height="48" rx="24" fill="#787878"/>
<path d="M27.5734 30.198C30.4534 30.198 31.7334 28.886 31.7334 26.95C31.7334 25.142 30.7574 24.31 29.0294 23.846L27.1094 23.366C25.7654 23.014 25.2534 22.582 25.2534 21.622C25.2534 20.662 25.9254 20.006 27.7174 20.006C29.0934 20.006 30.4534 20.31 31.1094 20.55L31.0454 19.014C30.4534 18.822 29.1254 18.534 27.5894 18.534C24.8374 18.534 23.5894 19.814 23.5894 21.654C23.5894 23.398 24.4854 24.278 26.1814 24.726L28.1494 25.222C29.4934 25.574 30.0534 26.006 30.0534 26.982C30.0534 28.054 29.3334 28.726 27.4934 28.726C25.9734 28.726 24.4374 28.342 23.6854 28.054L23.9254 29.654C24.5654 29.878 25.9894 30.198 27.5734 30.198ZM35.5404 30.118C36.8844 30.118 37.6684 29.654 38.0364 28.87L38.2764 29.958H39.5724V24.822C39.5724 22.854 38.6284 21.75 36.3084 21.75C35.2364 21.75 34.2124 21.91 33.7324 22.022L33.4924 23.414C34.0204 23.27 35.0764 23.094 36.0364 23.094C37.5404 23.094 38.0364 23.638 38.0364 24.822V25.27H35.6844C33.8124 25.27 32.8364 26.15 32.8364 27.606C32.8364 29.142 33.7644 30.118 35.5404 30.118ZM35.8764 28.902C34.8364 28.902 34.3724 28.422 34.3724 27.606C34.3724 26.806 34.8364 26.358 35.9404 26.358H38.0364V26.918C38.0364 28.342 37.2684 28.902 35.8764 28.902ZM45.2441 28.758C44.2841 28.758 43.7721 28.31 43.7721 26.982V23.142H46.6201V21.846H43.7721V19.894L42.2361 20.246V21.846H40.9081V23.142H42.2361V26.982C42.2361 29.158 43.2921 30.118 44.9881 30.118C45.7241 30.118 46.3001 29.942 46.5241 29.798L46.7481 28.47C46.4761 28.582 45.8681 28.758 45.2441 28.758ZM51.138 30.118C52.37 30.118 53.106 29.654 53.538 28.886L53.794 29.958H55.074V21.846H53.538V26.454C53.538 27.99 52.994 28.742 51.57 28.742C50.226 28.742 49.682 27.99 49.682 26.454V21.846H48.146V26.79C48.146 28.838 49.122 30.118 51.138 30.118ZM57.492 29.958H59.028V25.254C59.028 23.734 59.812 23.046 61.076 23.046C61.748 23.046 62.292 23.254 62.5 23.382L62.404 21.91C62.228 21.814 61.796 21.702 61.3 21.702C60.228 21.702 59.524 22.086 59.028 22.918L58.788 21.846H57.492V29.958ZM68.814 18.854V22.934C68.654 22.566 67.966 21.702 66.398 21.702C64.27 21.702 63.278 22.966 63.278 25.91C63.278 28.854 64.27 30.118 66.398 30.118C67.966 30.118 68.654 29.254 68.814 28.886L69.038 29.958H70.35V18.614L68.814 18.854ZM66.83 28.774C65.422 28.774 64.846 27.958 64.846 25.91C64.846 23.862 65.422 23.046 66.83 23.046C68.222 23.046 68.814 23.862 68.814 25.91C68.814 27.958 68.222 28.774 66.83 28.774ZM74.8372 30.118C76.1812 30.118 76.9652 29.654 77.3332 28.87L77.5732 29.958H78.8692V24.822C78.8692 22.854 77.9252 21.75 75.6052 21.75C74.5332 21.75 73.5092 21.91 73.0292 22.022L72.7892 23.414C73.3172 23.27 74.3732 23.094 75.3332 23.094C76.8372 23.094 77.3332 23.638 77.3332 24.822V25.27H74.9812C73.1092 25.27 72.1332 26.15 72.1332 27.606C72.1332 29.142 73.0612 30.118 74.8372 30.118ZM75.1732 28.902C74.1332 28.902 73.6692 28.422 73.6692 27.606C73.6692 26.806 74.1332 26.358 75.2372 26.358H77.3332V26.918C77.3332 28.342 76.5652 28.902 75.1732 28.902ZM82.0305 33.158C83.0705 33.158 83.8225 32.598 84.3505 31.158L87.7585 21.846H86.1585L84.0305 28.006L81.6945 21.846H80.0305L83.2625 29.958L82.9585 30.726C82.6705 31.542 82.2705 31.798 81.6465 31.798C81.2145 31.798 80.8145 31.67 80.6225 31.574L80.8785 32.902C81.0385 33.014 81.4705 33.158 82.0305 33.158Z" fill="white"/>
<path d="M311.179 19.547L316.573 24.9405L311.179 30.3692" stroke="white" stroke-width="2" stroke-linecap="round" stroke-linejoin="round"/>
</svg>
