<svg width="345" height="49" viewBox="0 0 345 49" fill="none" xmlns="http://www.w3.org/2000/svg">
<rect x="0.5" y="0.958008" width="344" height="48" rx="24" fill="#FF928E"/>
<path d="M27.4874 30.198C30.3674 30.198 31.6474 28.886 31.6474 26.95C31.6474 25.142 30.6714 24.31 28.9434 23.846L27.0234 23.366C25.6794 23.014 25.1674 22.582 25.1674 21.622C25.1674 20.662 25.8394 20.006 27.6314 20.006C29.0074 20.006 30.3674 20.31 31.0234 20.55L30.9594 19.014C30.3674 18.822 29.0394 18.534 27.5034 18.534C24.7514 18.534 23.5034 19.814 23.5034 21.654C23.5034 23.398 24.3994 24.278 26.0954 24.726L28.0634 25.222C29.4074 25.574 29.9674 26.006 29.9674 26.982C29.9674 28.054 29.2474 28.726 27.4074 28.726C25.8874 28.726 24.3514 28.342 23.5994 28.054L23.8394 29.654C24.4794 29.878 25.9034 30.198 27.4874 30.198ZM36.2239 30.118C37.4559 30.118 38.1919 29.654 38.6239 28.886L38.8799 29.958H40.1599V21.846H38.6239V26.454C38.6239 27.99 38.0799 28.742 36.6559 28.742C35.3119 28.742 34.7679 27.99 34.7679 26.454V21.846H33.2319V26.79C33.2319 28.838 34.2079 30.118 36.2239 30.118ZM42.5779 29.958H44.1139V25.366C44.1139 23.83 44.6579 23.078 46.0819 23.078C47.4419 23.078 47.9699 23.83 47.9699 25.366V29.958H49.5059V25.03C49.5059 22.982 48.5299 21.702 46.5139 21.702C45.2819 21.702 44.5459 22.166 44.1139 22.934L43.8739 21.846H42.5779V29.958ZM56.8999 18.854V22.934C56.7399 22.566 56.0519 21.702 54.4839 21.702C52.3559 21.702 51.3639 22.966 51.3639 25.91C51.3639 28.854 52.3559 30.118 54.4839 30.118C56.0519 30.118 56.7399 29.254 56.8999 28.886L57.1239 29.958H58.4359V18.614L56.8999 18.854ZM54.9159 28.774C53.5079 28.774 52.9319 27.958 52.9319 25.91C52.9319 23.862 53.5079 23.046 54.9159 23.046C56.3079 23.046 56.8999 23.862 56.8999 25.91C56.8999 27.958 56.3079 28.774 54.9159 28.774ZM62.9232 30.118C64.2672 30.118 65.0512 29.654 65.4192 28.87L65.6592 29.958H66.9552V24.822C66.9552 22.854 66.0112 21.75 63.6912 21.75C62.6192 21.75 61.5952 21.91 61.1152 22.022L60.8752 23.414C61.4032 23.27 62.4592 23.094 63.4192 23.094C64.9232 23.094 65.4192 23.638 65.4192 24.822V25.27H63.0672C61.1952 25.27 60.2192 26.15 60.2192 27.606C60.2192 29.142 61.1472 30.118 62.9232 30.118ZM63.2592 28.902C62.2192 28.902 61.7552 28.422 61.7552 27.606C61.7552 26.806 62.2192 26.358 63.3232 26.358H65.4192V26.918C65.4192 28.342 64.6512 28.902 63.2592 28.902ZM70.1164 33.158C71.1564 33.158 71.9084 32.598 72.4364 31.158L75.8444 21.846H74.2444L72.1164 28.006L69.7804 21.846H68.1164L71.3484 29.958L71.0444 30.726C70.7564 31.542 70.3564 31.798 69.7324 31.798C69.3004 31.798 68.9004 31.67 68.7084 31.574L68.9644 32.902C69.1244 33.014 69.5564 33.158 70.1164 33.158Z" fill="white"/>
<path d="M311.179 19.1359L316.573 24.5295L311.179 29.9582" stroke="white" stroke-width="2" stroke-linecap="round" stroke-linejoin="round"/>
</svg>
