<svg width="344" height="49" viewBox="0 0 344 49" fill="none" xmlns="http://www.w3.org/2000/svg">
<rect y="0.958008" width="344" height="48" rx="24" fill="#A34EF8"/>
<path d="M31.083 18.758H22.971V20.262H26.203V29.958H27.851V20.262H31.083V18.758ZM36.5072 21.702C35.2592 21.702 34.5232 22.15 34.0592 22.902V18.614L32.5232 18.854V29.958H34.0592V25.35C34.0592 23.878 34.5712 23.078 36.0592 23.078C37.4192 23.078 37.9152 23.878 37.9152 25.35V29.958H39.4512V24.998C39.4512 23.046 38.5232 21.702 36.5072 21.702ZM44.6692 30.118C45.9012 30.118 46.6372 29.654 47.0692 28.886L47.3252 29.958H48.6052V21.846H47.0692V26.454C47.0692 27.99 46.5252 28.742 45.1012 28.742C43.7572 28.742 43.2132 27.99 43.2132 26.454V21.846H41.6772V26.79C41.6772 28.838 42.6532 30.118 44.6692 30.118ZM51.0232 29.958H52.5592V25.254C52.5592 23.734 53.3432 23.046 54.6072 23.046C55.2792 23.046 55.8232 23.254 56.0312 23.382L55.9352 21.91C55.7592 21.814 55.3272 21.702 54.8312 21.702C53.7592 21.702 53.0552 22.086 52.5592 22.918L52.3192 21.846H51.0232V29.958ZM59.8779 30.134C62.1819 30.134 63.1899 29.222 63.1899 27.702C63.1899 26.358 62.5819 25.67 60.9659 25.334L59.6539 25.078C58.7259 24.902 58.4219 24.614 58.4219 24.038C58.4219 23.43 58.9179 23.03 60.3579 23.03C61.4459 23.03 62.3579 23.286 62.7579 23.478L62.6619 22.07C62.2299 21.926 61.2699 21.702 60.1979 21.702C57.9419 21.702 56.9339 22.614 56.9339 24.086C56.9339 25.366 57.5259 26.07 59.0939 26.39L60.4379 26.662C61.4139 26.854 61.6699 27.126 61.6699 27.734C61.6699 28.374 61.1739 28.806 59.7659 28.806C58.5819 28.806 57.4459 28.502 56.9339 28.278L57.1739 29.686C57.6699 29.878 58.7259 30.134 59.8779 30.134ZM70.0484 18.854V22.934C69.8884 22.566 69.2004 21.702 67.6324 21.702C65.5044 21.702 64.5124 22.966 64.5124 25.91C64.5124 28.854 65.5044 30.118 67.6324 30.118C69.2004 30.118 69.8884 29.254 70.0484 28.886L70.2724 29.958H71.5844V18.614L70.0484 18.854ZM68.0644 28.774C66.6564 28.774 66.0804 27.958 66.0804 25.91C66.0804 23.862 66.6564 23.046 68.0644 23.046C69.4564 23.046 70.0484 23.862 70.0484 25.91C70.0484 27.958 69.4564 28.774 68.0644 28.774ZM76.0716 30.118C77.4156 30.118 78.1996 29.654 78.5676 28.87L78.8076 29.958H80.1036V24.822C80.1036 22.854 79.1596 21.75 76.8396 21.75C75.7676 21.75 74.7436 21.91 74.2636 22.022L74.0236 23.414C74.5516 23.27 75.6076 23.094 76.5676 23.094C78.0716 23.094 78.5676 23.638 78.5676 24.822V25.27H76.2156C74.3436 25.27 73.3676 26.15 73.3676 27.606C73.3676 29.142 74.2956 30.118 76.0716 30.118ZM76.4076 28.902C75.3676 28.902 74.9036 28.422 74.9036 27.606C74.9036 26.806 75.3676 26.358 76.4716 26.358H78.5676V26.918C78.5676 28.342 77.7996 28.902 76.4076 28.902ZM83.2649 33.158C84.3049 33.158 85.0569 32.598 85.5849 31.158L88.9929 21.846H87.3929L85.2649 28.006L82.9289 21.846H81.2649L84.4969 29.958L84.1929 30.726C83.9049 31.542 83.5049 31.798 82.8809 31.798C82.4489 31.798 82.0489 31.67 81.8569 31.574L82.1129 32.902C82.2729 33.014 82.7049 33.158 83.2649 33.158Z" fill="white"/>
<path d="M311.179 20.5471L316.573 25.9406L311.179 31.3693" stroke="white" stroke-width="2" stroke-linecap="round" stroke-linejoin="round"/>
</svg>
