<svg width="345" height="49" viewBox="0 0 345 49" fill="none" xmlns="http://www.w3.org/2000/svg">
<rect x="0.5" y="0.958008" width="344" height="48" rx="24" fill="#80CD44"/>
<path d="M31.1924 20.758H23.0804V22.262H26.3124V31.958H27.9604V22.262H31.1924V20.758ZM34.4817 32.118C35.7137 32.118 36.4497 31.654 36.8817 30.886L37.1377 31.958H38.4177V23.846H36.8817V28.454C36.8817 29.99 36.3377 30.742 34.9137 30.742C33.5697 30.742 33.0257 29.99 33.0257 28.454V23.846H31.4897V28.79C31.4897 30.838 32.4657 32.118 34.4817 32.118ZM44.4197 32.118C45.3797 32.118 46.2917 31.91 46.7237 31.766L46.9637 30.358C46.4837 30.534 45.4597 30.774 44.4677 30.774C42.5957 30.774 41.9237 29.942 41.8917 28.406H47.4277V27.894C47.4277 24.918 46.1477 23.702 43.9397 23.702C41.5877 23.702 40.3397 25.158 40.3397 27.878C40.3397 30.63 41.4757 32.118 44.4197 32.118ZM41.8917 27.318C41.9397 25.782 42.6757 24.982 43.9397 24.982C45.1397 24.982 45.9077 25.654 45.9557 27.318H41.8917ZM51.7685 32.134C54.0725 32.134 55.0805 31.222 55.0805 29.702C55.0805 28.358 54.4725 27.67 52.8565 27.334L51.5445 27.078C50.6165 26.902 50.3125 26.614 50.3125 26.038C50.3125 25.43 50.8085 25.03 52.2485 25.03C53.3365 25.03 54.2485 25.286 54.6485 25.478L54.5525 24.07C54.1205 23.926 53.1605 23.702 52.0885 23.702C49.8325 23.702 48.8245 24.614 48.8245 26.086C48.8245 27.366 49.4165 28.07 50.9845 28.39L52.3285 28.662C53.3045 28.854 53.5605 29.126 53.5605 29.734C53.5605 30.374 53.0645 30.806 51.6565 30.806C50.4725 30.806 49.3365 30.502 48.8245 30.278L49.0645 31.686C49.5605 31.878 50.6165 32.134 51.7685 32.134ZM61.939 20.854V24.934C61.779 24.566 61.091 23.702 59.523 23.702C57.395 23.702 56.403 24.966 56.403 27.91C56.403 30.854 57.395 32.118 59.523 32.118C61.091 32.118 61.779 31.254 61.939 30.886L62.163 31.958H63.475V20.614L61.939 20.854ZM59.955 30.774C58.547 30.774 57.971 29.958 57.971 27.91C57.971 25.862 58.547 25.046 59.955 25.046C61.347 25.046 61.939 25.862 61.939 27.91C61.939 29.958 61.347 30.774 59.955 30.774ZM67.9622 32.118C69.3062 32.118 70.0902 31.654 70.4582 30.87L70.6982 31.958H71.9942V26.822C71.9942 24.854 71.0502 23.75 68.7302 23.75C67.6582 23.75 66.6342 23.91 66.1542 24.022L65.9142 25.414C66.4422 25.27 67.4982 25.094 68.4582 25.094C69.9622 25.094 70.4582 25.638 70.4582 26.822V27.27H68.1062C66.2342 27.27 65.2582 28.15 65.2582 29.606C65.2582 31.142 66.1862 32.118 67.9622 32.118ZM68.2982 30.902C67.2582 30.902 66.7942 30.422 66.7942 29.606C66.7942 28.806 67.2582 28.358 68.3622 28.358H70.4582V28.918C70.4582 30.342 69.6902 30.902 68.2982 30.902ZM75.1555 35.158C76.1955 35.158 76.9475 34.598 77.4755 33.158L80.8835 23.846H79.2835L77.1555 30.006L74.8195 23.846H73.1555L76.3875 31.958L76.0835 32.726C75.7955 33.542 75.3955 33.798 74.7715 33.798C74.3395 33.798 73.9395 33.67 73.7475 33.574L74.0035 34.902C74.1635 35.014 74.5955 35.158 75.1555 35.158Z" fill="white"/>
<path d="M312.447 19.547L317.841 24.9405L312.447 30.3692" stroke="white" stroke-width="2" stroke-linecap="round" stroke-linejoin="round"/>
</svg>
