<svg width="334" height="49" viewBox="0 0 334 49" fill="none" xmlns="http://www.w3.org/2000/svg">
<rect x="0.272461" y="0.958008" width="333.227" height="48" rx="24" fill="#EADBFA"/>
<path d="M229.456 19.258V27.594L224.016 19.258H222.576V30.458H224.128V22.122L229.568 30.458H230.992V19.258H229.456ZM236.564 30.618C239.012 30.618 240.1 29.322 240.1 26.41C240.1 23.498 239.012 22.202 236.564 22.202C234.132 22.202 233.028 23.498 233.028 26.41C233.028 29.322 234.132 30.618 236.564 30.618ZM236.564 29.274C235.172 29.274 234.596 28.458 234.596 26.41C234.596 24.362 235.172 23.546 236.564 23.546C237.972 23.546 238.548 24.362 238.548 26.41C238.548 28.458 237.972 29.274 236.564 29.274ZM242.055 30.458H243.591V25.866C243.591 24.33 244.135 23.578 245.559 23.578C246.919 23.578 247.447 24.33 247.447 25.866V30.458H248.983V25.53C248.983 23.482 248.007 22.202 245.991 22.202C244.759 22.202 244.023 22.666 243.591 23.434L243.351 22.346H242.055V30.458ZM261.433 19.258L258.409 28.122L255.417 19.258H253.625L257.609 30.458H259.177L263.161 19.258H261.433ZM267.451 30.618C268.411 30.618 269.323 30.41 269.755 30.266L269.995 28.858C269.515 29.034 268.491 29.274 267.499 29.274C265.627 29.274 264.955 28.442 264.923 26.906H270.459V26.394C270.459 23.418 269.179 22.202 266.971 22.202C264.619 22.202 263.371 23.658 263.371 26.378C263.371 29.13 264.507 30.618 267.451 30.618ZM264.923 25.818C264.971 24.282 265.707 23.482 266.971 23.482C268.171 23.482 268.939 24.154 268.987 25.818H264.923ZM274.992 33.658C277.648 33.658 278.944 32.346 278.944 29.626V22.346H277.632L277.408 23.434C277.248 23.066 276.56 22.202 274.992 22.202C272.864 22.202 271.872 23.466 271.872 26.41C271.872 29.274 272.864 30.506 274.992 30.506C276.544 30.506 277.248 29.754 277.408 29.37V29.706C277.376 31.578 276.576 32.314 274.864 32.314C273.904 32.314 272.976 32.026 272.528 31.818L272.752 33.274C273.168 33.434 274.048 33.658 274.992 33.658ZM275.424 29.162C274.016 29.162 273.44 28.378 273.44 26.41C273.44 24.362 274.016 23.546 275.424 23.546C276.816 23.546 277.408 24.362 277.408 26.41C277.408 28.378 276.816 29.162 275.424 29.162Z" fill="black"/>
<rect x="0.63916" y="0.958008" width="160.22" height="48" rx="24" fill="url(#paint0_linear_60_1311)"/>
<rect x="0.63916" y="0.958008" width="160.22" height="48" rx="24" fill="url(#paint1_linear_60_1311)"/>
<path d="M75.3818 19.258L72.3578 28.122L69.3658 19.258H67.5738L71.5578 30.458H73.1258L77.1098 19.258H75.3818ZM81.4002 30.618C82.3602 30.618 83.2722 30.41 83.7042 30.266L83.9442 28.858C83.4642 29.034 82.4402 29.274 81.4482 29.274C79.5762 29.274 78.9042 28.442 78.8722 26.906H84.4082V26.394C84.4082 23.418 83.1282 22.202 80.9202 22.202C78.5682 22.202 77.3202 23.658 77.3202 26.378C77.3202 29.13 78.4562 30.618 81.4002 30.618ZM78.8722 25.818C78.9202 24.282 79.6562 23.482 80.9202 23.482C82.1202 23.482 82.8882 24.154 82.9362 25.818H78.8722ZM88.941 33.658C91.597 33.658 92.893 32.346 92.893 29.626V22.346H91.581L91.357 23.434C91.197 23.066 90.509 22.202 88.941 22.202C86.813 22.202 85.821 23.466 85.821 26.41C85.821 29.274 86.813 30.506 88.941 30.506C90.493 30.506 91.197 29.754 91.357 29.37V29.706C91.325 31.578 90.525 32.314 88.813 32.314C87.853 32.314 86.925 32.026 86.477 31.818L86.701 33.274C87.117 33.434 87.997 33.658 88.941 33.658ZM89.373 29.162C87.965 29.162 87.389 28.378 87.389 26.41C87.389 24.362 87.965 23.546 89.373 23.546C90.765 23.546 91.357 24.362 91.357 26.41C91.357 28.378 90.765 29.162 89.373 29.162Z" fill="white"/>
<defs>
<linearGradient id="paint0_linear_60_1311" x1="80.7493" y1="0.958008" x2="80.7493" y2="48.958" gradientUnits="userSpaceOnUse">
<stop stop-color="#A34EF8"/>
<stop offset="1" stop-color="#6C15C2"/>
</linearGradient>
<linearGradient id="paint1_linear_60_1311" x1="80.7493" y1="0.958008" x2="80.7493" y2="48.958" gradientUnits="userSpaceOnUse">
<stop stop-color="#A34EF8"/>
<stop offset="1" stop-color="#6C15C2"/>
</linearGradient>
</defs>
</svg>
