<svg width="345" height="49" viewBox="0 0 345 49" fill="none" xmlns="http://www.w3.org/2000/svg">
<rect x="0.5" y="0.958008" width="344" height="48" rx="24" fill="#7D97F4"/>
<path d="M35.0383 18.758L33.3423 27.494L30.1103 18.758H29.8863L26.6223 27.494L24.9263 18.758H23.2783L25.6143 29.958H27.2303L29.9663 22.454L32.7183 29.958H34.3343L36.6543 18.758H35.0383ZM41.5838 30.118C42.5438 30.118 43.4558 29.91 43.8878 29.766L44.1278 28.358C43.6478 28.534 42.6238 28.774 41.6318 28.774C39.7598 28.774 39.0878 27.942 39.0558 26.406H44.5918V25.894C44.5918 22.918 43.3118 21.702 41.1038 21.702C38.7518 21.702 37.5038 23.158 37.5038 25.878C37.5038 28.63 38.6398 30.118 41.5838 30.118ZM39.0558 25.318C39.1038 23.782 39.8398 22.982 41.1038 22.982C42.3038 22.982 43.0718 23.654 43.1198 25.318H39.0558ZM51.5406 18.854V22.934C51.3806 22.566 50.6926 21.702 49.1246 21.702C46.9966 21.702 46.0046 22.966 46.0046 25.91C46.0046 28.854 46.9966 30.118 49.1246 30.118C50.6926 30.118 51.3806 29.254 51.5406 28.886L51.7646 29.958H53.0766V18.614L51.5406 18.854ZM49.5566 28.774C48.1486 28.774 47.5726 27.958 47.5726 25.91C47.5726 23.862 48.1486 23.046 49.5566 23.046C50.9486 23.046 51.5406 23.862 51.5406 25.91C51.5406 27.958 50.9486 28.774 49.5566 28.774ZM55.4998 29.958H57.0358V25.366C57.0358 23.83 57.5798 23.078 59.0038 23.078C60.3638 23.078 60.8918 23.83 60.8918 25.366V29.958H62.4278V25.03C62.4278 22.982 61.4518 21.702 59.4358 21.702C58.2038 21.702 57.4678 22.166 57.0358 22.934L56.7958 21.846H55.4998V29.958ZM68.3338 30.118C69.2938 30.118 70.2058 29.91 70.6378 29.766L70.8778 28.358C70.3978 28.534 69.3738 28.774 68.3818 28.774C66.5098 28.774 65.8378 27.942 65.8058 26.406H71.3418V25.894C71.3418 22.918 70.0618 21.702 67.8538 21.702C65.5018 21.702 64.2538 23.158 64.2538 25.878C64.2538 28.63 65.3898 30.118 68.3338 30.118ZM65.8058 25.318C65.8538 23.782 66.5898 22.982 67.8538 22.982C69.0538 22.982 69.8218 23.654 69.8698 25.318H65.8058ZM75.6826 30.134C77.9866 30.134 78.9946 29.222 78.9946 27.702C78.9946 26.358 78.3866 25.67 76.7706 25.334L75.4586 25.078C74.5306 24.902 74.2266 24.614 74.2266 24.038C74.2266 23.43 74.7226 23.03 76.1626 23.03C77.2506 23.03 78.1626 23.286 78.5626 23.478L78.4666 22.07C78.0346 21.926 77.0746 21.702 76.0026 21.702C73.7466 21.702 72.7386 22.614 72.7386 24.086C72.7386 25.366 73.3306 26.07 74.8986 26.39L76.2426 26.662C77.2186 26.854 77.4746 27.126 77.4746 27.734C77.4746 28.374 76.9786 28.806 75.5706 28.806C74.3866 28.806 73.2506 28.502 72.7386 28.278L72.9786 29.686C73.4746 29.878 74.5306 30.134 75.6826 30.134ZM85.8531 18.854V22.934C85.6931 22.566 85.0051 21.702 83.4371 21.702C81.3091 21.702 80.3171 22.966 80.3171 25.91C80.3171 28.854 81.3091 30.118 83.4371 30.118C85.0051 30.118 85.6931 29.254 85.8531 28.886L86.0771 29.958H87.3891V18.614L85.8531 18.854ZM83.8691 28.774C82.4611 28.774 81.8851 27.958 81.8851 25.91C81.8851 23.862 82.4611 23.046 83.8691 23.046C85.2611 23.046 85.8531 23.862 85.8531 25.91C85.8531 27.958 85.2611 28.774 83.8691 28.774ZM91.8763 30.118C93.2203 30.118 94.0043 29.654 94.3723 28.87L94.6123 29.958H95.9083V24.822C95.9083 22.854 94.9643 21.75 92.6443 21.75C91.5723 21.75 90.5483 21.91 90.0683 22.022L89.8283 23.414C90.3563 23.27 91.4123 23.094 92.3723 23.094C93.8763 23.094 94.3723 23.638 94.3723 24.822V25.27H92.0203C90.1483 25.27 89.1723 26.15 89.1723 27.606C89.1723 29.142 90.1003 30.118 91.8763 30.118ZM92.2123 28.902C91.1723 28.902 90.7083 28.422 90.7083 27.606C90.7083 26.806 91.1723 26.358 92.2763 26.358H94.3723V26.918C94.3723 28.342 93.6043 28.902 92.2123 28.902ZM99.0696 33.158C100.11 33.158 100.862 32.598 101.39 31.158L104.798 21.846H103.198L101.07 28.006L98.7336 21.846H97.0696L100.302 29.958L99.9976 30.726C99.7096 31.542 99.3096 31.798 98.6856 31.798C98.2536 31.798 97.8536 31.67 97.6616 31.574L97.9176 32.902C98.0776 33.014 98.5096 33.158 99.0696 33.158Z" fill="white"/>
<path d="M311.179 19.547L316.573 24.9405L311.179 30.3692" stroke="white" stroke-width="2" stroke-linecap="round" stroke-linejoin="round"/>
</svg>
